SplineFontDB: 3.0
FontName: Railway
FullName: Railway
FamilyName: Railway
Weight: Book
Copyright: Copyright (c) Justin Howes. An Unpublished work from Justin Howes., 1994. All rights reserved.\n\nRevised July 2012 (c) Greg Fleming.
Version: 1.100
ItalicAngle: 0
UnderlinePosition: -75
UnderlineWidth: 50
Ascent: 800
Descent: 200
LayerCount: 2
Layer: 0 1 "Back"  1
Layer: 1 1 "Fore"  0
NeedsXUIDChange: 1
XUID: [1021 52 326964103 2908870]
FSType: 0
OS2Version: 0
OS2_WeightWidthSlopeOnly: 0
OS2_UseTypoMetrics: 1
CreationTime: 1098899002
ModificationTime: 1345927421
PfmFamily: 33
TTFWeight: 400
TTFWidth: 5
LineGap: 22
VLineGap: 0
Panose: 2 0 5 6 4 0 0 2 0 4
OS2TypoAscent: -100
OS2TypoAOffset: 1
OS2TypoDescent: -25
OS2TypoDOffset: 1
OS2TypoLinegap: 44
OS2WinAscent: 0
OS2WinAOffset: 1
OS2WinDescent: 0
OS2WinDOffset: 1
HheadAscent: 0
HheadAOffset: 1
HheadDescent: 0
HheadDOffset: 1
OS2SubXSize: 204
OS2SubYSize: 204
OS2SubXOff: 0
OS2SubYOff: 286
OS2SupXSize: 204
OS2SupYSize: 204
OS2SupXOff: 0
OS2SupYOff: 286
OS2StrikeYSize: 50
OS2StrikeYPos: 250
OS2Vendor: 'pyrs'
OS2UnicodeRanges: 80000003.00000000.00000000.00000000
Lookup: 258 0 0 "Pairwise Positioning (kerning) lookup 0"  {"Pairwise Positioning (kerning) lookup 0-1"  } []
MarkAttachClasses: 1
DEI: 91125
TtTable: prep
PUSHW_1
 0
CALL
SVTCA[y-axis]
PUSHW_3
 1
 4
 7
CALL
PUSHW_1
 0
DUP
RCVT
RDTG
ROUND[Black]
RTG
WCVTP
EndTTInstrs
TtTable: fpgm
PUSHW_1
 0
FDEF
MPPEM
PUSHW_1
 9
LT
IF
PUSHB_2
 1
 1
INSTCTRL
EIF
PUSHW_1
 511
SCANCTRL
PUSHW_1
 68
SCVTCI
PUSHW_2
 9
 3
SDS
SDB
ENDF
PUSHW_1
 1
FDEF
DUP
DUP
RCVT
ROUND[Black]
WCVTP
PUSHB_1
 1
ADD
ENDF
PUSHW_1
 2
FDEF
PUSHW_1
 1
LOOPCALL
POP
ENDF
PUSHW_1
 3
FDEF
DUP
GC[cur]
PUSHB_1
 3
CINDEX
GC[cur]
GT
IF
SWAP
EIF
DUP
ROLL
DUP
ROLL
MD[grid]
ABS
ROLL
DUP
GC[cur]
DUP
ROUND[Grey]
SUB
ABS
PUSHB_1
 4
CINDEX
GC[cur]
DUP
ROUND[Grey]
SUB
ABS
GT
IF
SWAP
NEG
ROLL
EIF
MDAP[rnd]
DUP
PUSHB_1
 0
GTEQ
IF
ROUND[Black]
DUP
PUSHB_1
 0
EQ
IF
POP
PUSHB_1
 64
EIF
ELSE
ROUND[Black]
DUP
PUSHB_1
 0
EQ
IF
POP

StartChar: exclam
Encoding: 33 33 4
Width: 200
Flags: MW
LayerCount: 2
Fore
SplineSet
173 53 m 1,0,-1
 105 -15 l 1,1,-1
 33 54 l 1,2,-1
 101 122 l 1,3,-1
 173 53 l 1,0,-1
150 612 m 1,4,-1
 129 156 l 1,5,-1
 73 156 l 1,6,-1
 50 612 l 1,7,-1
 50 700 l 1,8,-1
 150 700 l 1,9,-1
 150 612 l 1,4,-1
EndSplineSet
Validated: 1
EndChar

StartChar: ampersand
Encoding: 38 38 5
Width: 654
Flags: MW
LayerCount: 2
Fore
SplineSet
335 168 m 1,0,1
 198 307 l 1,2,3
 187 304 187 304 171.5 296 c 128,-1,4
 156 288 156 288 141 275 c 128,-1,5
 126 262 126 262 115.5 243 c 128,-1,6
 105 224 105 224 105 197 c 0,7,8
 105 174 105 174 113.5 154.5 c 128,-1,9
 122 135 122 135 136.5 120.5 c 128,-1,10
 151 106 151 106 170.5 97.5 c 128,-1,11
 190 89 190 89 211 89 c 0,12,13
 247 89 247 89 281 110 c 128,-1,14
 315 131 315 131 335 168 c 1,0,1
644 0 m 1,15,-1
 507 0 l 1,16,-1
 409 93 l 1,17,18
 375 45 375 45 320 17 c 128,-1,19
 265 -11 265 -11 207 -11 c 0,20,21
 162 -8 162 -8 124.5 9 c 128,-1,22
 87 26 87 26 60.5 53 c 128,-1,23
 34 80 34 80 19.5 116.5 c 128,-1,24
 5 153 5 153 5 197 c 0,25,26
 5 260 5 260 38 308 c 128,-1,27
 71 356 71 356 124 382 c 1,28,29
 101 406 101 406 82 446 c 128,-1,30
 63 486 63 486 63 529 c 0,31,32
 63 563 63 563 77 594.5 c 128,-1,33
 91 626 91 626 114.5 649 c 128,-1,34
 138 672 138 672 170 686 c 128,-1,35
 202 700 202 700 238 700 c 0,36,37
 275 700 275 700 308 686.5 c 128,-1,38
 341 673 341 673 366 650 c 128,-1,39
 391 627 391 627 405.5 596.5 c 128,-1,40
 420 566 420 566 420 532 c 0,41,42
 420 495 420 495 408.5 466 c 128,-1,43
 397 437 397 437 379 415 c 128,-1,44
 361 393 361 393 338.5 377.5 c 128,-1,45
 316 362 316 362 294 352 c 1,46,-1
 400 246 l 1,47,-1
 480 370 l 1,48,-1
 600 370 l 1,49,-1
 472 174 l 1,50,-1
 644 0 l 1,15,-1
320 534 m 0,51,52
 320 560 320 560 296 580 c 128,-1,53
 272 600 272 600 238 600 c 0,54,55
 207 600 207 600 185 578.5 c 128,-1,56
 163 557 163 557 163 529 c 0,57,58
 163 508 163 508 167.5 494.5 c 128,-1,59
 172 481 172 481 179.5 470.5 c 128,-1,60
 187 460 187 460 196.5 451.5 c 128,-1,61
 206 443 206 443 217 432 c 1,62,63
 236 436 236 436 254.5 444 c 128,-1,64
 273 452 273 452 287.5 465 c 128,-1,65
 302 478 302 478 311 495 c 128,-1,66
 320 512 320 512 320 534 c 0,51,52
EndSplineSet
Validated: 1
EndChar

StartChar: parenleft
Encoding: 40 40 6
Width: 200
Flags: MW
LayerCount: 2
Fore
SplineSet
199 -235 m 1,0,1
 99 -235 l 1,2,3
 76 -181 76 -181 58 -123.5 c 128,-1,4
 40 -66 40 -66 26.5 -2.5 c 128,-1,5
 13 61 13 61 6 132.5 c 128,-1,6
 -1 204 -1 204 -1 285 c 128,-1,7
 -0.999999 366 -0.999999 366 6 437.5 c 128,-1,8
 13 509 13 509 26 573 c 128,-1,9
 39 637 39 637 57 695 c 128,-1,10
 75 753 75 753 98 807 c 1,11,-1
 196 807 l 1,12,13
 174 753 174 753 156 695 c 128,-1,14
 138 637 138 637 125.5 573 c 128,-1,15
 113 509 113 509 106 437.5 c 128,-1,16
 99 366 99 366 99 285 c 128,-1,17
 99 204 99 204 106 132.5 c 128,-1,18
 113 61 113 61 126.5 -2.5 c 128,-1,19
 140 -66 140 -66 158 -123.5 c 128,-1,20
 176 -181 176 -181 199 -235 c 1,0,1
EndSplineSet
Validated: 1
EndChar

StartChar: parenright
Encoding: 41 41 7
Width: 200
Flags: MW
LayerCount: 2
Fore
SplineSet
200 287 m 0,0,1
 200 205 200 205 192.5 133.5 c 128,-1,2
 185 62 185 62 171.5 -2 c 128,-1,3
 158 -66 158 -66 139 -123.5 c 128,-1,4
 120 -181 120 -181 97 -235 c 1,5,-1
 -3 -235 l 1,6,7
 20 -181 20 -181 39 -123.5 c 128,-1,8
 58 -66 58 -66 71.5 -2 c 128,-1,9
 85 62 85 62 92.5 133.5 c 128,-1,10
 100 205 100 205 100 287 c 0,11,12
 100 368 100 368 93 439 c 128,-1,13
 86 510 86 510 72.5 573.5 c 128,-1,14
 59 637 59 637 40.5 695 c 128,-1,15
 22 753 22 753 0 807 c 1,16,-1
 98 807 l 1,17,18
 121 753 121 753 140 695 c 128,-1,19
 159 637 159 637 172.5 573.5 c 128,-1,20
 186 510 186 510 193 439 c 128,-1,21
 200 368 200 368 200 287 c 0,0,1
EndSplineSet
Validated: 1
EndChar

StartChar: asterisk
Encoding: 42 42 8
Width: 404
Flags: MW
LayerCount: 2
Fore
SplineSet
397 467 m 1,0,-1
 352 385 l 1,1,-1
 225 493 l 1,2,-1
 257 328 l 1,3,-1
 165 326 l 1,4,-1
 194 490 l 1,5,-1
 67 381 l 1,6,-1
 20 459 l 1,7,-1
 180 518 l 1,8,-1
 20 574 l 1,9,-1
 65 655 l 1,10,-1
 195 544 l 1,11,-1
 162 715 l 1,12,-1
 257 715 l 1,13,-1
 226 546 l 1,14,-1
 349 658 l 1,15,-1
 396 579 l 1,16,-1
 239 522 l 1,17,-1
 397 467 l 1,0,-1
EndSplineSet
Validated: 1
EndChar

StartChar: plus
Encoding: 43 43 9
Width: 506
VWidth: 848
Flags: HMW
LayerCount: 2
Fore
SplineSet
445.9 294.2 m 5,0,-1
 445.9 294.2 l 5,1,-1
 301.9 294.2 l 5,2,-1
 301.9 143 l 5,3,-1
 204.3 143 l 5,4,-1
 204.3 294.2 l 5,5,-1
 61.0996 294.2 l 5,6,-1
 61.0996 391.8 l 5,7,-1
 204.3 391.8 l 5,8,-1
 204.3 543 l 5,9,-1
 301.9 543 l 5,10,-1
 301.9 391.8 l 5,11,-1
 445.9 391.8 l 5,12,-1
 445.9 294.2 l 5,0,-1
EndSplineSet
EndChar

StartChar: comma
Encoding: 44 44 10
Width: 157
Flags: MW
LayerCount: 2
Fore
SplineSet
159 -8 m 2,0,1
 159 -37 159 -37 147 -61.5 c 128,-1,2
 135 -86 135 -86 113.5 -104 c 128,-1,3
 92 -122 92 -122 63.5 -132.5 c 128,-1,4
 35 -143 35 -143 2 -143 c 1,5,-1
 2 -132 l 1,6,7
 14 -128 14 -128 24 -120 c 128,-1,8
 34 -112 34 -112 42 -98 c 128,-1,9
 50 -84 50 -84 54.5 -62.5 c 128,-1,10
 59 -41 59 -41 59 -8 c 2,11,-1
 59 100 l 1,12,-1
 159 100 l 1,13,-1
 159 -8 l 2,0,1
EndSplineSet
Validated: 1
EndChar

StartChar: hyphen
Encoding: 45 45 11
Width: 379
Flags: HMW
LayerCount: 2
Fore
SplineSet
342 220 m 1,0,-1
 342 220 l 1,1,-1
 31 220 l 1,2,-1
 31 330 l 1,3,-1
 342 330 l 1,4,-1
 342 220 l 1,0,-1
EndSplineSet
EndChar

StartChar: period
Encoding: 46 46 12
Width: 135
Flags: MW
LayerCount: 2
Fore
SplineSet
120 0 m 5,0,-1
 20 0 l 5,1,-1
 20 97 l 5,2,-1
 120 97 l 5,3,-1
 120 0 l 5,0,-1
EndSplineSet
Validated: 1
EndChar

StartChar: slash
Encoding: 47 47 13
Width: 299
Flags: MW
LayerCount: 2
Fore
SplineSet
305 828 m 1,0,-1
 109 -148 l 1,1,-1
 -1 -148 l 1,2,-1
 202 828 l 1,3,-1
 305 828 l 1,0,-1
EndSplineSet
Validated: 1
EndChar

StartChar: zero
Encoding: 48 48 14
Width: 620
Flags: MW
LayerCount: 2
Fore
SplineSet
438 353 m 0,0,1
 438 403 438 403 430.5 448 c 128,-1,2
 423 493 423 493 407.5 526.5 c 128,-1,3
 392 560 392 560 368.5 580 c 128,-1,4
 345 600 345 600 312 600 c 128,-1,5
 279 600 279 600 255.5 580 c 128,-1,6
 232 560 232 560 216.5 526.5 c 128,-1,7
 201 493 201 493 193.5 448 c 128,-1,8
 186 403 186 403 186 353 c 0,9,10
 186 299 186 299 195 251 c 128,-1,11
 204 203 204 203 220.5 167.5 c 128,-1,12
 237 132 237 132 260 111.5 c 128,-1,13
 283 91 283 91 312 91 c 0,14,15
 340 91 340 91 363.5 111.5 c 128,-1,16
 387 132 387 132 403.5 167.5 c 128,-1,17
 420 203 420 203 429 251 c 128,-1,18
 438 299 438 299 438 353 c 0,0,1
538 353 m 0,19,20
 538 262 538 262 520.5 194 c 128,-1,21
 503 126 503 126 472 81 c 128,-1,22
 441 36 441 36 400 13.5 c 128,-1,23
 359 -9 359 -9 312 -9 c 128,-1,24
 265 -9 265 -9 224 13.5 c 128,-1,25
 183 36 183 36 152 81 c 128,-1,26
 121 126 121 126 103.5 194 c 128,-1,27
 86 262 86 262 86 353 c 0,28,29
 86 433 86 433 103.5 497.5 c 128,-1,30
 121 562 121 562 152 607 c 128,-1,31
 183 652 183 652 224 676 c 128,-1,32
 265 700 265 700 312 700 c 128,-1,33
 359 700 359 700 400 676 c 128,-1,34
 441 652 441 652 472 607 c 128,-1,35
 503 562 503 562 520.5 497.5 c 128,-1,36
 538 433 538 433 538 353 c 0,19,20
EndSplineSet
Validated: 1
EndChar

StartChar: one
Encoding: 49 49 15
Width: 310
Flags: MW
LayerCount: 2
Fore
SplineSet
205 0 m 1,0,-1
 105 0 l 1,1,-1
 105 606 l 1,2,-1
 205 723 l 1,3,-1
 205 0 l 1,0,-1
EndSplineSet
Validated: 1
EndChar

StartChar: two
Encoding: 50 50 16
Width: 620
Flags: MW
LayerCount: 2
Fore
SplineSet
516 -1 m 1,0,-1
 106 -1 l 1,1,-1
 366 420 l 2,2,3
 376 442 376 442 382.5 471 c 128,-1,4
 389 500 389 500 389 526 c 1,5,6
 383 566 383 566 355 590.5 c 128,-1,7
 327 615 327 615 286 615 c 0,8,9
 253 615 253 615 224.5 598.5 c 128,-1,10
 196 582 196 582 173.5 559 c 128,-1,11
 151 536 151 536 135 511 c 128,-1,12
 119 486 119 486 109 469 c 1,13,-1
 109 638 l 1,14,15
 143 673 143 673 189 694 c 128,-1,16
 235 715 235 715 288 715 c 0,17,18
 331 715 331 715 368.5 700 c 128,-1,19
 406 685 406 685 434 659 c 128,-1,20
 462 633 462 633 478 598.5 c 128,-1,21
 494 564 494 564 494 526 c 0,22,23
 495 473 495 473 482 436 c 128,-1,24
 469 399 469 399 447 363 c 2,25,-1
 286 99 l 1,26,-1
 516 99 l 1,27,-1
 516 -1 l 1,0,-1
EndSplineSet
Validated: 33
EndChar

StartChar: three
Encoding: 51 51 17
Width: 620
Flags: MW
LayerCount: 2
Fore
SplineSet
539 209 m 0,0,1
 539 164 539 164 520 124 c 128,-1,2
 501 84 501 84 469 54.5 c 128,-1,3
 437 25 437 25 393.5 7.5 c 128,-1,4
 350 -10 350 -10 301 -10 c 0,5,6
 230 -10 230 -10 173 25.5 c 128,-1,7
 116 61 116 61 85 119 c 1,8,-1
 161 183 l 1,9,10
 178 141 178 141 215.5 115.5 c 128,-1,11
 253 90 253 90 301 90 c 0,12,13
 328 90 328 90 351.5 99.5 c 128,-1,14
 375 109 375 109 392.5 125 c 128,-1,15
 410 141 410 141 420 163 c 128,-1,16
 430 185 430 185 430 209 c 0,17,18
 430 238 430 238 419 263.5 c 128,-1,19
 408 289 408 289 389 307.5 c 128,-1,20
 370 326 370 326 344.5 337 c 128,-1,21
 319 348 319 348 290 348 c 0,22,23
 271 348 271 348 248.5 347 c 128,-1,24
 226 346 226 346 208 344 c 1,25,-1
 357 601 l 1,26,-1
 94 601 l 1,27,-1
 94 700 l 1,28,-1
 529 700 l 1,29,-1
 374 430 l 1,30,31
 410 418 410 418 440.5 396.5 c 128,-1,32
 471 375 471 375 492.5 346 c 128,-1,33
 514 317 514 317 526.5 282 c 128,-1,34
 539 247 539 247 539 209 c 0,0,1
EndSplineSet
Validated: 1
EndChar

StartChar: four
Encoding: 52 52 18
Width: 620
Flags: MW
LayerCount: 2
Fore
SplineSet
618 199 m 1,0,-1
 456 199 l 1,1,-1
 456 0 l 1,2,-1
 356 0 l 1,3,-1
 356 199 l 1,4,-1
 6 199 l 1,5,-1
 455 735 l 1,6,-1
 455 299 l 1,7,-1
 618 299 l 1,8,-1
 618 199 l 1,0,-1
356 299 m 1,9,-1
 356 461 l 1,10,-1
 221 299 l 1,11,-1
 356 299 l 1,9,-1
EndSplineSet
Validated: 1
EndChar

StartChar: five
Encoding: 53 53 19
Width: 620
Flags: MW
LayerCount: 2
Fore
SplineSet
537 700 m 1,0,-1
 469 600 l 1,1,-1
 274 600 l 1,2,-1
 254 443 l 1,3,4
 309 447 309 447 355.5 430.5 c 128,-1,5
 402 414 402 414 436 383.5 c 128,-1,6
 470 353 470 353 489.5 311 c 128,-1,7
 509 269 509 269 509 224 c 0,8,9
 509 176 509 176 490.5 133.5 c 128,-1,10
 472 91 472 91 440 59 c 128,-1,11
 408 27 408 27 365 8.5 c 128,-1,12
 322 -10 322 -10 273 -10 c 0,13,14
 213 -10 213 -10 163.5 17 c 128,-1,15
 114 44 114 44 82 91 c 1,16,-1
 140 174 l 1,17,18
 169 136 169 136 200.5 113 c 128,-1,19
 232 90 232 90 277 90 c 0,20,21
 303 90 303 90 326 99.5 c 128,-1,22
 349 109 349 109 366.5 125.5 c 128,-1,23
 384 142 384 142 394.5 164.5 c 128,-1,24
 405 187 405 187 405 212 c 0,25,26
 405 239 405 239 394 263.5 c 128,-1,27
 383 288 383 288 363.5 306 c 128,-1,28
 344 324 344 324 318 334.5 c 128,-1,29
 292 345 292 345 263 345 c 128,-1,30
 234 345 234 345 206.5 343.5 c 128,-1,31
 179 342 179 342 139 327 c 1,32,-1
 189 700 l 1,33,-1
 537 700 l 1,0,-1
EndSplineSet
Validated: 33
EndChar

StartChar: six
Encoding: 54 54 20
Width: 620
Flags: MW
LayerCount: 2
Fore
SplineSet
426 219 m 0,0,1
 426 243 426 243 417.5 263.5 c 128,-1,2
 409 284 409 284 394.5 300 c 128,-1,3
 380 316 380 316 360.5 325 c 128,-1,4
 341 334 341 334 319 334 c 0,5,6
 281 334 281 334 249.5 322.5 c 128,-1,7
 218 311 218 311 195 290 c 1,8,9
 193 278 193 278 193 266 c 2,10,-1
 193 243 l 2,11,12
 193 213 193 213 203 186.5 c 128,-1,13
 213 160 213 160 230 140.5 c 128,-1,14
 247 121 247 121 270 110 c 128,-1,15
 293 99 293 99 319 99 c 0,16,17
 341 99 341 99 360.5 108.5 c 128,-1,18
 380 118 380 118 394.5 134.5 c 128,-1,19
 409 151 409 151 417.5 172.5 c 128,-1,20
 426 194 426 194 426 219 c 0,0,1
526 217 m 128,-1,22
 526 172 526 172 509 132.5 c 128,-1,23
 492 93 492 93 463.5 63.5 c 128,-1,24
 435 34 435 34 396 16.5 c 128,-1,25
 357 -1 357 -1 314 -1 c 0,26,27
 268 -1 268 -1 228 18.5 c 128,-1,28
 188 38 188 38 158 71 c 128,-1,29
 128 104 128 104 110.5 148.5 c 128,-1,30
 93 193 93 193 93 243 c 0,31,32
 93 310 93 310 111.5 378 c 128,-1,33
 130 446 130 446 163.5 508 c 128,-1,34
 197 570 197 570 244.5 623 c 128,-1,35
 292 676 292 676 350 715 c 1,36,-1
 464 715 l 1,37,38
 389 655 389 655 325.5 578 c 128,-1,39
 262 501 262 501 227 412 c 1,40,41
 249 422 249 422 272.5 427.5 c 128,-1,42
 296 433 296 433 319 433 c 0,43,44
 361 433 361 433 399 416 c 128,-1,45
 437 399 437 399 465 369.5 c 128,-1,46
 493 340 493 340 509.5 301 c 128,-1,21
 526 262 526 262 526 217 c 128,-1,22
EndSplineSet
Validated: 1
EndChar

StartChar: seven
Encoding: 55 55 21
Width: 620
Flags: MW
LayerCount: 2
Fore
SplineSet
546 700 m 1,0,-1
 190 -1 l 1,1,-1
 79 -1 l 1,2,-1
 386 600 l 1,3,-1
 83 600 l 1,4,-1
 83 700 l 1,5,-1
 546 700 l 1,0,-1
EndSplineSet
Validated: 1
EndChar

StartChar: eight
Encoding: 56 56 22
Width: 620
Flags: MW
LayerCount: 2
Fore
SplineSet
424 202 m 128,-1,1
 424 226 424 226 415 244.5 c 128,-1,2
 406 263 406 263 390 278 c 128,-1,3
 374 293 374 293 353.5 306 c 128,-1,4
 333 319 333 319 311 331 c 1,5,6
 288 319 288 319 267.5 306.5 c 128,-1,7
 247 294 247 294 231 278.5 c 128,-1,8
 215 263 215 263 206 244 c 128,-1,9
 197 225 197 225 197 201 c 0,10,11
 197 178 197 178 206 158 c 128,-1,12
 215 138 215 138 230.5 123 c 128,-1,13
 246 108 246 108 267 99.5 c 128,-1,14
 288 91 288 91 311 91 c 128,-1,15
 334 91 334 91 354.5 99.5 c 128,-1,16
 375 108 375 108 390.5 123 c 128,-1,17
 406 138 406 138 415 158 c 128,-1,0
 424 178 424 178 424 202 c 128,-1,1
524 201 m 0,18,19
 524 158 524 158 507 119.5 c 128,-1,20
 490 81 490 81 461 52.5 c 128,-1,21
 432 24 432 24 393.5 7.5 c 128,-1,22
 355 -9 355 -9 311 -9 c 128,-1,23
 267 -9 267 -9 228.5 7.5 c 128,-1,24
 190 24 190 24 161 52.5 c 128,-1,25
 132 81 132 81 115 119.5 c 128,-1,26
 98 158 98 158 98 201 c 0,27,28
 98 234 98 234 107.5 261.5 c 128,-1,29
 117 289 117 289 133.5 312.5 c 128,-1,30
 150 336 150 336 172 355 c 128,-1,31
 194 374 194 374 218 391 c 1,32,33
 181 418 181 418 156.5 454.5 c 128,-1,34
 132 491 132 491 132 548 c 0,35,36
 132 585 132 585 146 618 c 128,-1,37
 160 651 160 651 184.5 675.5 c 128,-1,38
 209 700 209 700 241.5 714.5 c 128,-1,39
 274 729 274 729 311 729 c 128,-1,40
 348 729 348 729 380.5 714.5 c 128,-1,41
 413 700 413 700 437.5 675.5 c 128,-1,42
 462 651 462 651 476 618 c 128,-1,43
 490 585 490 585 490 548 c 0,44,45
 490 491 490 491 464.5 454 c 128,-1,46
 439 417 439 417 402 390 c 1,47,48
 426 373 426 373 448 354.5 c 128,-1,49
 470 336 470 336 487 313 c 128,-1,50
 504 290 504 290 514 262.5 c 128,-1,51
 524 235 524 235 524 201 c 0,18,19
390 548 m 0,52,53
 390 581 390 581 367 605 c 128,-1,54
 344 629 344 629 311 629 c 128,-1,55
 278 629 278 629 255 605 c 128,-1,56
 232 581 232 581 232 548 c 0,57,58
 232 519 232 519 254 496 c 128,-1,59
 276 473 276 473 310 450 c 1,60,61
 344 472 344 472 367 495 c 128,-1,62
 390 518 390 518 390 548 c 0,52,53
EndSplineSet
Validated: 1
EndChar

StartChar: nine
Encoding: 57 57 23
Width: 620
Flags: MW
LayerCount: 2
Fore
SplineSet
443 450 m 0,0,1
 443 482 443 482 432.5 509.5 c 128,-1,2
 422 537 422 537 403 557.5 c 128,-1,3
 384 578 384 578 359 589.5 c 128,-1,4
 334 601 334 601 305 601 c 0,5,6
 280 601 280 601 257 591 c 128,-1,7
 234 581 234 581 217 563 c 128,-1,8
 200 545 200 545 189.5 521 c 128,-1,9
 179 497 179 497 179 470 c 0,10,11
 179 447 179 447 189 426 c 128,-1,12
 199 405 199 405 216.5 389 c 128,-1,13
 234 373 234 373 258 363.5 c 128,-1,14
 282 354 282 354 311 354 c 0,15,16
 349 354 349 354 381.5 367.5 c 128,-1,17
 414 381 414 381 438 405 c 1,18,19
 442 416 442 416 442.5 427.5 c 128,-1,20
 443 439 443 439 443 450 c 0,0,1
542 451 m 0,21,22
 542 380 542 380 521 315 c 128,-1,23
 500 250 500 250 463 191.5 c 128,-1,24
 426 133 426 133 377 80.5 c 128,-1,25
 328 28 328 28 272 -17 c 1,26,-1
 144 -17 l 1,27,28
 177 7 177 7 213.5 40 c 128,-1,29
 250 73 250 73 284.5 112 c 128,-1,30
 319 151 319 151 348.5 193.5 c 128,-1,31
 378 236 378 236 396 279 c 1,32,33
 372 267 372 267 346.5 259.5 c 128,-1,34
 321 252 321 252 295 252 c 0,35,36
 251 252 251 252 211.5 270 c 128,-1,37
 172 288 172 288 142.5 319.5 c 128,-1,38
 113 351 113 351 96 393 c 128,-1,39
 79 435 79 435 79 483 c 0,40,41
 79 528 79 528 97 567.5 c 128,-1,42
 115 607 115 607 146 636.5 c 128,-1,43
 177 666 177 666 218.5 683.5 c 128,-1,44
 260 701 260 701 307 701 c 0,45,46
 355 701 355 701 398 681.5 c 128,-1,47
 441 662 441 662 473 628 c 128,-1,48
 505 594 505 594 523.5 548.5 c 128,-1,49
 542 503 542 503 542 451 c 0,21,22
EndSplineSet
Validated: 1
EndChar

StartChar: colon
Encoding: 58 58 24
Width: 262
Flags: MW
LayerCount: 2
Fore
SplineSet
178 2 m 1,0,-1
 78 2 l 1,1,-1
 78 100 l 1,2,-1
 178 100 l 1,3,-1
 178 2 l 1,0,-1
178 342 m 1,4,-1
 78 342 l 1,5,-1
 78 440 l 1,6,-1
 178 440 l 1,7,-1
 178 342 l 1,4,-1
EndSplineSet
Validated: 1
EndChar

StartChar: semicolon
Encoding: 59 59 25
Width: 319
Flags: MW
LayerCount: 2
Fore
SplineSet
235 -8 m 2,0,1
 235 -37 235 -37 223 -61.5 c 128,-1,2
 211 -86 211 -86 189.5 -104 c 128,-1,3
 168 -122 168 -122 139.5 -132.5 c 128,-1,4
 111 -143 111 -143 78 -143 c 1,5,-1
 78 -132 l 1,6,7
 90 -128 90 -128 100 -120 c 128,-1,8
 110 -112 110 -112 118 -98 c 128,-1,9
 126 -84 126 -84 130.5 -62.5 c 128,-1,10
 135 -41 135 -41 135 -8 c 2,11,-1
 135 100 l 1,12,-1
 235 100 l 1,13,-1
 235 -8 l 2,0,1
235 342 m 1,14,-1
 135 342 l 1,15,-1
 135 440 l 1,16,-1
 235 440 l 1,17,-1
 235 342 l 1,14,-1
EndSplineSet
Validated: 1
EndChar

StartChar: less
Encoding: 60 60 26
Width: 336
Flags: MW
LayerCount: 2
Fore
SplineSet
206.4 297 m 1,0,-1
 206.4 297 l 1,1,-1
 302.7 159 l 1,2,-1
 30.7002 345 l 1,3,-1
 300.7 534 l 1,4,-1
 206.4 397 l 1,5,-1
 206.4 297 l 1,0,-1
EndSplineSet
EndChar

StartChar: greater
Encoding: 62 62 27
Width: 336
Flags: HMW
LayerCount: 2
Fore
SplineSet
127 297 m 1,0,-1
 127 397 l 1,1,-1
 32.7002 534 l 1,2,-1
 302.7 345 l 1,3,-1
 30.7002 159 l 1,4,-1
 127 297 l 1,5,-1
 127 297 l 1,0,-1
EndSplineSet
EndChar

StartChar: question
Encoding: 63 63 28
Width: 450
Flags: MW
LayerCount: 2
Fore
SplineSet
286 59 m 1,0,-1
 216 -11 l 1,1,-1
 146 59 l 1,2,-1
 216 130 l 1,3,-1
 286 59 l 1,0,-1
420 540 m 0,4,5
 422 498 422 498 410 468 c 128,-1,6
 398 438 398 438 379 416.5 c 128,-1,7
 360 395 360 395 337 379.5 c 2,8,-1
 294 350.5 l 2,9,10
 274 337 274 337 260 323 c 128,-1,11
 246 309 246 309 245 290 c 0,12,13
 245 276 245 276 249 266 c 128,-1,14
 253 256 253 256 260 248 c 128,-1,15
 267 240 267 240 274.5 233 c 2,16,-1
 290 218 l 1,17,-1
 217 149 l 1,18,19
 206 163 206 163 193.5 175.5 c 128,-1,20
 181 188 181 188 169 203 c 128,-1,21
 157 218 157 218 148.5 237 c 128,-1,22
 140 256 140 256 139 283 c 0,23,24
 138 311 138 311 152 334.5 c 128,-1,25
 166 358 166 358 186.5 378.5 c 128,-1,26
 207 399 207 399 231 417.5 c 128,-1,27
 255 436 255 436 275.5 454.5 c 128,-1,28
 296 473 296 473 309 492 c 128,-1,29
 322 511 322 511 320 534 c 0,30,31
 320 568 320 568 293 591.5 c 128,-1,32
 266 615 266 615 225 615 c 0,33,34
 188 615 188 615 157.5 596 c 128,-1,35
 127 577 127 577 115 531 c 1,36,-1
 31 584 l 1,37,38
 38 606 38 606 54 629 c 128,-1,39
 70 652 70 652 95.5 671 c 128,-1,40
 121 690 121 690 155.5 702.5 c 128,-1,41
 190 715 190 715 232 715 c 0,42,43
 272 715 272 715 306 702 c 128,-1,44
 340 689 340 689 364.5 666 c 128,-1,45
 389 643 389 643 403.5 611 c 128,-1,46
 418 579 418 579 420 540 c 0,4,5
EndSplineSet
Validated: 33
EndChar

StartChar: A
Encoding: 65 65 29
Width: 675
Flags: MW
LayerCount: 2
Fore
SplineSet
665 -1 m 1,0,-1
 555 -1 l 1,1,-1
 487 171 l 1,2,-1
 190 171 l 1,3,-1
 122 -1 l 1,4,-1
 12 -1 l 1,5,-1
 304 700 l 1,6,-1
 373 700 l 1,7,-1
 665 -1 l 1,0,-1
443 270 m 5,8,-1
 339 524 l 5,9,-1
 234 270 l 5,10,-1
 443 270 l 5,8,-1
EndSplineSet
Validated: 1
EndChar

StartChar: B
Encoding: 66 66 30
Width: 535
Flags: MW
LayerCount: 2
Fore
SplineSet
403 206 m 0,0,1
 403 232 403 232 392.5 255 c 128,-1,2
 382 278 382 278 364 295 c 128,-1,3
 346 312 346 312 322 322 c 128,-1,4
 298 332 298 332 271 332 c 2,5,-1
 202 332 l 1,6,-1
 149 332 l 1,7,-1
 149 100 l 1,8,-1
 273 100 l 2,9,10
 300 100 300 100 323.5 108.5 c 128,-1,11
 347 117 347 117 364.5 131.5 c 128,-1,12
 382 146 382 146 392.5 165.5 c 128,-1,13
 403 185 403 185 403 206 c 0,0,1
330 518 m 0,14,15
 330 535 330 535 322 550 c 128,-1,16
 314 565 314 565 300 576 c 128,-1,17
 286 587 286 587 267.5 593.5 c 128,-1,18
 249 600 249 600 229 600 c 2,19,-1
 149 600 l 1,20,-1
 149 432 l 1,21,-1
 232 432 l 2,22,23
 252 432 252 432 269.5 439 c 128,-1,24
 287 446 287 446 300.5 457.5 c 128,-1,25
 314 469 314 469 322 484.5 c 128,-1,26
 330 500 330 500 330 518 c 0,14,15
511 207 m 0,27,28
 511 165 511 165 492 127 c 128,-1,29
 473 89 473 89 440.5 61 c 128,-1,30
 408 33 408 33 364.5 16.5 c 128,-1,31
 321 0 321 0 272 0 c 2,32,-1
 49 0 l 1,33,-1
 49 700 l 1,34,-1
 229 700 l 2,35,36
 271 700 271 700 308.5 686 c 128,-1,37
 346 672 346 672 374 647 c 128,-1,38
 402 622 402 622 418 589 c 128,-1,39
 434 556 434 556 434 518 c 0,40,41
 434 486 434 486 421 457 c 128,-1,42
 408 428 408 428 385 405 c 1,43,44
 441 376 441 376 476 323.5 c 128,-1,45
 511 271 511 271 511 207 c 0,27,28
EndSplineSet
Validated: 1
EndChar

StartChar: C
Encoding: 67 67 31
Width: 673
Flags: MW
LayerCount: 2
Fore
SplineSet
648 512 m 1,0,1
 605 558 605 558 539.5 586.5 c 128,-1,2
 474 615 474 615 399 615 c 0,3,4
 344 615 344 615 295 595 c 128,-1,5
 246 575 246 575 209.5 541 c 128,-1,6
 173 507 173 507 152 461.5 c 128,-1,7
 131 416 131 416 131 365 c 0,8,9
 131 307 131 307 152.5 256 c 128,-1,10
 174 205 174 205 210.5 167 c 128,-1,11
 247 129 247 129 296 107 c 128,-1,12
 345 85 345 85 401 85 c 0,13,14
 476 85 476 85 540 115.5 c 128,-1,15
 604 146 604 146 646 198 c 1,16,-1
 646 63 l 1,17,18
 593 26 593 26 529.5 5.5 c 128,-1,19
 466 -15 466 -15 396 -15 c 0,20,21
 321 -15 321 -15 254.5 15 c 128,-1,22
 188 45 188 45 138.5 96.5 c 128,-1,23
 89 148 89 148 60 217.5 c 128,-1,24
 31 287 31 287 31 365 c 0,25,26
 31 437 31 437 60 500.5 c 128,-1,27
 89 564 89 564 138.5 611.5 c 128,-1,28
 188 659 188 659 254.5 687 c 128,-1,29
 321 715 321 715 396 715 c 0,30,31
 467 715 467 715 530.5 696 c 128,-1,32
 594 677 594 677 648 643 c 1,33,-1
 648 512 l 1,0,1
EndSplineSet
Validated: 1
EndChar

StartChar: D
Encoding: 68 68 32
Width: 685
Flags: MW
LayerCount: 2
Fore
SplineSet
556 362 m 0,0,1
 556 411 556 411 535 454 c 128,-1,2
 514 497 514 497 478.5 529.5 c 128,-1,3
 443 562 443 562 395.5 581 c 128,-1,4
 348 600 348 600 296 600 c 2,5,-1
 151 600 l 1,6,-1
 151 100 l 1,7,-1
 296 100 l 2,8,9
 349 100 349 100 396 121 c 128,-1,10
 443 142 443 142 478.5 177.5 c 128,-1,11
 514 213 514 213 535 260.5 c 128,-1,12
 556 308 556 308 556 362 c 0,0,1
656 365 m 0,13,14
 656 290 656 290 627.5 223.5 c 128,-1,15
 599 157 599 157 550 107.5 c 128,-1,16
 501 58 501 58 435.5 29 c 128,-1,17
 370 0 370 0 296 0 c 2,18,-1
 51 0 l 1,19,-1
 51 700 l 1,20,-1
 294 700 l 2,21,22
 368 700 368 700 434 673.5 c 128,-1,23
 500 647 500 647 549.5 601 c 128,-1,24
 599 555 599 555 627.5 494.5 c 128,-1,25
 656 434 656 434 656 365 c 0,13,14
EndSplineSet
Validated: 1
EndChar

StartChar: E
Encoding: 69 69 33
Width: 515
Flags: MW
LayerCount: 2
Fore
SplineSet
491 0 m 1,0,-1
 51 0 l 1,1,-1
 51 700 l 1,2,-1
 471 700 l 1,3,-1
 471 600 l 1,4,-1
 151 600 l 1,5,-1
 151 425 l 1,6,-1
 394 425 l 1,7,-1
 394 325 l 1,8,-1
 151 325 l 1,9,-1
 151 102 l 1,10,-1
 491 102 l 1,11,-1
 491 0 l 1,0,-1
EndSplineSet
Validated: 1
EndChar

StartChar: F
Encoding: 70 70 34
Width: 495
Flags: MW
LayerCount: 2
Fore
SplineSet
471 600 m 1,0,-1
 151 600 l 1,1,-1
 151 425 l 1,2,-1
 394 425 l 1,3,-1
 394 325 l 1,4,-1
 151 325 l 1,5,-1
 151 2 l 1,6,-1
 51 2 l 1,7,-1
 51 700 l 1,8,-1
 471 700 l 1,9,-1
 471 600 l 1,0,-1
EndSplineSet
Validated: 1
EndChar

StartChar: G
Encoding: 71 71 35
Width: 720
Flags: MW
LayerCount: 2
Fore
SplineSet
679 63 m 1,0,1
 619 26 619 26 547.5 5.5 c 128,-1,2
 476 -15 476 -15 397 -15 c 0,3,4
 322 -15 322 -15 255.5 15 c 128,-1,5
 189 45 189 45 139.5 96.5 c 128,-1,6
 90 148 90 148 61 217.5 c 128,-1,7
 32 287 32 287 32 365 c 0,8,9
 32 437 32 437 61 500.5 c 128,-1,10
 90 564 90 564 139.5 611.5 c 128,-1,11
 189 659 189 659 255.5 687 c 128,-1,12
 322 715 322 715 397 715 c 128,-1,13
 472 715 472 715 540.5 696 c 128,-1,14
 609 677 609 677 667 643 c 1,15,-1
 667 523 l 1,16,17
 620 564 620 564 550.5 589.5 c 128,-1,18
 481 615 481 615 400 615 c 0,19,20
 345 615 345 615 296 595 c 128,-1,21
 247 575 247 575 210.5 541 c 128,-1,22
 174 507 174 507 153 461.5 c 128,-1,23
 132 416 132 416 132 365 c 0,24,25
 132 307 132 307 153.5 256 c 128,-1,26
 175 205 175 205 211.5 167 c 128,-1,27
 248 129 248 129 297 107 c 128,-1,28
 346 85 346 85 402 85 c 0,29,30
 499 85 499 85 579 122 c 1,31,-1
 579 293 l 1,32,-1
 455 293 l 1,33,-1
 455 393 l 1,34,-1
 679 393 l 1,35,-1
 679 63 l 1,0,1
EndSplineSet
Validated: 1
EndChar

StartChar: H
Encoding: 72 72 36
Width: 658
Flags: MW
LayerCount: 2
Fore
SplineSet
607 0 m 1,0,-1
 507 0 l 1,1,-1
 507 311 l 1,2,-1
 150 311 l 1,3,-1
 150 0 l 1,4,-1
 50 0 l 1,5,-1
 50 700 l 1,6,-1
 150 700 l 1,7,-1
 150 411 l 1,8,-1
 507 411 l 1,9,-1
 507 700 l 1,10,-1
 607 700 l 1,11,-1
 607 0 l 1,0,-1
EndSplineSet
Validated: 1
EndChar

StartChar: I
Encoding: 73 73 37
Width: 200
Flags: MW
LayerCount: 2
Fore
SplineSet
150 0 m 1,0,-1
 50 0 l 1,1,-1
 50 700 l 1,2,-1
 150 700 l 1,3,-1
 150 0 l 1,0,-1
EndSplineSet
Validated: 1
EndChar

StartChar: J
Encoding: 74 74 38
Width: 428
Flags: MW
LayerCount: 2
Fore
SplineSet
387 192 m 2,0,1
 387 150 387 150 372.5 112 c 128,-1,2
 358 74 358 74 332.5 46 c 128,-1,3
 307 18 307 18 273.5 1.5 c 128,-1,4
 240 -15 240 -15 201 -15 c 0,5,6
 167 -15 167 -15 137 -5 c 128,-1,7
 107 5 107 5 82.5 22.5 c 128,-1,8
 58 40 58 40 40.5 64 c 128,-1,9
 23 88 23 88 14 117 c 1,10,-1
 114 166 l 1,11,12
 114 133 114 133 138 109 c 128,-1,13
 162 85 162 85 196 85 c 0,14,15
 214 85 214 85 230.5 93.5 c 128,-1,16
 247 102 247 102 259 116.5 c 128,-1,17
 271 131 271 131 278 150 c 128,-1,18
 285 169 285 169 285 190 c 2,19,-1
 285 700 l 1,20,-1
 387 700 l 1,21,-1
 387 192 l 2,0,1
EndSplineSet
Validated: 1
EndChar

StartChar: K
Encoding: 75 75 39
Width: 610
Flags: MW
LayerCount: 2
Fore
SplineSet
599 0 m 1,0,-1
 465 0 l 1,1,-1
 149 336 l 1,2,-1
 149 0 l 1,3,-1
 51 0 l 1,4,-1
 51 700 l 1,5,-1
 151 700 l 1,6,-1
 151 427 l 1,7,-1
 441 682 l 1,8,-1
 575 682 l 1,9,-1
 239 386 l 1,10,-1
 599 0 l 1,0,-1
EndSplineSet
Validated: 1
EndChar

StartChar: L
Encoding: 76 76 40
Width: 480
Flags: MW
LayerCount: 2
Fore
SplineSet
469 1 m 1,0,-1
 51 1 l 1,1,-1
 51 701 l 1,2,-1
 151 701 l 1,3,-1
 151 101 l 1,4,-1
 469 101 l 1,5,-1
 469 1 l 1,0,-1
EndSplineSet
Validated: 1
EndChar

StartChar: M
Encoding: 77 77 41
Width: 790
Flags: MW
LayerCount: 2
Fore
SplineSet
741 0 m 1,0,-1
 643 0 l 1,1,-1
 643 544 l 1,2,-1
 396 242 l 1,3,-1
 149 544 l 1,4,-1
 149 0 l 1,5,-1
 51 0 l 1,6,-1
 51 699 l 1,7,-1
 151 699 l 1,8,-1
 396 400 l 1,9,-1
 641 699 l 1,10,-1
 741 699 l 1,11,-1
 741 0 l 1,0,-1
EndSplineSet
Validated: 1
EndChar

StartChar: N
Encoding: 78 78 42
Width: 743
Flags: MW
LayerCount: 2
Fore
SplineSet
683 0 m 1,0,-1
 583 0 l 1,1,-1
 148 543 l 1,2,-1
 148 0 l 1,3,-1
 51 0 l 1,4,-1
 51 700 l 1,5,-1
 151 700 l 1,6,-1
 585 159 l 1,7,-1
 585 700 l 1,8,-1
 683 700 l 1,9,-1
 683 0 l 1,0,-1
EndSplineSet
Validated: 1
EndChar

StartChar: O
Encoding: 79 79 43
Width: 790
Flags: MW
LayerCount: 2
Fore
SplineSet
661 362 m 0,0,1
 661 414 661 414 640 460 c 128,-1,2
 619 506 619 506 583 540.5 c 128,-1,3
 547 575 547 575 499.5 595 c 128,-1,4
 452 615 452 615 399 615 c 0,5,6
 344 615 344 615 295 595 c 128,-1,7
 246 575 246 575 209.5 541 c 128,-1,8
 173 507 173 507 152 461.5 c 128,-1,9
 131 416 131 416 131 365 c 0,10,11
 131 307 131 307 152.5 256 c 128,-1,12
 174 205 174 205 210.5 167 c 128,-1,13
 247 129 247 129 296 107 c 128,-1,14
 345 85 345 85 401 85 c 0,15,16
 454 85 454 85 501 107 c 128,-1,17
 548 129 548 129 583.5 167 c 128,-1,18
 619 205 619 205 640 255 c 128,-1,19
 661 305 661 305 661 362 c 0,0,1
761 365 m 0,20,21
 761 287 761 287 732 217.5 c 128,-1,22
 703 148 703 148 653.5 96.5 c 128,-1,23
 604 45 604 45 537.5 15 c 128,-1,24
 471 -15 471 -15 396 -15 c 128,-1,25
 321 -15 321 -15 254.5 15 c 128,-1,26
 188 45 188 45 138.5 96.5 c 128,-1,27
 89 148 89 148 60 217.5 c 128,-1,28
 31 287 31 287 31 365 c 0,29,30
 31 437 31 437 60 500.5 c 128,-1,31
 89 564 89 564 138.5 611.5 c 128,-1,32
 188 659 188 659 254.5 687 c 128,-1,33
 321 715 321 715 396 715 c 128,-1,34
 471 715 471 715 537.5 687 c 128,-1,35
 604 659 604 659 653.5 611.5 c 128,-1,36
 703 564 703 564 732 500.5 c 128,-1,37
 761 437 761 437 761 365 c 0,20,21
EndSplineSet
Validated: 1
EndChar

StartChar: P
Encoding: 80 80 44
Width: 500
Flags: MW
LayerCount: 2
Fore
SplineSet
370 489 m 0,0,1
 370 511 370 511 359 531.5 c 128,-1,2
 348 552 348 552 329 567 c 128,-1,3
 310 582 310 582 284.5 591 c 128,-1,4
 259 600 259 600 230 600 c 2,5,-1
 151 600 l 1,6,-1
 151 378 l 1,7,-1
 230 378 l 2,8,9
 268 378 268 378 294.5 387 c 128,-1,10
 321 396 321 396 338 411 c 128,-1,11
 355 426 355 426 362.5 446 c 128,-1,12
 370 466 370 466 370 489 c 0,0,1
470 489 m 0,13,14
 470 445 470 445 451 407 c 128,-1,15
 432 369 432 369 399.5 340 c 128,-1,16
 367 311 367 311 323 294.5 c 128,-1,17
 279 278 279 278 230 278 c 2,18,-1
 151 278 l 1,19,-1
 151 1 l 1,20,-1
 51 1 l 1,21,-1
 51 700 l 1,22,-1
 229 700 l 2,23,24
 278 700 278 700 322 683 c 128,-1,25
 366 666 366 666 399 637.5 c 128,-1,26
 432 609 432 609 451 570.5 c 128,-1,27
 470 532 470 532 470 489 c 0,13,14
EndSplineSet
Validated: 1
EndChar

StartChar: Q
Encoding: 81 81 45
Width: 790
Flags: MW
LayerCount: 2
Fore
SplineSet
661 362 m 0,0,1
 661 414 661 414 640 460 c 128,-1,2
 619 506 619 506 583 540.5 c 128,-1,3
 547 575 547 575 499.5 595 c 128,-1,4
 452 615 452 615 399 615 c 0,5,6
 344 615 344 615 295 595 c 128,-1,7
 246 575 246 575 209.5 541 c 128,-1,8
 173 507 173 507 152 461.5 c 128,-1,9
 131 416 131 416 131 365 c 0,10,11
 131 307 131 307 152.5 256 c 128,-1,12
 174 205 174 205 210.5 167 c 128,-1,13
 247 129 247 129 296 107 c 128,-1,14
 345 85 345 85 401 85 c 0,15,16
 476 85 476 85 539 128 c 1,17,-1
 477 182 l 1,18,-1
 542 256 l 1,19,-1
 609 198 l 1,20,21
 633 233 633 233 647 274.5 c 128,-1,22
 661 316 661 316 661 362 c 0,0,1
768 59 m 1,23,-1
 702 -15 l 1,24,-1
 615 62 l 1,25,26
 569 25 569 25 513 5 c 128,-1,27
 457 -15 457 -15 396 -15 c 0,28,29
 321 -15 321 -15 254.5 15 c 128,-1,30
 188 45 188 45 138.5 96.5 c 128,-1,31
 89 148 89 148 60 217.5 c 128,-1,32
 31 287 31 287 31 365 c 0,33,34
 31 437 31 437 60 500.5 c 128,-1,35
 89 564 89 564 138.5 611.5 c 128,-1,36
 188 659 188 659 254.5 687 c 128,-1,37
 321 715 321 715 396 715 c 128,-1,38
 471 715 471 715 537.5 687 c 128,-1,39
 604 659 604 659 653.5 611.5 c 128,-1,40
 703 564 703 564 732 500.5 c 128,-1,41
 761 437 761 437 761 365 c 0,42,43
 761 299 761 299 740.5 240 c 128,-1,44
 720 181 720 181 684 133 c 1,45,-1
 768 59 l 1,23,-1
EndSplineSet
Validated: 1
EndChar

StartChar: R
Encoding: 82 82 46
Width: 580
Flags: MW
LayerCount: 2
Fore
SplineSet
344 501 m 0,0,1
 344 521 344 521 334.5 539 c 128,-1,2
 325 557 325 557 309 570.5 c 128,-1,3
 293 584 293 584 271.5 592 c 128,-1,4
 250 600 250 600 227 600 c 2,5,-1
 151 600 l 1,6,-1
 151 399 l 1,7,-1
 258 399 l 2,8,9
 275 399 275 399 290.5 407 c 128,-1,10
 306 415 306 415 318 429 c 128,-1,11
 330 443 330 443 337 461.5 c 128,-1,12
 344 480 344 480 344 501 c 0,0,1
568 3 m 1,13,-1
 446 3 l 1,14,-1
 243 295 l 1,15,-1
 151 295 l 1,16,-1
 151 0 l 1,17,-1
 51 0 l 1,18,-1
 51 700 l 1,19,-1
 239 700 l 2,20,21
 281 700 281 700 319 684 c 128,-1,22
 357 668 357 668 385.5 641 c 128,-1,23
 414 614 414 614 431 577.5 c 128,-1,24
 448 541 448 541 448 501 c 0,25,26
 448 444 448 444 421 398 c 128,-1,27
 394 352 394 352 349 322 c 1,28,-1
 568 3 l 1,13,-1
EndSplineSet
Validated: 1
EndChar

StartChar: S
Encoding: 83 83 47
Width: 433
Flags: MW
LayerCount: 2
Fore
SplineSet
431 211 m 0,0,1
 431 167 431 167 414 129 c 128,-1,2
 397 91 397 91 368 62 c 128,-1,3
 339 33 339 33 300 16.5 c 128,-1,4
 261 0 261 0 217 0 c 0,5,6
 142 3.8147e-06 142 3.8147e-06 84.5 39 c 128,-1,7
 27 78 27 78 3 141 c 1,8,-1
 91 195 l 1,9,10
 99 154 99 154 134 127 c 128,-1,11
 169 100 169 100 217 100 c 0,12,13
 240 100 240 100 261 109 c 128,-1,14
 282 118 282 118 297.5 133 c 128,-1,15
 313 148 313 148 322 168 c 128,-1,16
 331 188 331 188 331 211 c 0,17,18
 331 250 331 250 308 272.5 c 128,-1,19
 285 295 285 295 251 311.5 c 128,-1,20
 217 328 217 328 177 342 c 128,-1,21
 137 356 137 356 103.5 378 c 128,-1,22
 70 400 70 400 48 434 c 128,-1,23
 26 468 26 468 27 524 c 0,24,25
 27 560 27 560 39.5 592 c 128,-1,26
 52 624 52 624 75.5 648 c 128,-1,27
 99 672 99 672 131.5 686 c 128,-1,28
 164 700 164 700 204 700 c 0,29,30
 263 700 263 700 309.5 670.5 c 128,-1,31
 356 641 356 641 379 595 c 1,32,-1
 289 531 l 1,33,34
 287 545 287 545 280 557.5 c 128,-1,35
 273 570 273 570 261.5 579.5 c 128,-1,36
 250 589 250 589 235 594.5 c 128,-1,37
 220 600 220 600 204 600 c 0,38,39
 173 600 173 600 150 577.5 c 128,-1,40
 127 555 127 555 127 524 c 0,41,42
 127 492 127 492 149.5 474 c 128,-1,43
 172 456 172 456 206 442 c 128,-1,44
 240 428 240 428 279 413.5 c 128,-1,45
 318 399 318 399 352 374.5 c 128,-1,46
 386 350 386 350 408.5 311.5 c 128,-1,47
 431 273 431 273 431 211 c 0,0,1
EndSplineSet
Validated: 33
EndChar

StartChar: T
Encoding: 84 84 48
Width: 558
Flags: MW
LayerCount: 2
Fore
SplineSet
547 600 m 1,0,-1
 329 600 l 1,1,-1
 329 0 l 1,2,-1
 229 0 l 1,3,-1
 229 600 l 1,4,-1
 11 600 l 1,5,-1
 11 700 l 1,6,-1
 547 700 l 1,7,-1
 547 600 l 1,0,-1
EndSplineSet
Validated: 1
EndChar

StartChar: U
Encoding: 85 85 49
Width: 688
Flags: MW
LayerCount: 2
Fore
SplineSet
647 282 m 2,0,1
 647 221 647 221 623.5 167 c 128,-1,2
 600 113 600 113 558.5 72.5 c 128,-1,3
 517 32 517 32 462 8.5 c 128,-1,4
 407 -15 407 -15 344 -15 c 128,-1,5
 281 -15 281 -15 226 8.5 c 128,-1,6
 171 32 171 32 129.5 72.5 c 128,-1,7
 88 113 88 113 64.5 167 c 128,-1,8
 41 221 41 221 41 282 c 2,9,-1
 41 700 l 1,10,-1
 141 700 l 1,11,-1
 141 283 l 2,12,13
 141 242 141 242 157 206 c 128,-1,14
 173 170 173 170 200.5 143 c 128,-1,15
 228 116 228 116 265 100.5 c 128,-1,16
 302 85 302 85 344 85 c 128,-1,17
 386 85 386 85 423 100.5 c 128,-1,18
 460 116 460 116 487.5 143 c 128,-1,19
 515 170 515 170 531 206 c 128,-1,20
 547 242 547 242 547 283 c 2,21,-1
 547 700 l 1,22,-1
 647 700 l 1,23,-1
 647 282 l 2,0,1
EndSplineSet
Validated: 1
EndChar

StartChar: V
Encoding: 86 86 50
Width: 673
Flags: MW
LayerCount: 2
Fore
SplineSet
657 700 m 1,0,-1
 374 1 l 1,1,-1
 295 1 l 1,2,-1
 12 700 l 1,3,-1
 119 700 l 1,4,-1
 335 168 l 1,5,-1
 550 700 l 1,6,-1
 657 700 l 1,0,-1
EndSplineSet
Validated: 1
EndChar

StartChar: W
Encoding: 87 87 51
Width: 995
Flags: MW
LayerCount: 2
Fore
SplineSet
985 698 m 1,0,-1
 754 1 l 1,1,-1
 654 1 l 1,2,-1
 499 508 l 1,3,-1
 344 1 l 1,4,-1
 244 1 l 1,5,-1
 13 698 l 1,6,-1
 119 698 l 1,7,-1
 294 171 l 1,8,-1
 447 678 l 1,9,-1
 551 678 l 1,10,-1
 704 171 l 1,11,-1
 879 698 l 1,12,-1
 985 698 l 1,0,-1
EndSplineSet
Validated: 1
EndChar

StartChar: X
Encoding: 88 88 52
Width: 715
Flags: MW
LayerCount: 2
Fore
SplineSet
705 0 m 1,0,-1
 576 0 l 1,1,-1
 358 287 l 1,2,-1
 139 0 l 1,3,-1
 12 0 l 1,4,-1
 294 371 l 1,5,-1
 44 700 l 1,6,-1
 170 700 l 1,7,-1
 357 454 l 1,8,-1
 545 700 l 1,9,-1
 671 700 l 1,10,-1
 421 370 l 1,11,-1
 705 0 l 1,0,-1
EndSplineSet
Validated: 1
EndChar

StartChar: Y
Encoding: 89 89 53
Width: 573
Flags: MW
LayerCount: 2
Fore
SplineSet
563 700 m 1,0,-1
 339 349 l 1,1,-1
 339 0 l 1,2,-1
 239 0 l 1,3,-1
 239 349 l 1,4,-1
 15 700 l 1,5,-1
 133 700 l 1,6,-1
 289 456 l 1,7,-1
 445 700 l 1,8,-1
 563 700 l 1,0,-1
EndSplineSet
Validated: 1
EndChar

StartChar: Z
Encoding: 90 90 54
Width: 670
Flags: MW
LayerCount: 2
Fore
SplineSet
655 700 m 1,0,-1
 227 101 l 1,1,-1
 645 101 l 1,2,-1
 645 0 l 1,3,-1
 33 1 l 1,4,-1
 462 600 l 1,5,-1
 53 600 l 1,6,-1
 53 700 l 1,7,-1
 655 700 l 1,0,-1
EndSplineSet
Validated: 1
EndChar

StartChar: a
Encoding: 97 97 55
AltUni2: 0000aa.ffffffff.0
Width: 458
Flags: MW
LayerCount: 2
Fore
SplineSet
317 106 m 5,0,1
 317 200 l 5,2,3
 279 200 279 200 245 197 c 132,-1,4
 211 194 211 194 186 186.5 c 132,-1,5
 161 179 161 179 146.5 165 c 132,-1,6
 132 151 132 151 132 129 c 4,7,8
 132 97 132 97 159.5 88 c 132,-1,9
 187 79 187 79 226 79 c 4,10,11
 248 79 248 79 272.5 86.5 c 132,-1,12
 297 94 297 94 317 106 c 5,0,1
417 0 m 1,13,-1
 317 0 l 1,14,-1
 317 25 l 1,15,16
 291 8 291 8 258.5 -1 c 128,-1,17
 226 -10 226 -10 199 -10 c 0,18,19
 165 -10 165 -10 135.5 0.5 c 128,-1,20
 106 11 106 11 84 30 c 128,-1,21
 62 49 62 49 49 73.5 c 128,-1,22
 36 98 36 98 36 127 c 0,23,24
 36 160 36 160 50.5 190 c 128,-1,25
 65 220 65 220 98.5 242 c 128,-1,26
 132 264 132 264 185.5 277 c 128,-1,27
 239 290 239 290 317 290 c 1,28,29
 317 316 317 316 313 336.5 c 128,-1,30
 309 357 309 357 298 370.5 c 128,-1,31
 287 384 287 384 268 391 c 128,-1,32
 249 398 249 398 220 398 c 0,33,34
 177 398 177 398 138 383.5 c 128,-1,35
 99 369 99 369 57 331 c 1,36,-1
 47 331 l 1,37,-1
 85 457 l 1,38,39
 113 475 113 475 151 486.5 c 128,-1,40
 189 498 189 498 224 498 c 0,41,42
 250 498 250 498 283.5 491.5 c 128,-1,43
 317 485 317 485 346.5 464 c 128,-1,44
 376 443 376 443 396.5 402.5 c 128,-1,45
 417 362 417 362 417 295 c 2,46,-1
 417 0 l 1,13,-1
EndSplineSet
Validated: 1
EndChar

StartChar: b
Encoding: 98 98 56
Width: 550
Flags: MW
LayerCount: 2
Fore
SplineSet
419 237 m 0,0,1
 419 266 419 266 407.5 292 c 128,-1,2
 396 318 396 318 376 337.5 c 128,-1,3
 356 357 356 357 330 368.5 c 128,-1,4
 304 380 304 380 274 380 c 0,5,6
 237 380 237 380 205.5 367.5 c 128,-1,7
 174 355 174 355 151 334 c 1,8,-1
 151 135 l 1,9,10
 174 114 174 114 206 102 c 128,-1,11
 238 90 238 90 274 90 c 0,12,13
 304 90 304 90 330 101.5 c 128,-1,14
 356 113 356 113 376 133 c 128,-1,15
 396 153 396 153 407.5 180 c 128,-1,16
 419 207 419 207 419 237 c 0,0,1
519 237 m 0,17,18
 519 186 519 186 499.5 141 c 128,-1,19
 480 96 480 96 446.5 62.5 c 128,-1,20
 413 29 413 29 368.5 9.5 c 128,-1,21
 324 -10 324 -10 274 -10 c 0,22,23
 240 -10 240 -10 209 -1.5 c 128,-1,24
 178 7 178 7 151 23 c 1,25,-1
 151 0 l 1,26,-1
 51 0 l 1,27,-1
 51 700 l 1,28,-1
 151 700 l 1,29,-1
 151 446 l 1,30,31
 178 462 178 462 209.5 471 c 128,-1,32
 241 480 241 480 275 480 c 0,33,34
 325 480 325 480 369.5 460.5 c 128,-1,35
 414 441 414 441 447 408 c 128,-1,36
 480 375 480 375 499.5 331 c 128,-1,37
 519 287 519 287 519 237 c 0,17,18
EndSplineSet
Validated: 1
EndChar

StartChar: c
Encoding: 99 99 57
Width: 460
Flags: MW
LayerCount: 2
Fore
SplineSet
435 32 m 1,0,1
 400 12 400 12 360 1 c 128,-1,2
 320 -10 320 -10 276 -10 c 0,3,4
 225 -10 225 -10 180.5 9.5 c 128,-1,5
 136 29 136 29 103 62.5 c 128,-1,6
 70 96 70 96 50.5 141 c 128,-1,7
 31 186 31 186 31 237 c 0,8,9
 31 287 31 287 50.5 331 c 128,-1,10
 70 375 70 375 103.5 408 c 128,-1,11
 137 441 137 441 181.5 460.5 c 128,-1,12
 226 480 226 480 277 480 c 0,13,14
 321 480 321 480 360.5 469 c 128,-1,15
 400 458 400 458 435 438 c 1,16,-1
 435 318 l 1,17,18
 408 346 408 346 366.5 363 c 128,-1,19
 325 380 325 380 276 380 c 0,20,21
 246 380 246 380 219.5 368.5 c 128,-1,22
 193 357 193 357 173.5 337.5 c 128,-1,23
 154 318 154 318 142.5 291.5 c 128,-1,24
 131 265 131 265 131 236 c 0,25,26
 131 206 131 206 142.5 179 c 128,-1,27
 154 152 154 152 173.5 132.5 c 128,-1,28
 193 113 193 113 219.5 101.5 c 128,-1,29
 246 90 246 90 276 90 c 0,30,31
 325 90 325 90 366.5 106.5 c 128,-1,32
 408 123 408 123 435 152 c 1,33,-1
 435 32 l 1,0,1
EndSplineSet
Validated: 1
EndChar

StartChar: d
Encoding: 100 100 58
Width: 550
Flags: MW
LayerCount: 2
Fore
SplineSet
499 0 m 1,0,-1
 399 0 l 1,1,-1
 399 23 l 1,2,3
 372 7 372 7 341 -1.5 c 128,-1,4
 310 -10 310 -10 276 -10 c 0,5,6
 226 -10 226 -10 181.5 9.5 c 128,-1,7
 137 29 137 29 103.5 62.5 c 128,-1,8
 70 96 70 96 50.5 141 c 128,-1,9
 31 186 31 186 31 237 c 0,10,11
 31 287 31 287 50.5 331 c 128,-1,12
 70 375 70 375 103 408 c 128,-1,13
 136 441 136 441 180.5 460.5 c 128,-1,14
 225 480 225 480 275 480 c 0,15,16
 309 480 309 480 340.5 471 c 128,-1,17
 372 462 372 462 399 446 c 1,18,-1
 399 700 l 1,19,-1
 499 700 l 1,20,-1
 499 0 l 1,0,-1
399 334 m 1,21,22
 376 355 376 355 344.5 367.5 c 128,-1,23
 313 380 313 380 276 380 c 0,24,25
 246 380 246 380 220 368.5 c 128,-1,26
 194 357 194 357 174 337.5 c 128,-1,27
 154 318 154 318 142.5 292 c 128,-1,28
 131 266 131 266 131 237 c 0,29,30
 131 207 131 207 142.5 180 c 128,-1,31
 154 153 154 153 174 133 c 128,-1,32
 194 113 194 113 220 101.5 c 128,-1,33
 246 90 246 90 276 90 c 0,34,35
 312 90 312 90 344 102 c 128,-1,36
 376 114 376 114 399 135 c 1,37,-1
 399 334 l 1,21,22
EndSplineSet
Validated: 1
EndChar

StartChar: e
Encoding: 101 101 59
Width: 538
Flags: MW
LayerCount: 2
Fore
SplineSet
398 321 m 1,0,1
 398 337 398 337 388 352 c 128,-1,2
 378 367 378 367 361.5 378 c 128,-1,3
 345 389 345 389 323 396 c 128,-1,4
 301 403 301 403 276 403 c 0,5,6
 231 403 231 403 195 379.5 c 128,-1,7
 159 356 159 356 142 321 c 1,8,-1
 398 321 l 1,0,1
512 225 m 1,9,10
 134 225 l 1,11,12
 140 196 140 196 155.5 171 c 128,-1,13
 171 146 171 146 193.5 128 c 128,-1,14
 216 110 216 110 245 99.5 c 128,-1,15
 274 89 274 89 306 89 c 0,16,17
 358 89 358 89 403.5 106 c 128,-1,18
 449 123 449 123 481 150 c 1,19,-1
 481 46 l 1,20,21
 440 20 440 20 391.5 5 c 128,-1,22
 343 -10 343 -10 291 -10 c 0,23,24
 237 -10 237 -10 189.5 11 c 128,-1,25
 142 32 142 32 107 68 c 128,-1,26
 72 104 72 104 51.5 152.5 c 128,-1,27
 31 201 31 201 31 255 c 0,28,29
 31 305 31 305 50.5 349 c 128,-1,30
 70 393 70 393 103.5 426 c 128,-1,31
 137 459 137 459 181.5 478.5 c 128,-1,32
 226 498 226 498 277 498 c 0,33,34
 325 498 325 498 371 483 c 128,-1,35
 417 468 417 468 451 435 c 128,-1,36
 485 402 485 402 502.5 350 c 128,-1,37
 520 298 520 298 512 225 c 1,9,10
EndSplineSet
Validated: 33
EndChar

StartChar: f
Encoding: 102 102 60
Width: 363
Flags: MW
LayerCount: 2
Fore
SplineSet
350 603 m 1,0,1
 322 619 322 619 298.5 621.5 c 128,-1,2
 275 624 275 624 252 624 c 0,3,4
 224 624 224 624 206 597 c 128,-1,5
 188 570 188 570 188 532 c 2,6,-1
 188 459 l 1,7,-1
 346 459 l 1,8,-1
 346 358 l 1,9,-1
 188 358 l 1,10,-1
 188 2 l 1,11,-1
 88 2 l 1,12,-1
 88 359 l 1,13,-1
 8 359 l 1,14,-1
 8 458 l 1,15,-1
 88 458 l 1,16,-1
 88 552 l 2,17,18
 88 587 88 587 101 618 c 128,-1,19
 114 649 114 649 136 672 c 128,-1,20
 158 695 158 695 187.5 708.5 c 128,-1,21
 217 722 217 722 251 722 c 0,22,23
 274 722 274 722 301 716 c 128,-1,24
 328 710 328 710 350 702 c 1,25,-1
 350 603 l 1,0,1
EndSplineSet
Validated: 1
EndChar

StartChar: g
Encoding: 103 103 61
Width: 480
Flags: MW
LayerCount: 2
Fore
SplineSet
373 -81 m 0,0,1
 373 -51 373 -51 331.5 -29.5 c 128,-1,2
 290 -8 290 -8 224 -2 c 1,3,4
 173 -16 173 -16 144.5 -35.5 c 128,-1,5
 116 -55 116 -55 116 -79 c 0,6,7
 116 -105 116 -105 152.5 -123.5 c 128,-1,8
 189 -142 189 -142 244 -142 c 128,-1,9
 299 -142 299 -142 336 -124 c 128,-1,10
 373 -106 373 -106 373 -81 c 0,0,1
326 324 m 128,-1,12
 326 342 326 342 319 357.5 c 128,-1,13
 312 373 312 373 300.5 384.5 c 128,-1,14
 289 396 289 396 273.5 403 c 128,-1,15
 258 410 258 410 241 410 c 0,16,17
 223 410 223 410 207.5 403 c 128,-1,18
 192 396 192 396 180.5 384.5 c 128,-1,19
 169 373 169 373 162.5 357.5 c 128,-1,20
 156 342 156 342 156 324 c 128,-1,21
 156 306 156 306 162.5 290 c 128,-1,22
 169 274 169 274 180.5 262.5 c 128,-1,23
 192 251 192 251 207.5 244 c 128,-1,24
 223 237 223 237 241 237 c 0,25,26
 258 237 258 237 273.5 244 c 128,-1,27
 289 251 289 251 300.5 262.5 c 128,-1,28
 312 274 312 274 319 290 c 128,-1,11
 326 306 326 306 326 324 c 128,-1,12
478 -81 m 0,29,30
 478 -115 478 -115 460 -144.5 c 128,-1,31
 442 -174 442 -174 410.5 -195.5 c 128,-1,32
 379 -217 379 -217 336.5 -229.5 c 128,-1,33
 294 -242 294 -242 245 -242 c 0,34,35
 195 -242 195 -242 152.5 -233 c 128,-1,36
 110 -224 110 -224 78 -204 c 128,-1,37
 46 -184 46 -184 28 -153 c 128,-1,38
 10 -122 10 -122 10 -78 c 1,39,40
 18 -34 18 -34 45 -2.5 c 128,-1,41
 72 29 72 29 111 44 c 1,42,43
 95 61 95 61 83.5 83.5 c 128,-1,44
 72 106 72 106 72 132 c 0,45,46
 72 152 72 152 79.5 171 c 128,-1,47
 87 190 87 190 101 204 c 1,48,49
 56 252 56 252 56 323 c 0,50,51
 56 361 56 361 70.5 395 c 128,-1,52
 85 429 85 429 110 454.5 c 128,-1,53
 135 480 135 480 169 495 c 128,-1,54
 203 510 203 510 241 510 c 0,55,56
 270 510 270 510 297.5 501 c 128,-1,57
 325 492 325 492 348 475 c 1,58,59
 462 475 l 1,60,-1
 462 380 l 1,61,-1
 421 380 l 1,62,63
 426 366 426 366 428.5 352.5 c 128,-1,64
 431 339 431 339 431 325 c 0,65,66
 431 290 431 290 419 259 c 128,-1,67
 407 228 407 228 387 204 c 128,-1,68
 367 180 367 180 340 165 c 128,-1,69
 313 150 313 150 282 146 c 0,70,71
 277 145 277 145 272 145 c 2,72,-1
 263 145 l 2,73,74
 227 145 227 145 200 152 c 1,75,76
 193 148 193 148 188.5 145 c 128,-1,77
 184 142 184 142 184 137 c 0,78,79
 184 128 184 128 188 122 c 128,-1,80
 192 116 192 116 201 112 c 128,-1,81
 210 108 210 108 225 103.5 c 2,82,-1
 261 93 l 2,83,84
 303 85 303 85 342 73 c 128,-1,85
 381 61 381 61 411 41 c 128,-1,86
 441 21 441 21 459.5 -8.5 c 128,-1,87
 478 -38 478 -38 478 -81 c 0,29,30
EndSplineSet
Validated: 1
EndChar

StartChar: h
Encoding: 104 104 62
Width: 523
Flags: MW
LayerCount: 2
Fore
SplineSet
483 0 m 1,0,-1
 383 0 l 1,1,-1
 383 285 l 2,2,3
 383 304 383 304 374.5 321.5 c 128,-1,4
 366 339 366 339 351 352 c 128,-1,5
 336 365 336 365 316 372.5 c 128,-1,6
 296 380 296 380 273 380 c 0,7,8
 235 380 235 380 203 361.5 c 128,-1,9
 171 343 171 343 151 314 c 1,10,-1
 151 0 l 1,11,-1
 51 0 l 1,12,-1
 51 700 l 1,13,-1
 151 700 l 1,14,-1
 151 446 l 1,15,16
 178 462 178 462 209 471 c 128,-1,17
 240 480 240 480 274 480 c 0,18,19
 316 480 316 480 353.5 464.5 c 128,-1,20
 391 449 391 449 420 422 c 128,-1,21
 449 395 449 395 466 359.5 c 128,-1,22
 483 324 483 324 483 285 c 2,23,-1
 483 0 l 1,0,-1
EndSplineSet
Validated: 1
EndChar

StartChar: i
Encoding: 105 105 63
Width: 200
Flags: MW
LayerCount: 2
Fore
SplineSet
150 0 m 1,0,-1
 51 0 l 1,1,-1
 51 474 l 1,2,-1
 150 474 l 1,3,-1
 150 0 l 1,0,-1
171 598 m 5,4,-1
 101 528 l 5,5,-1
 31 598 l 5,6,-1
 101 669 l 5,7,-1
 171 598 l 5,4,-1
EndSplineSet
Validated: 1
EndChar

StartChar: j
Encoding: 106 106 64
Width: 200
Flags: MW
LayerCount: 2
Fore
SplineSet
150 0 m 2,0,1
 150 -63 150 -63 141.5 -109 c 128,-1,2
 133 -155 133 -155 110 -185 c 128,-1,3
 87 -215 87 -215 46.5 -229 c 128,-1,4
 6 -243 6 -243 -57 -243 c 1,5,-1
 -57 -143 l 1,6,7
 -21 -143 -21 -143 0.5 -134 c 128,-1,8
 22 -125 22 -125 33 -107 c 128,-1,9
 44 -89 44 -89 47.5 -62.5 c 128,-1,10
 51 -36 51 -36 51 0 c 2,11,-1
 51 474 l 1,12,-1
 150 474 l 1,13,-1
 150 0 l 2,0,1
171 598 m 1,14,-1
 101 528 l 1,15,-1
 31 598 l 1,16,-1
 101 669 l 1,17,-1
 171 598 l 1,14,-1
EndSplineSet
Validated: 1
EndChar

StartChar: k
Encoding: 107 107 65
Width: 515
Flags: MW
LayerCount: 2
Fore
SplineSet
506 -1 m 1,0,-1
 366 -1 l 1,1,-1
 151 226 l 1,2,-1
 151 0 l 1,3,-1
 51 0 l 1,4,-1
 51 700 l 1,5,-1
 151 700 l 1,6,-1
 151 320 l 1,7,-1
 313 459 l 1,8,-1
 465 459 l 1,9,-1
 248 269 l 1,10,-1
 506 -1 l 1,0,-1
EndSplineSet
Validated: 1
EndChar

StartChar: l
Encoding: 108 108 66
Width: 325
Flags: MW
LayerCount: 2
Fore
SplineSet
325 24 m 1,0,1
 302 8 302 8 272 -1.5 c 128,-1,2
 242 -11 242 -11 216 -11 c 0,3,4
 180 -11 180 -11 149 1 c 128,-1,5
 118 13 118 13 95 34.5 c 128,-1,6
 72 56 72 56 59 85 c 128,-1,7
 46 114 46 114 46 148 c 2,8,-1
 46 698 l 1,9,-1
 146 698 l 1,10,-1
 146 178 l 2,11,12
 146 139 146 139 166 114 c 128,-1,13
 186 89 186 89 216 89 c 0,14,15
 242 89 242 89 272 98.5 c 128,-1,16
 302 108 302 108 325 125 c 1,17,-1
 325 24 l 1,0,1
EndSplineSet
Validated: 1
EndChar

StartChar: m
Encoding: 109 109 67
Width: 835
Flags: MW
LayerCount: 2
Fore
SplineSet
796 0 m 1,0,-1
 696 0 l 1,1,-1
 696 282 l 2,2,3
 696 301 696 301 687.5 318.5 c 128,-1,4
 679 336 679 336 664 349 c 128,-1,5
 649 362 649 362 629 369.5 c 128,-1,6
 609 377 609 377 586 377 c 0,7,8
 554 377 554 377 525 360 c 128,-1,9
 496 343 496 343 473 314 c 1,10,-1
 473 0 l 1,11,-1
 373 0 l 1,12,-1
 373 282 l 2,13,14
 373 301 373 301 364.5 318.5 c 128,-1,15
 356 336 356 336 341 349 c 128,-1,16
 326 362 326 362 306 369.5 c 128,-1,17
 286 377 286 377 263 377 c 0,18,19
 229 377 229 377 200.5 366 c 128,-1,20
 172 355 172 355 153 336 c 1,21,-1
 153 0 l 1,22,-1
 51 0 l 1,23,-1
 51 475 l 1,24,-1
 154 475 l 1,25,-1
 154 446 l 1,26,27
 181 462 181 462 212 471 c 128,-1,28
 243 480 243 480 277 480 c 0,29,30
 320 480 320 480 358 460 c 128,-1,31
 396 440 396 440 424 408 c 1,32,33
 464 442 464 442 508 461 c 128,-1,34
 552 480 552 480 600 480 c 0,35,36
 639 480 639 480 674.5 464 c 128,-1,37
 710 448 710 448 737 421 c 128,-1,38
 764 394 764 394 780 358 c 128,-1,39
 796 322 796 322 796 282 c 2,40,-1
 796 0 l 1,0,-1
EndSplineSet
Validated: 1
EndChar

StartChar: n
Encoding: 110 110 68
Width: 523
Flags: MW
LayerCount: 2
Fore
SplineSet
483 0 m 1,0,-1
 383 0 l 1,1,-1
 383 285 l 2,2,3
 383 304 383 304 374.5 321.5 c 128,-1,4
 366 339 366 339 351 352 c 128,-1,5
 336 365 336 365 316 372.5 c 128,-1,6
 296 380 296 380 273 380 c 0,7,8
 235 380 235 380 203 368 c 128,-1,9
 171 356 171 356 151 336 c 1,10,-1
 151 0 l 1,11,-1
 51 0 l 1,12,-1
 51 475 l 1,13,-1
 151 475 l 1,14,-1
 151 446 l 1,15,16
 178 462 178 462 209 471 c 128,-1,17
 240 480 240 480 274 480 c 0,18,19
 316 480 316 480 353.5 464.5 c 128,-1,20
 391 449 391 449 420 422 c 128,-1,21
 449 395 449 395 466 359.5 c 128,-1,22
 483 324 483 324 483 285 c 2,23,-1
 483 0 l 1,0,-1
EndSplineSet
Validated: 1
EndChar

StartChar: o
Encoding: 111 111 69
Width: 550
Flags: MW
LayerCount: 2
Fore
SplineSet
421 237 m 0,0,1
 421 266 421 266 409.5 292 c 128,-1,2
 398 318 398 318 378 337.5 c 128,-1,3
 358 357 358 357 332 368.5 c 128,-1,4
 306 380 306 380 276 380 c 128,-1,5
 246 380 246 380 219.5 368.5 c 128,-1,6
 193 357 193 357 173.5 337.5 c 128,-1,7
 154 318 154 318 142.5 291.5 c 128,-1,8
 131 265 131 265 131 236 c 0,9,10
 131 206 131 206 142.5 179 c 128,-1,11
 154 152 154 152 173.5 132.5 c 128,-1,12
 193 113 193 113 219.5 101.5 c 128,-1,13
 246 90 246 90 276 90 c 128,-1,14
 306 90 306 90 332 101.5 c 128,-1,15
 358 113 358 113 378 133 c 128,-1,16
 398 153 398 153 409.5 180 c 128,-1,17
 421 207 421 207 421 237 c 0,0,1
521 237 m 0,18,19
 521 186 521 186 501.5 141 c 128,-1,20
 482 96 482 96 448.5 62.5 c 128,-1,21
 415 29 415 29 370.5 9.5 c 128,-1,22
 326 -10 326 -10 276 -10 c 0,23,24
 225 -10 225 -10 180.5 9.5 c 128,-1,25
 136 29 136 29 103 62.5 c 128,-1,26
 70 96 70 96 50.5 141 c 128,-1,27
 31 186 31 186 31 237 c 0,28,29
 31 287 31 287 50.5 331 c 128,-1,30
 70 375 70 375 103.5 408 c 128,-1,31
 137 441 137 441 181.5 460.5 c 128,-1,32
 226 480 226 480 277 480 c 0,33,34
 327 480 327 480 371.5 460.5 c 128,-1,35
 416 441 416 441 449 408 c 128,-1,36
 482 375 482 375 501.5 331 c 128,-1,37
 521 287 521 287 521 237 c 0,18,19
EndSplineSet
Validated: 1
EndChar

StartChar: p
Encoding: 112 112 70
Width: 555
Flags: MW
LayerCount: 2
Fore
SplineSet
424 237 m 0,0,1
 424 266 424 266 412.5 292 c 128,-1,2
 401 318 401 318 381 337.5 c 128,-1,3
 361 357 361 357 335 368.5 c 128,-1,4
 309 380 309 380 279 380 c 0,5,6
 240 380 240 380 207 366.5 c 128,-1,7
 174 353 174 353 151 331 c 1,8,-1
 151 145 l 1,9,10
 174 119 174 119 207 104.5 c 128,-1,11
 240 90 240 90 279 90 c 0,12,13
 309 90 309 90 335 101.5 c 128,-1,14
 361 113 361 113 381 133 c 128,-1,15
 401 153 401 153 412.5 180 c 128,-1,16
 424 207 424 207 424 237 c 0,0,1
524 237 m 0,17,18
 524 186 524 186 504.5 141 c 128,-1,19
 485 96 485 96 451.5 62.5 c 128,-1,20
 418 29 418 29 373.5 9.5 c 128,-1,21
 329 -10 329 -10 279 -10 c 0,22,23
 244 -10 244 -10 211.5 -0.5 c 128,-1,24
 179 9 179 9 151 26 c 1,25,-1
 151 -225 l 1,26,-1
 51 -225 l 1,27,-1
 51 475 l 1,28,-1
 151 475 l 1,29,-1
 151 448 l 1,30,31
 180 463 180 463 212 471.5 c 128,-1,32
 244 480 244 480 280 480 c 0,33,34
 330 480 330 480 374.5 460.5 c 128,-1,35
 419 441 419 441 452 408 c 128,-1,36
 485 375 485 375 504.5 331 c 128,-1,37
 524 287 524 287 524 237 c 0,17,18
EndSplineSet
Validated: 1
EndChar

StartChar: q
Encoding: 113 113 71
Width: 555
Flags: MW
LayerCount: 2
Fore
SplineSet
404 145 m 1,0,1
 404 331 l 1,2,3
 381 353 381 353 348 366.5 c 128,-1,4
 315 380 315 380 276 380 c 0,5,6
 246 380 246 380 220 368.5 c 128,-1,7
 194 357 194 357 174 337.5 c 128,-1,8
 154 318 154 318 142.5 292 c 128,-1,9
 131 266 131 266 131 237 c 0,10,11
 131 207 131 207 142.5 180 c 128,-1,12
 154 153 154 153 174 133 c 128,-1,13
 194 113 194 113 220 101.5 c 128,-1,14
 246 90 246 90 276 90 c 0,15,16
 315 90 315 90 348 104.5 c 128,-1,17
 381 119 381 119 404 145 c 1,0,1
504 -225 m 1,18,-1
 404 -225 l 1,19,-1
 404 26 l 1,20,21
 376 9 376 9 343.5 -0.5 c 128,-1,22
 311 -10 311 -10 276 -10 c 0,23,24
 226 -10 226 -10 181.5 9.5 c 128,-1,25
 137 29 137 29 103.5 62.5 c 128,-1,26
 70 96 70 96 50.5 141 c 128,-1,27
 31 186 31 186 31 237 c 0,28,29
 31 287 31 287 50.5 331 c 128,-1,30
 70 375 70 375 103 408 c 128,-1,31
 136 441 136 441 180.5 460.5 c 128,-1,32
 225 480 225 480 275 480 c 0,33,34
 311 480 311 480 343 471.5 c 128,-1,35
 375 463 375 463 404 448 c 1,36,-1
 404 475 l 1,37,-1
 504 475 l 1,38,-1
 504 -225 l 1,18,-1
EndSplineSet
Validated: 1
EndChar

StartChar: r
Encoding: 114 114 72
Width: 365
Flags: MW
LayerCount: 2
Fore
SplineSet
355 329 m 1,0,1
 326 359 326 359 301 365 c 128,-1,2
 276 371 276 371 263 371 c 0,3,4
 247 371 247 371 231.5 368.5 c 128,-1,5
 216 366 216 366 201 358.5 c 128,-1,6
 186 351 186 351 173 336.5 c 128,-1,7
 160 322 160 322 149 298 c 1,8,-1
 149 0 l 1,9,-1
 50 0 l 1,10,-1
 50 475 l 1,11,-1
 150 475 l 1,12,-1
 150 435 l 1,13,14
 206 480 206 480 264 480 c 0,15,16
 290 480 290 480 312.5 473.5 c 128,-1,17
 335 467 335 467 355 456 c 1,18,-1
 355 329 l 1,0,1
EndSplineSet
Validated: 1
EndChar

StartChar: s
Encoding: 115 115 73
Width: 440
Flags: MW
LayerCount: 2
Fore
SplineSet
416 146 m 0,0,1
 416 100 416 100 399.5 69 c 128,-1,2
 383 38 383 38 355.5 19 c 128,-1,3
 328 0 328 0 290.5 -8 c 128,-1,4
 253 -16 253 -16 211 -16 c 0,5,6
 160 -16 160 -16 115.5 1.5 c 128,-1,7
 71 19 71 19 36 51 c 1,8,-1
 36 186 l 1,9,10
 60 138 60 138 106 111 c 128,-1,11
 152 84 152 84 209 84 c 0,12,13
 217 84 217 84 235 84.5 c 128,-1,14
 253 85 253 85 271 90.5 c 128,-1,15
 289 96 289 96 303 107.5 c 128,-1,16
 317 119 317 119 317 142 c 0,17,18
 317 163 317 163 296.5 173.5 c 128,-1,19
 276 184 276 184 245 191 c 2,20,-1
 178 206 l 2,21,22
 142 214 142 214 111 230 c 128,-1,23
 80 246 80 246 59.5 274 c 128,-1,24
 39 302 39 302 39 351 c 0,25,26
 39 381 39 381 52.5 407.5 c 128,-1,27
 66 434 66 434 89 454 c 128,-1,28
 112 474 112 474 143 485.5 c 128,-1,29
 174 497 174 497 209 497 c 0,30,31
 254 497 254 497 295.5 484.5 c 128,-1,32
 337 472 337 472 372 450 c 1,33,-1
 372 335 l 1,34,35
 343 363 343 363 301 380 c 128,-1,36
 259 397 259 397 209 397 c 0,37,38
 180 397 180 397 159.5 388 c 128,-1,39
 139 379 139 379 139 351 c 0,40,41
 139 327 139 327 159.5 315 c 128,-1,42
 180 303 180 303 211 295.5 c 128,-1,43
 242 288 242 288 277.5 280.5 c 128,-1,44
 313 273 313 273 344 258 c 128,-1,45
 375 243 375 243 395.5 217 c 128,-1,46
 416 191 416 191 416 146 c 0,0,1
EndSplineSet
Validated: 1
EndChar

StartChar: t
Encoding: 116 116 74
Width: 430
Flags: MW
LayerCount: 2
Fore
SplineSet
421 375 m 1,0,-1
 220 375 l 1,1,-1
 220 178 l 2,2,3
 220 139 220 139 240 114 c 128,-1,4
 260 89 260 89 290 89 c 0,5,6
 316 89 316 89 346 98.5 c 128,-1,7
 376 108 376 108 399 125 c 1,8,-1
 399 24 l 1,9,10
 376 8 376 8 346 -1.5 c 128,-1,11
 316 -11 316 -11 290 -11 c 0,12,13
 254 -11 254 -11 223 1 c 128,-1,14
 192 13 192 13 169 34.5 c 128,-1,15
 146 56 146 56 133 85 c 128,-1,16
 120 114 120 114 120 148 c 2,17,-1
 120 375 l 1,18,-1
 21 375 l 1,19,-1
 21 475 l 1,20,-1
 120 475 l 1,21,-1
 120 570 l 1,22,-1
 220 570 l 1,23,-1
 220 475 l 1,24,-1
 421 475 l 1,25,-1
 421 375 l 1,0,-1
EndSplineSet
Validated: 1
EndChar

StartChar: u
Encoding: 117 117 75
Width: 525
Flags: MW
LayerCount: 2
Fore
SplineSet
476 0 m 1,0,-1
 376 0 l 1,1,-1
 376 30 l 1,2,3
 318 -10 318 -10 249 -10 c 0,4,5
 218 -10 218 -10 182 0 c 128,-1,6
 146 10 146 10 114.5 34 c 128,-1,7
 83 58 83 58 62 97.5 c 128,-1,8
 41 137 41 137 41 195 c 2,9,-1
 41 475 l 1,10,-1
 141 475 l 1,11,-1
 141 213 l 2,12,13
 141 188 141 188 149.5 166.5 c 128,-1,14
 158 145 158 145 173 129 c 128,-1,15
 188 113 188 113 207.5 104 c 128,-1,16
 227 95 227 95 249 95 c 0,17,18
 285 95 285 95 317.5 103.5 c 128,-1,19
 350 112 350 112 376 130 c 1,20,-1
 376 475 l 1,21,-1
 476 475 l 1,22,-1
 476 0 l 1,0,-1
EndSplineSet
Validated: 1
EndChar

StartChar: v
Encoding: 118 118 76
Width: 555
Flags: MW
LayerCount: 2
Fore
SplineSet
544 477 m 1,0,-1
 330 2 l 1,1,-1
 226 2 l 1,2,-1
 12 475 l 1,3,-1
 121 475 l 1,4,-1
 277 129 l 1,5,-1
 435 477 l 1,6,-1
 544 477 l 1,0,-1
EndSplineSet
Validated: 1
EndChar

StartChar: w
Encoding: 119 119 77
Width: 780
Flags: MW
LayerCount: 2
Fore
SplineSet
766 474 m 1,0,-1
 593 -2 l 1,1,-1
 493 -2 l 1,2,-1
 389 278 l 1,3,-1
 284 -2 l 1,4,-1
 184 -2 l 1,5,-1
 11 474 l 1,6,-1
 117 474 l 1,7,-1
 234 153 l 1,8,-1
 341 434 l 1,9,-1
 436 434 l 1,10,-1
 543 153 l 1,11,-1
 660 474 l 1,12,-1
 766 474 l 1,0,-1
EndSplineSet
Validated: 1
EndChar

StartChar: x
Encoding: 120 120 78
Width: 490
Flags: MW
LayerCount: 2
Fore
SplineSet
488 -2 m 1,0,-1
 363 -2 l 1,1,-1
 247 155 l 1,2,-1
 130 -2 l 1,3,-1
 5 -2 l 1,4,-1
 185 239 l 1,5,-1
 8 475 l 1,6,-1
 132 475 l 1,7,-1
 247 322 l 1,8,-1
 361 475 l 1,9,-1
 485 475 l 1,10,-1
 309 238 l 1,11,-1
 488 -2 l 1,0,-1
EndSplineSet
Validated: 1
EndChar

StartChar: y
Encoding: 121 121 79
Width: 565
Flags: MW
LayerCount: 2
Fore
SplineSet
552 475 m 1,0,-1
 241 -112 l 2,1,2
 211.794 -167.126 211.794 -167.126 157 -200.5 c 0,3,4
 102 -234 102 -234 40 -234 c 1,5,-1
 40 -134 l 1,6,7
 75 -134 75 -134 106 -115 c 128,-1,8
 137 -96 137 -96 154 -65 c 2,9,-1
 224 69 l 1,10,-1
 13 475 l 1,11,-1
 126 475 l 1,12,-1
 281 177 l 1,13,-1
 441 475 l 1,14,-1
 552 475 l 1,0,-1
EndSplineSet
Validated: 1
EndChar

StartChar: z
Encoding: 122 122 80
Width: 498
Flags: MW
LayerCount: 2
Fore
SplineSet
488 475 m 1,0,-1
 209 100 l 1,1,-1
 470 100 l 1,2,-1
 470 0 l 1,3,-1
 8 0 l 1,4,-1
 289 375 l 1,5,-1
 32 375 l 1,6,-1
 32 475 l 1,7,-1
 488 475 l 1,0,-1
EndSplineSet
Validated: 1
EndChar

StartChar: OE
Encoding: 338 338 81
Width: 940
Flags: MW
LayerCount: 2
Fore
SplineSet
755.701 425 m 1,0,-1
 819 425 l 1,1,-1
 819 325 l 1,2,-1
 759.038 325 l 1,3,4
 753.457 268.923 753.457 268.923 732 217.5 c 0,5,6
 704.534 151.677 704.534 151.677 658.681 102 c 1,7,-1
 916 102 l 1,8,-1
 916 0 l 1,9,-1
 497.816 8.88178e-16 l 1,10,11
 449.033 -15 449.033 -15 396 -15 c 0,12,13
 321 -15 321 -15 254.5 15 c 128,-1,14
 188 45 188 45 138.5 96.5 c 128,-1,15
 89 148 89 148 60 217.5 c 128,-1,16
 31 287 31 287 31 365 c 0,17,18
 31 437 31 437 60 500.5 c 128,-1,19
 89 564 89 564 138.5 611.5 c 128,-1,20
 188 659 188 659 254.5 687 c 128,-1,21
 321 715 321 715 396 715 c 0,22,23
 450.894 715 450.894 715 501.235 700 c 1,24,-1
 896 700 l 1,25,-1
 896 600 l 1,26,-1
 664.961 600 l 1,27,28
 706.442 556.464 706.442 556.464 732 500.5 c 0,29,30
 748.604 464.143 748.604 464.143 755.701 425 c 1,0,-1
658.695 325 m 1,31,-1
 576 325 l 1,32,-1
 576 159.277 l 1,33,34
 579.812 163.052 579.812 163.052 583.5 167 c 0,35,36
 619 205 619 205 640 255 c 0,37,38
 654.043 288.435 654.043 288.435 658.695 325 c 1,31,-1
476 96.9955 m 1,39,-1
 476 603.567 l 1,40,41
 439.072 615 439.072 615 399 615 c 0,42,43
 344 615 344 615 295 595 c 128,-1,44
 246 575 246 575 209.5 541 c 128,-1,45
 173 507 173 507 152 461.5 c 128,-1,46
 131 416 131 416 131 365 c 0,47,48
 131 307 131 307 152.5 256 c 128,-1,49
 174 205 174 205 210.5 167 c 128,-1,50
 247 129 247 129 296 107 c 128,-1,51
 345 85 345 85 401 85 c 0,52,53
 440.136 85 440.136 85 476 96.9955 c 1,39,-1
576 546.974 m 1,54,-1
 576 425 l 1,55,-1
 652.703 425 l 1,56,57
 647.8 442.914 647.8 442.914 640 460 c 0,58,59
 619 506 619 506 583 540.5 c 0,60,61
 579.553 543.804 579.553 543.804 576 546.974 c 1,54,-1
EndSplineSet
EndChar

StartChar: quoteleft
Encoding: 8216 8216 82
Width: 175
Flags: MW
LayerCount: 2
Fore
SplineSet
168 688 m 1,0,1
 156 683 156 683 146 675.5 c 128,-1,2
 136 668 136 668 128 654 c 128,-1,3
 120 640 120 640 115.5 618.5 c 128,-1,4
 111 597 111 597 111 564 c 2,5,-1
 111 456 l 1,6,-1
 11 456 l 1,7,-1
 11 564 l 2,8,9
 11 592 11 592 23 617 c 128,-1,10
 35 642 35 642 56.5 660 c 128,-1,11
 78 678 78 678 106.5 688.5 c 128,-1,12
 135 699 135 699 168 699 c 1,13,-1
 168 688 l 1,0,1
EndSplineSet
Validated: 1
EndChar

StartChar: quoteright
Encoding: 8217 8217 83
Width: 190
Flags: MW
LayerCount: 2
Fore
SplineSet
179 592 m 2,0,1
 179 563 179 563 167 538.5 c 128,-1,2
 155 514 155 514 133.5 496 c 128,-1,3
 112 478 112 478 83.5 467.5 c 128,-1,4
 55 457 55 457 22 457 c 1,5,-1
 22 468 l 1,6,7
 34 472 34 472 44 480 c 128,-1,8
 54 488 54 488 62 502 c 128,-1,9
 70 516 70 516 74.5 537.5 c 128,-1,10
 79 559 79 559 79 592 c 2,11,-1
 79 700 l 1,12,-1
 179 700 l 1,13,-1
 179 592 l 2,0,1
EndSplineSet
Validated: 1
EndChar

StartChar: quotedblleft
Encoding: 8220 8220 84
Width: 365
Flags: MW
LayerCount: 2
Fore
SplineSet
168 688 m 1,0,1
 156 683 156 683 146 675.5 c 128,-1,2
 136 668 136 668 128 654 c 128,-1,3
 120 640 120 640 115.5 618.5 c 128,-1,4
 111 597 111 597 111 564 c 2,5,-1
 111 456 l 1,6,-1
 11 456 l 1,7,-1
 11 564 l 2,8,9
 11 592 11 592 23 617 c 128,-1,10
 35 642 35 642 56.5 660 c 128,-1,11
 78 678 78 678 106.5 688.5 c 128,-1,12
 135 699 135 699 168 699 c 1,13,-1
 168 688 l 1,0,1
356 688 m 1,14,15
 344 683 344 683 334 675.5 c 128,-1,16
 324 668 324 668 316 654 c 128,-1,17
 308 640 308 640 303.5 618.5 c 128,-1,18
 299 597 299 597 299 564 c 2,19,-1
 299 480 l 1,20,-1
 198 480 l 1,21,-1
 198 564 l 2,22,23
 198 592 198 592 210.5 617 c 128,-1,24
 223 642 223 642 244 660 c 128,-1,25
 265 678 265 678 294 688.5 c 128,-1,26
 323 699 323 699 356 699 c 1,27,-1
 356 688 l 1,14,15
EndSplineSet
Validated: 1
EndChar

StartChar: quotedblright
Encoding: 8221 8221 85
Width: 358
Flags: MW
LayerCount: 2
Fore
SplineSet
169 592 m 2,0,1
 169 563 169 563 157 538.5 c 128,-1,2
 145 514 145 514 123.5 496 c 128,-1,3
 102 478 102 478 73.5 467.5 c 128,-1,4
 45 457 45 457 12 457 c 1,5,-1
 12 468 l 1,6,7
 24 472 24 472 34 480 c 128,-1,8
 44 488 44 488 52 502 c 128,-1,9
 60 516 60 516 64.5 537.5 c 128,-1,10
 69 559 69 559 69 592 c 2,11,-1
 69 700 l 1,12,-1
 169 700 l 1,13,-1
 169 592 l 2,0,1
350 616 m 2,14,15
 350 587 350 587 337.5 562.5 c 128,-1,16
 325 538 325 538 304 520 c 128,-1,17
 283 502 283 502 254 491.5 c 128,-1,18
 225 481 225 481 192 481 c 1,19,-1
 192 492 l 1,20,21
 204 496 204 496 214 504 c 128,-1,22
 224 512 224 512 232 526 c 128,-1,23
 240 540 240 540 244.5 561.5 c 128,-1,24
 249 583 249 583 249 616 c 2,25,-1
 249 700 l 1,26,-1
 350 700 l 1,27,-1
 350 616 l 2,14,15
EndSplineSet
Validated: 1
EndChar

StartChar: endash
Encoding: 8211 8211 86
Width: 500
Flags: MW
LayerCount: 2
Fore
SplineSet
500 168 m 1,0,-1
 0 168 l 1,1,-1
 0 268 l 1,2,-1
 500 268 l 1,3,-1
 500 168 l 1,0,-1
EndSplineSet
Validated: 1
EndChar

StartChar: emdash
Encoding: 8212 8212 87
Width: 750
Flags: MW
LayerCount: 2
Fore
SplineSet
750 168 m 1,0,-1
 0 168 l 1,1,-1
 0 268 l 1,2,-1
 750 268 l 1,3,-1
 750 168 l 1,0,-1
EndSplineSet
Validated: 1
EndChar

StartChar: oe
Encoding: 339 339 88
Width: 926
Flags: MW
LayerCount: 2
Fore
SplineSet
900 225 m 1,0,-1
 522 225 l 1,1,2
 528 196 528 196 543.5 171 c 128,-1,3
 559 146 559 146 581.5 128 c 128,-1,4
 604 110 604 110 633 99.5 c 128,-1,5
 662 89 662 89 694 89 c 0,6,7
 746 89 746 89 791.5 106 c 128,-1,8
 837 123 837 123 869 150 c 1,9,-1
 869 46 l 1,10,11
 828 20 828 20 779.5 5 c 128,-1,12
 731 -10 731 -10 679 -10 c 0,13,14
 625 -10 625 -10 577.5 11 c 128,-1,15
 530 32 530 32 495 68 c 0,16,17
 483.751 79.5704 483.751 79.5704 474 92.4321 c 1,18,19
 462.467 76.4666 462.467 76.4666 448.5 62.5 c 0,20,21
 415 29 415 29 370.5 9.5 c 128,-1,22
 326 -10 326 -10 276 -10 c 0,23,24
 225 -10 225 -10 180.5 9.5 c 128,-1,25
 136 29 136 29 103 62.5 c 128,-1,26
 70 96 70 96 50.5 141 c 128,-1,27
 31 186 31 186 31 237 c 0,28,29
 31 287 31 287 50.5 331 c 128,-1,30
 70 375 70 375 103.5 408 c 128,-1,31
 137 441 137 441 181.5 460.5 c 128,-1,32
 226 480 226 480 277 480 c 0,33,34
 327 480 327 480 371.5 460.5 c 128,-1,35
 416 441 416 441 449 408 c 0,36,37
 456.415 400.585 456.415 400.585 463.148 392.615 c 1,38,39
 475.783 410.518 475.783 410.518 491.5 426 c 0,40,41
 525 459 525 459 569.5 478.5 c 128,-1,42
 614 498 614 498 665 498 c 0,43,44
 713 498 713 498 759 483 c 128,-1,45
 805 468 805 468 839 435 c 128,-1,46
 873 402 873 402 890.5 350 c 128,-1,47
 908 298 908 298 900 225 c 1,0,-1
786 321 m 1,48,49
 786 337 786 337 776 352 c 128,-1,50
 766 367 766 367 749.5 378 c 128,-1,51
 733 389 733 389 711 396 c 128,-1,52
 689 403 689 403 664 403 c 0,53,54
 619 403 619 403 583 379.5 c 128,-1,55
 547 356 547 356 530 321 c 1,56,-1
 786 321 l 1,48,49
420.571 225.524 m 1,57,58
 419 240.051 419 240.051 419 255 c 0,59,60
 419 257.678 419 257.678 419.056 260.34 c 0,61,62
 416.272 276.69 416.272 276.69 409.5 292 c 0,63,64
 398 318 398 318 378 337.5 c 128,-1,65
 358 357 358 357 332 368.5 c 128,-1,66
 306 380 306 380 276 380 c 128,-1,67
 246 380 246 380 219.5 368.5 c 128,-1,68
 193 357 193 357 173.5 337.5 c 128,-1,69
 154 318 154 318 142.5 291.5 c 128,-1,70
 131 265 131 265 131 236 c 0,71,72
 131 206 131 206 142.5 179 c 128,-1,73
 154 152 154 152 173.5 132.5 c 128,-1,74
 193 113 193 113 219.5 101.5 c 128,-1,75
 246 90 246 90 276 90 c 128,-1,76
 306 90 306 90 332 101.5 c 128,-1,77
 358 113 358 113 378 133 c 128,-1,78
 398 153 398 153 409.5 180 c 0,79,80
 418.779 201.785 418.779 201.785 420.571 225.524 c 1,57,58
EndSplineSet
EndChar

StartChar: sterling
Encoding: 163 163 89
Width: 620
Flags: MW
LayerCount: 2
Fore
SplineSet
609 100 m 1,0,-1
 556 0 l 1,1,-1
 53 0 l 1,2,3
 70 27 70 27 84 59.5 c 128,-1,4
 98 92 98 92 108.5 127 c 128,-1,5
 119 162 119 162 125 198 c 128,-1,6
 131 234 131 234 131 268 c 1,7,-1
 40 268 l 1,8,-1
 84 368 l 1,9,-1
 131 368 l 1,10,11
 131 472 131 472 147.5 539.5 c 128,-1,12
 164 607 164 607 192 646 c 128,-1,13
 220 685 220 685 257.5 700.5 c 128,-1,14
 295 716 295 716 338 716 c 0,15,16
 380 716 380 716 420.5 695 c 128,-1,17
 461 674 461 674 487 640 c 1,18,-1
 411 520 l 1,19,20
 411 560 411 560 389.5 588 c 128,-1,21
 368 616 368 616 338 616 c 0,22,23
 317 616 317 616 298 606.5 c 128,-1,24
 279 597 279 597 264.5 570 c 128,-1,25
 250 543 250 543 242 494.5 c 128,-1,26
 234 446 234 446 234 368 c 1,27,-1
 426 368 l 1,28,-1
 382 268 l 1,29,-1
 234 268 l 1,30,31
 234 227 234 227 226 181 c 128,-1,32
 218 135 218 135 206 100 c 1,33,-1
 609 100 l 1,0,-1
EndSplineSet
Validated: 1
EndChar

StartChar: yen
Encoding: 165 165 90
Width: 1000
Flags: MW
LayerCount: 2
Fore
SplineSet
1000 348 m 1,0,-1
 365 161 l 1,1,-1
 491 297 l 1,2,-1
 462 297 l 1,3,-1
 0 297 l 1,4,-1
 0 397 l 1,5,-1
 463 397 l 1,6,-1
 491 397 l 1,7,-1
 367 536 l 1,8,-1
 1000 348 l 1,0,-1
EndSplineSet
Validated: 1
EndChar

StartChar: copyright
Encoding: 169 169 91
Width: 790
Flags: MW
LayerCount: 2
Fore
SplineSet
528.6 187.6 m 5,0,1
 500.6 171.6 500.6 171.6 468.6 162.8 c 132,-1,2
 436.6 154 436.6 154 401.4 154 c 4,3,4
 360.6 154 360.6 154 325 169.6 c 132,-1,5
 289.4 185.2 289.4 185.2 263 212 c 132,-1,6
 236.6 238.8 236.6 238.8 221 274.8 c 132,-1,7
 205.4 310.8 205.4 310.8 205.4 351.6 c 4,8,9
 205.4 391.6 205.4 391.6 221 426.8 c 132,-1,10
 236.6 462 236.6 462 263.4 488.4 c 132,-1,11
 290.2 514.8 290.2 514.8 325.8 530.4 c 132,-1,12
 361.4 546 361.4 546 402.2 546 c 4,13,14
 437.4 546 437.4 546 469 537.2 c 132,-1,15
 500.6 528.4 500.6 528.4 528.6 512.4 c 5,16,-1
 528.6 416.4 l 5,17,18
 507 438.8 507 438.8 473.8 452.4 c 132,-1,19
 440.6 466 440.6 466 401.4 466 c 4,20,21
 377.4 466 377.4 466 356.2 456.8 c 132,-1,22
 335 447.6 335 447.6 319.4 432 c 132,-1,23
 303.8 416.4 303.8 416.4 294.6 395.2 c 132,-1,24
 285.4 374 285.4 374 285.4 350.8 c 4,25,26
 285.4 326.8 285.4 326.8 294.6 305.2 c 132,-1,27
 303.8 283.6 303.8 283.6 319.4 268 c 132,-1,28
 335 252.4 335 252.4 356.2 243.2 c 132,-1,29
 377.4 234 377.4 234 401.4 234 c 4,30,31
 440.6 234 440.6 234 473.8 247.2 c 132,-1,32
 507 260.4 507 260.4 528.6 283.6 c 5,33,-1
 528.6 187.6 l 5,0,1
661 362 m 0,34,35
 661 414 661 414 640 460 c 128,-1,36
 619 506 619 506 583 540.5 c 128,-1,37
 547 575 547 575 499.5 595 c 128,-1,38
 452 615 452 615 399 615 c 0,39,40
 344 615 344 615 295 595 c 128,-1,41
 246 575 246 575 209.5 541 c 128,-1,42
 173 507 173 507 152 461.5 c 128,-1,43
 131 416 131 416 131 365 c 0,44,45
 131 307 131 307 152.5 256 c 128,-1,46
 174 205 174 205 210.5 167 c 128,-1,47
 247 129 247 129 296 107 c 128,-1,48
 345 85 345 85 401 85 c 0,49,50
 454 85 454 85 501 107 c 128,-1,51
 548 129 548 129 583.5 167 c 128,-1,52
 619 205 619 205 640 255 c 128,-1,53
 661 305 661 305 661 362 c 0,34,35
761 365 m 0,54,55
 761 287 761 287 732 217.5 c 128,-1,56
 703 148 703 148 653.5 96.5 c 128,-1,57
 604 45 604 45 537.5 15 c 128,-1,58
 471 -15 471 -15 396 -15 c 128,-1,59
 321 -15 321 -15 254.5 15 c 128,-1,60
 188 45 188 45 138.5 96.5 c 128,-1,61
 89 148 89 148 60 217.5 c 128,-1,62
 31 287 31 287 31 365 c 0,63,64
 31 437 31 437 60 500.5 c 128,-1,65
 89 564 89 564 138.5 611.5 c 128,-1,66
 188 659 188 659 254.5 687 c 128,-1,67
 321 715 321 715 396 715 c 128,-1,68
 471 715 471 715 537.5 687 c 128,-1,69
 604 659 604 659 653.5 611.5 c 128,-1,70
 703 564 703 564 732 500.5 c 128,-1,71
 761 437 761 437 761 365 c 0,54,55
EndSplineSet
EndChar

StartChar: registered
Encoding: 174 174 92
Width: 790
Flags: MW
LayerCount: 2
Fore
SplineSet
541.5 409.2 m 5,0,1
 518.3 433.2 518.3 433.2 498.3 438 c 132,-1,2
 478.3 442.8 478.3 442.8 467.9 442.8 c 4,3,4
 455.1 442.8 455.1 442.8 442.7 440.8 c 132,-1,5
 430.3 438.8 430.3 438.8 418.3 432.8 c 132,-1,6
 406.3 426.8 406.3 426.8 395.9 415.2 c 132,-1,7
 385.5 403.6 385.5 403.6 376.7 384.4 c 5,8,-1
 376.7 146 l 5,9,-1
 297.5 146 l 5,10,-1
 297.5 526 l 5,11,-1
 377.5 526 l 5,12,-1
 377.5 494 l 5,13,14
 422.3 530 422.3 530 468.7 530 c 4,15,16
 489.5 530 489.5 530 507.5 524.8 c 132,-1,17
 525.5 519.6 525.5 519.6 541.5 510.8 c 5,18,-1
 541.5 409.2 l 5,0,1
661 362 m 0,19,20
 661 414 661 414 640 460 c 128,-1,21
 619 506 619 506 583 540.5 c 128,-1,22
 547 575 547 575 499.5 595 c 128,-1,23
 452 615 452 615 399 615 c 0,24,25
 344 615 344 615 295 595 c 128,-1,26
 246 575 246 575 209.5 541 c 128,-1,27
 173 507 173 507 152 461.5 c 128,-1,28
 131 416 131 416 131 365 c 0,29,30
 131 307 131 307 152.5 256 c 128,-1,31
 174 205 174 205 210.5 167 c 128,-1,32
 247 129 247 129 296 107 c 128,-1,33
 345 85 345 85 401 85 c 0,34,35
 454 85 454 85 501 107 c 128,-1,36
 548 129 548 129 583.5 167 c 128,-1,37
 619 205 619 205 640 255 c 128,-1,38
 661 305 661 305 661 362 c 0,19,20
761 365 m 0,39,40
 761 287 761 287 732 217.5 c 128,-1,41
 703 148 703 148 653.5 96.5 c 128,-1,42
 604 45 604 45 537.5 15 c 128,-1,43
 471 -15 471 -15 396 -15 c 128,-1,44
 321 -15 321 -15 254.5 15 c 128,-1,45
 188 45 188 45 138.5 96.5 c 128,-1,46
 89 148 89 148 60 217.5 c 128,-1,47
 31 287 31 287 31 365 c 0,48,49
 31 437 31 437 60 500.5 c 128,-1,50
 89 564 89 564 138.5 611.5 c 128,-1,51
 188 659 188 659 254.5 687 c 128,-1,52
 321 715 321 715 396 715 c 128,-1,53
 471 715 471 715 537.5 687 c 128,-1,54
 604 659 604 659 653.5 611.5 c 128,-1,55
 703 564 703 564 732 500.5 c 128,-1,56
 761 437 761 437 761 365 c 0,39,40
EndSplineSet
EndChar

StartChar: degree
Encoding: 176 176 93
Width: 357
Flags: MW
LayerCount: 2
Fore
SplineSet
332 533 m 128,-1,1
 332 470 332 470 287.5 425 c 128,-1,2
 243 380 243 380 180 380 c 0,3,4
 116 380 116 380 71.5 425 c 128,-1,5
 27 470 27 470 27 533 c 128,-1,6
 27 596 27 596 71.5 640.5 c 128,-1,7
 116 685 116 685 180 685 c 0,8,9
 243 685 243 685 287.5 640.5 c 128,-1,0
 332 596 332 596 332 533 c 128,-1,1
246 533 m 0,10,11
 246 560 246 560 226.5 579.5 c 128,-1,12
 207 599 207 599 180 599 c 0,13,14
 152 599 152 599 132.5 579.5 c 128,-1,15
 113 560 113 560 113 533 c 0,16,17
 113 505 113 505 132.5 486 c 128,-1,18
 152 467 152 467 180 467 c 0,19,20
 207 467 207 467 226.5 486 c 128,-1,21
 246 505 246 505 246 533 c 0,10,11
EndSplineSet
Validated: 1
EndChar

StartChar: AE
Encoding: 198 198 96
Width: 1018
Flags: MW
LayerCount: 2
Fore
SplineSet
555 -1 m 1,0,-1
 554.605 0 l 1,1,-1
 554 0 l 1,2,-1
 554 1.52941 l 1,3,-1
 554 171 l 1,4,-1
 255 171 l 1,5,-1
 141 -1 l 1,6,-1
 12 -1 l 1,7,-1
 486 700 l 1,8,-1
 974 700 l 1,9,-1
 974 600 l 1,10,-1
 654 600 l 1,11,-1
 654 425 l 1,12,-1
 897 425 l 1,13,-1
 897 325 l 1,14,-1
 654 325 l 1,15,-1
 654 102 l 1,16,-1
 994 102 l 1,17,-1
 994 0 l 1,18,-1
 555 -1 l 1,0,-1
551 270 m 1,19,-1
 552.2 599.9 l 1,20,-1
 314 270 l 1,21,-1
 551 270 l 1,19,-1
EndSplineSet
EndChar

StartChar: Ugrave
Encoding: 217 217 97
Width: 563
Flags: MW
LayerCount: 2
Fore
SplineSet
548 -3 m 1,0,-1
 433 -3 l 1,1,-1
 282 255 l 1,2,-1
 130 -3 l 1,3,-1
 15 -3 l 1,4,-1
 224 353 l 1,5,-1
 20 700 l 1,6,-1
 135 700 l 1,7,-1
 282 451 l 1,8,-1
 428 700 l 1,9,-1
 543 700 l 1,10,-1
 339 353 l 1,11,-1
 548 -3 l 1,0,-1
EndSplineSet
Validated: 1
EndChar

StartChar: arrowleft
Encoding: 8592 8592 101
Width: 1999
Flags: MW
LayerCount: 2
Fore
SplineSet
1999 161 m 1,0,-1
 1860 161 l 1,1,-1
 1733 297 l 1,2,-1
 1665 297 l 1,3,-1
 1793 161 l 1,4,-1
 1653 161 l 1,5,-1
 1527 297 l 1,6,-1
 1459 297 l 1,7,-1
 1587 161 l 1,8,-1
 1447 161 l 1,9,-1
 1321 297 l 1,10,-1
 509 297 l 1,11,-1
 635 161 l 1,12,-1
 0 348 l 1,13,-1
 633 536 l 1,14,-1
 509 397 l 1,15,-1
 1321 397 l 1,16,-1
 1447 533 l 1,17,-1
 1587 533 l 1,18,-1
 1459 397 l 1,19,-1
 1527 397 l 1,20,-1
 1653 533 l 1,21,-1
 1793 533 l 1,22,-1
 1665 397 l 1,23,-1
 1733 397 l 1,24,-1
 1860 533 l 1,25,-1
 1999 533 l 1,26,-1
 1872 397 l 1,27,-1
 1999 397 l 1,28,-1
 1999 297 l 1,29,-1
 1872 297 l 1,30,-1
 1999 161 l 1,0,-1
EndSplineSet
Validated: 1
EndChar

StartChar: arrowright
Encoding: 8594 8594 102
Width: 1997
Flags: MW
LayerCount: 2
Fore
SplineSet
1997 348 m 1,0,-1
 1362 161 l 1,1,-1
 1488 297 l 1,2,-1
 679 297 l 1,3,-1
 552 161 l 1,4,-1
 413 161 l 1,5,-1
 540 297 l 1,6,-1
 473 297 l 1,7,-1
 346 161 l 1,8,-1
 206 161 l 1,9,-1
 334 297 l 1,10,-1
 266 297 l 1,11,-1
 140 161 l 1,12,-1
 0 161 l 1,13,-1
 128 297 l 1,14,-1
 0 297 l 1,15,-1
 0 397 l 1,16,-1
 128 397 l 1,17,-1
 0 533 l 1,18,-1
 140 533 l 1,19,-1
 266 397 l 1,20,-1
 334 397 l 1,21,-1
 206 533 l 1,22,-1
 346 533 l 1,23,-1
 473 397 l 1,24,-1
 540 397 l 1,25,-1
 413 533 l 1,26,-1
 552 533 l 1,27,-1
 679 397 l 1,28,-1
 1488 397 l 1,29,-1
 1364 536 l 1,30,-1
 1997 348 l 1,0,-1
EndSplineSet
Validated: 1
EndChar

StartChar: at
Encoding: 64 64 103
Width: 797
Flags: MW
LayerCount: 2
Fore
SplineSet
723.205 520.178 m 4,0,1
 734.959 498.014 734.959 498.014 742.801 475.606 c 132,-1,2
 750.644 453.2 750.644 453.2 754.571 430.538 c 132,-1,3
 758.5 407.877 758.5 407.877 758.5 385 c 4,4,5
 758.5 255.5 758.5 255.5 668.488 187.991 c 4,6,7
 626.955 157.601 626.955 157.601 582.813 152.02 c 4,8,9
 560.913 149.228 560.913 149.228 542.559 150.629 c 132,-1,10
 524.204 152.031 524.204 152.031 509.6 157.668 c 4,11,12
 500.462 161.194 500.462 161.194 492.897 165.422 c 132,-1,13
 485.333 169.649 485.333 169.649 479.479 174.45 c 132,-1,14
 473.625 179.252 473.625 179.252 469.344 184.676 c 5,15,16
 464.431 181.626 464.431 181.626 460.588 178.914 c 132,-1,17
 456.746 176.201 456.746 176.201 453.672 173.632 c 132,-1,18
 450.599 171.062 450.599 171.062 447.768 168.232 c 4,19,-1
 447.208 167.812 l 5,20,21
 439.839 163.746 439.839 163.746 432.055 160.505 c 132,-1,22
 424.27 157.265 424.27 157.265 416.08 154.853 c 132,-1,23
 407.891 152.441 407.891 152.441 399.299 150.855 c 132,-1,24
 390.706 149.269 390.706 149.269 381.711 148.509 c 4,25,26
 345.636 145.46 345.636 145.46 314.098 157.669 c 4,27,-1
 313.709 157.859 l 5,28,29
 249.512 196.581 249.512 196.581 249 256.479 c 132,-1,30
 248.488 316.376 248.488 316.376 304.672 351.618 c 4,31,32
 359.389 385.94 359.389 385.94 461.699 392.367 c 5,33,34
 462.917 407.183 462.917 407.183 461.426 417.219 c 132,-1,35
 459.935 427.255 459.935 427.255 456 432.5 c 4,36,-1
 455.935 432.592 l 6,37,38
 441.457 453.825 441.457 453.825 414.354 461.085 c 4,39,40
 386.999 468.412 386.999 468.412 365.145 462.584 c 4,41,42
 342.91 456.655 342.91 456.655 270.154 418.782 c 6,43,-1
 264.829 416.011 l 5,44,-1
 266.613 421.742 l 6,45,46
 280.672 466.933 280.672 466.933 300.775 506.141 c 6,47,-1
 301.172 506.913 l 5,48,-1
 301.962 507.274 l 6,49,50
 317.453 514.347 317.453 514.347 333.46 519.063 c 132,-1,51
 349.467 523.781 349.467 523.781 365.98 526.141 c 132,-1,52
 382.493 528.5 382.493 528.5 399.5 528.5 c 132,-1,53
 416.567 528.5 416.567 528.5 432.702 525.339 c 132,-1,54
 448.837 522.178 448.837 522.178 464.015 515.86 c 132,-1,55
 479.191 509.544 479.191 509.544 493.387 500.08 c 4,56,-1
 493.583 499.935 l 6,57,58
 502.4 492.721 502.4 492.721 509.518 484.932 c 132,-1,59
 516.635 477.143 516.635 477.143 522.049 468.774 c 132,-1,60
 527.462 460.407 527.462 460.407 531.154 451.485 c 132,-1,61
 534.846 442.564 534.846 442.564 536.812 433.072 c 132,-1,62
 538.776 423.58 538.776 423.58 538.999 413.556 c 4,63,64
 539.251 402.226 539.251 402.226 538.748 389.904 c 132,-1,65
 538.245 377.583 538.245 377.583 536.989 364.266 c 4,66,67
 534.51 337.986 534.51 337.986 535.491 326.208 c 6,68,-1
 535.525 325.795 l 5,69,-1
 535.426 325.394 l 6,70,71
 535.106 324.119 535.106 324.119 534.82 322.313 c 132,-1,72
 534.533 320.509 534.533 320.509 534.279 318.149 c 132,-1,73
 534.025 315.79 534.025 315.79 533.812 312.945 c 132,-1,74
 533.599 310.101 533.599 310.101 533.426 306.693 c 132,-1,75
 533.253 303.286 533.253 303.286 533.128 299.438 c 4,76,77
 532.817 289.802 532.817 289.802 533.155 282.151 c 132,-1,78
 533.494 274.501 533.494 274.501 534.463 268.929 c 4,79,80
 537.108 253.716 537.108 253.716 542.758 246.608 c 132,-1,81
 548.407 239.5 548.407 239.5 557.056 239.5 c 4,82,83
 601.044 237.545 601.044 237.545 634.272 269.308 c 132,-1,84
 667.63 301.192 667.63 301.192 674.02 352.311 c 4,85,86
 677.21 377.834 677.21 377.834 670.174 406.724 c 132,-1,87
 663.138 435.613 663.138 435.613 645.819 467.776 c 5,88,89
 601.238 544.06 601.238 544.06 517.452 582.73 c 132,-1,90
 433.714 621.379 433.714 621.379 352.033 603.558 c 132,-1,91
 270.225 585.708 270.225 585.708 215.734 533.2 c 132,-1,92
 161.219 480.666 161.219 480.666 140.404 407.813 c 4,93,94
 135.208 389.627 135.208 389.627 133.011 371.207 c 132,-1,95
 130.814 352.787 130.814 352.787 131.617 334.107 c 132,-1,96
 132.421 315.429 132.421 315.429 136.229 296.488 c 132,-1,97
 140.039 277.548 140.039 277.548 146.856 258.336 c 4,98,99
 174.133 181.465 174.133 181.465 225.625 137.399 c 132,-1,100
 277.186 93.2754 277.186 93.2754 336.625 77.9209 c 4,101,102
 366.453 70.2148 366.453 70.2148 393.886 67.1113 c 132,-1,103
 421.319 64.0088 421.319 64.0088 446.352 65.4951 c 4,104,105
 496.656 68.4844 496.656 68.4844 560.466 82.4424 c 6,106,-1
 565.575 83.5596 l 5,107,-1
 563.236 78.8818 l 6,108,109
 561.292 74.9941 561.292 74.9941 556.019 62.6914 c 132,-1,110
 550.746 50.3896 550.746 50.3896 542.31 30.042 c 4,111,112
 538.995 22.0488 538.995 22.0488 536.173 15.165 c 132,-1,113
 533.351 8.28125 533.351 8.28125 531.278 3.14746 c 132,-1,114
 529.207 -1.9873 529.207 -1.9873 527.706 -5.79688 c 132,-1,115
 526.205 -9.60645 526.205 -9.60645 525.396 -11.7861 c 132,-1,116
 524.586 -13.9648 524.586 -13.9648 524.426 -14.6064 c 6,117,-1
 524.068 -16.0342 l 5,118,-1
 522.647 -16.415 l 6,119,120
 424.983 -42.5928 424.983 -42.5928 314.322 -11.4062 c 132,-1,121
 203.661 19.7803 203.661 19.7803 136.688 90.2783 c 132,-1,122
 69.7217 160.769 69.7217 160.769 47.5664 254.928 c 132,-1,123
 25.415 349.073 25.415 349.073 53.1025 442.709 c 132,-1,124
 80.79 536.342 80.79 536.342 150.765 603.8 c 132,-1,125
 220.743 671.261 220.743 671.261 320.394 696.426 c 4,126,127
 340.529 701.459 340.529 701.459 360.458 704.033 c 132,-1,128
 380.386 706.608 380.386 706.608 400.098 706.721 c 132,-1,129
 419.81 706.834 419.81 706.834 439.291 704.483 c 4,130,131
 478.691 699.859 478.691 699.859 513.708 689.708 c 132,-1,132
 548.726 679.557 548.726 679.557 579.342 663.879 c 132,-1,133
 609.958 648.2 609.958 648.2 636.154 627.011 c 132,-1,134
 662.35 605.82 662.35 605.82 684.121 579.104 c 132,-1,135
 705.892 552.389 705.892 552.389 723.205 520.178 c 4,0,1
344.472 231.027 m 4,136,137
 367 216.69 367 216.69 384.789 219.984 c 4,138,139
 394.105 221.71 394.105 221.71 401.012 223.196 c 132,-1,140
 407.918 224.683 407.918 224.683 412.331 225.909 c 4,141,142
 421.225 228.379 421.225 228.379 437.122 234.341 c 4,143,144
 443.805 236.847 443.805 236.847 449.22 238.823 c 132,-1,145
 454.636 240.8 454.636 240.8 457.5 241.791 c 5,146,-1
 457.5 328.932 l 5,147,148
 451.76 327.84 451.76 327.84 444.251 326.699 c 132,-1,149
 436.742 325.559 436.742 325.559 425.334 324.022 c 4,150,151
 415.453 322.692 415.453 322.692 406.615 320.99 c 132,-1,152
 397.777 319.288 397.777 319.288 390.067 317.239 c 132,-1,153
 382.358 315.189 382.358 315.189 375.707 312.785 c 132,-1,154
 369.056 310.38 369.056 310.38 363.517 307.646 c 132,-1,155
 357.978 304.911 357.978 304.911 353.514 301.838 c 4,156,157
 342.415 294.199 342.415 294.199 336.437 283.504 c 132,-1,158
 330.458 272.81 330.458 272.81 329.495 258.844 c 4,159,160
 329.19 253.976 329.19 253.976 330.665 249.353 c 132,-1,161
 332.139 244.73 332.139 244.73 335.582 240.121 c 132,-1,162
 339.025 235.512 339.025 235.512 344.472 231.027 c 4,136,137
EndSplineSet
EndChar

StartChar: paragraph
Encoding: 182 182 104
Width: 579
Flags: HMW
LayerCount: 2
Fore
SplineSet
509 607 m 1,0,-1
 453 607 l 1,1,-1
 453 -60 l 5,2,-1
 379 -60 l 5,3,-1
 379 607 l 1,4,-1
 306 607 l 1,5,-1
 306 -60 l 5,6,-1
 233 -60 l 5,7,-1
 233 313 l 1,8,-1
 216 313 l 2,9,10
 135.696 313 135.696 313 83.8478 361.673 c 128,-1,11
 32 410.347 32 410.347 32 494.5 c 0,12,13
 32 539 32 539 55 579.5 c 128,-1,14
 78 620 78 620 122.5 643.5 c 128,-1,15
 167 667 167 667 248 667 c 2,16,-1
 509 667 l 1,17,-1
 509 607 l 1,0,-1
EndSplineSet
EndChar

StartChar: NameMe.65555
Encoding: 65555 -1 105
Width: 790
Flags: HMW
LayerCount: 2
Fore
SplineSet
570 687 m 2,0,1
 570 654 570 654 556.5 624.5 c 128,-1,2
 543 595 543 595 518.5 573.5 c 128,-1,3
 494 552 494 552 461 538.5 c 128,-1,4
 428 525 428 525 389 523 c 1,5,6
 390 534 390 534 390.5 542 c 128,-1,7
 391 550 391 550 393 557 c 0,8,9
 396 577 396 577 406.5 598 c 128,-1,10
 417 619 417 619 432 635 c 0,11,12
 453 659 453 659 483 674 c 0,13,14
 502 684 502 684 519.5 688.5 c 128,-1,15
 537 693 537 693 570 698 c 1,16,-1
 570 687 l 2,0,1
733 170 m 1,17,18
 717 139 717 139 704.5 117 c 128,-1,19
 692 95 692 95 680 78 c 128,-1,20
 668 61 668 61 656 47 c 128,-1,21
 644 33 644 33 628 18 c 0,22,23
 581 -27 581 -27 535 -27 c 0,24,25
 521 -27 521 -27 506 -23 c 128,-1,26
 491 -19 491 -19 470 -10 c 0,27,28
 461 -6 461 -6 454.5 -3.5 c 128,-1,29
 448 -1 448 -1 441.5 0 c 128,-1,30
 435 1 435 1 427 1.5 c 128,-1,31
 419 2 419 2 407 2 c 0,32,33
 389 2 389 2 378.5 0.5 c 128,-1,34
 368 -1 368 -1 359 -5 c 2,35,-1
 348 -10 l 2,36,37
 309 -27 309 -27 282 -27 c 0,38,39
 256 -27 256 -27 228.5 -13 c 128,-1,40
 201 1 201 1 177 27 c 0,41,42
 121 86 121 86 88.5 163 c 128,-1,43
 56 240 56 240 56 315 c 0,44,45
 56 359 56 359 72.5 398.5 c 128,-1,46
 89 438 89 438 117 468 c 128,-1,47
 145 498 145 498 182.5 515.5 c 128,-1,48
 220 533 220 533 262 533 c 0,49,50
 274 533 274 533 285 531.5 c 128,-1,51
 296 530 296 530 309 527 c 0,52,53
 323 524 323 524 331 520 c 1,54,55
 335 520 335 520 353 513 c 0,56,57
 389 501 389 501 404 501 c 0,58,59
 412 501 412 501 421 503.5 c 128,-1,60
 430 506 430 506 445 511 c 0,61,62
 464 518 464 518 477 522.5 c 128,-1,63
 490 527 490 527 500 529 c 128,-1,64
 510 531 510 531 519 532 c 128,-1,65
 528 533 528 533 540 533 c 0,66,67
 569 533 569 533 595 527.5 c 128,-1,68
 621 522 621 522 644 512 c 0,69,70
 664 503 664 503 678 493 c 128,-1,71
 692 483 692 483 714 461 c 1,72,73
 685 438 685 438 671 423 c 128,-1,74
 657 408 657 408 647 388 c 0,75,76
 633 358 633 358 633 322 c 0,77,78
 633 253 633 253 678 207 c 0,79,80
 689 196 689 196 700 188.5 c 128,-1,81
 711 181 711 181 733 170 c 1,17,18
EndSplineSet
EndChar

StartChar: dollar
Encoding: 36 36 106
Width: 440
Flags: MW
LayerCount: 2
Fore
SplineSet
160 602 m 1,0,-1
 160 715 l 6,1,2
 160 719 160 719 164 719 c 6,3,-1
 251 719 l 6,4,5
 255 719 255 719 255 716 c 6,6,-1
 255 601 l 1,7,8
 348.016 588.5 348.016 588.5 372 562 c 1,9,-1
 372 447 l 1,10,11
 307.786 509 307.786 509 209 509 c 0,12,13
 180 509 180 509 159.5 500 c 128,-1,14
 139 491 139 491 139 465 c 128,-1,15
 139 439 139 439 159.5 427 c 128,-1,16
 180 415 180 415 211 407.5 c 128,-1,17
 242 400 242 400 277.5 392.5 c 128,-1,18
 313 385 313 385 344 370 c 0,19,20
 416 335.161 416 335.161 416 258 c 0,21,22
 416 218.333 416 218.333 383.625 177.4 c 0,23,24
 344 127.3 344 127.3 259 99 c 1,25,-1
 259 5 l 2,26,27
 259 1 259 1 255 1 c 2,28,-1
 168 1 l 2,29,30
 165.029 1 165.029 1 165 4 c 2,31,-1
 164 106 l 1,32,33
 98 125.3 98 125.3 36 163 c 1,34,-1
 36 298 l 1,35,36
 60 250 60 250 106 223 c 128,-1,37
 152 196 152 196 209 196 c 0,38,39
 249.728 196 249.728 196 269.363 202 c 0,40,41
 317 216.556 317 216.556 317 254 c 0,42,43
 317 275 317 275 296.396 285.553 c 128,-1,44
 275.794 296.106 275.794 296.106 245 303 c 2,45,-1
 178 318 l 2,46,47
 95.8142 336.4 95.8142 336.4 59.5 386 c 0,48,49
 39 414 39 414 39 453.5 c 128,-1,50
 39 493 39 493 52.5 519.5 c 128,-1,51
 66 546 66 546 97.5 568.25 c 128,-1,52
 129 590.5 129 590.5 160 602 c 1,0,-1
EndSplineSet
Validated: 1
EndChar

StartChar: percent
Encoding: 37 37 107
Width: 720
Flags: HMW
LayerCount: 2
Fore
SplineSet
327 532 m 0,0,1
 327 502 327 502 315.5 475 c 128,-1,2
 304 448 304 448 284.5 428 c 128,-1,3
 265 408 265 408 238 396.5 c 128,-1,4
 211 385 211 385 181 385 c 256,5,6
 151 385 151 385 124 396.5 c 128,-1,7
 97 408 97 408 77 428 c 128,-1,8
 57 448 57 448 45.5 475 c 128,-1,9
 34 502 34 502 34 532 c 256,10,11
 34 562 34 562 45.5 589 c 128,-1,12
 57 616 57 616 77 635.5 c 128,-1,13
 97 655 97 655 123.5 666.5 c 128,-1,14
 150 678 150 678 181 678 c 256,15,16
 212 678 212 678 238.5 666.5 c 128,-1,17
 265 655 265 655 284.5 635.5 c 128,-1,18
 304 616 304 616 315.5 589.5 c 128,-1,19
 327 563 327 563 327 532 c 0,0,1
569 667 m 1,20,-1
 235 0 l 1,21,-1
 139 0 l 1,22,-1
 475 667 l 1,23,-1
 569 667 l 1,20,-1
681 134 m 0,24,25
 681 104 681 104 669.5 77 c 128,-1,26
 658 50 658 50 638 30.5 c 128,-1,27
 618 11 618 11 591 -0.5 c 128,-1,28
 564 -12 564 -12 534 -12 c 0,29,30
 503 -12 503 -12 476 -0.5 c 128,-1,31
 449 11 449 11 428.5 31 c 128,-1,32
 408 51 408 51 396.5 78 c 128,-1,33
 385 105 385 105 385 136 c 256,34,35
 385 167 385 167 396.5 194 c 128,-1,36
 408 221 408 221 428 241 c 128,-1,37
 448 261 448 261 474.5 272.5 c 128,-1,38
 501 284 501 284 532 284 c 0,39,40
 562 284 562 284 589.5 272 c 128,-1,41
 617 260 617 260 637 239.5 c 128,-1,42
 657 219 657 219 669 192 c 128,-1,43
 681 165 681 165 681 134 c 0,24,25
250 534 m 256,44,45
 250 563 250 563 230 582 c 128,-1,46
 210 601 210 601 179 601 c 0,47,48
 150 601 150 601 130 581.5 c 128,-1,49
 110 562 110 562 110 533 c 256,50,51
 110 504 110 504 130.5 484 c 128,-1,52
 151 464 151 464 181 464 c 0,53,54
 210 464 210 464 230 484.5 c 128,-1,55
 250 505 250 505 250 534 c 256,44,45
603 135 m 2,56,57
 603 140 l 2,58,59
 603 167 603 167 581.5 186 c 128,-1,60
 560 205 560 205 533 205 c 0,61,62
 504 205 504 205 483.5 184.5 c 128,-1,63
 463 164 463 164 463 135 c 256,64,65
 463 106 463 106 484 85.5 c 128,-1,66
 505 65 505 65 534 65 c 256,67,68
 563 65 563 65 583 85.5 c 128,-1,69
 603 106 603 106 603 135 c 2,56,57
EndSplineSet
EndChar

StartChar: numbersign
Encoding: 35 35 108
Width: 720
Flags: HMW
LayerCount: 2
Fore
SplineSet
581 443 m 1,0,-1
 581 443 l 1,1,-1
 570 396 l 1,2,-1
 437 396 l 1,3,-1
 403 273 l 1,4,-1
 538 273 l 1,5,-1
 525 229 l 1,6,-1
 392 229 l 1,7,-1
 354 87 l 1,8,-1
 307 87 l 1,9,-1
 344 229 l 1,10,-1
 216 229 l 1,11,-1
 178 87 l 1,12,-1
 129 87 l 1,13,-1
 168 229 l 1,14,-1
 33 229 l 1,15,-1
 45 273 l 1,16,-1
 180 273 l 1,17,-1
 213 396 l 1,18,-1
 77 396 l 1,19,-1
 89 443 l 1,20,-1
 226 443 l 1,21,-1
 263 580 l 1,22,-1
 310 580 l 1,23,-1
 273 443 l 1,24,-1
 401 443 l 1,25,-1
 438 580 l 1,26,-1
 487 580 l 1,27,-1
 449 443 l 1,28,-1
 581 443 l 1,0,-1
389 396 m 1,29,-1
 389 396 l 1,30,-1
 261 396 l 1,31,-1
 228 273 l 1,32,-1
 357 273 l 1,33,-1
 389 396 l 1,29,-1
EndSplineSet
EndChar

StartChar: equal
Encoding: 61 61 109
Width: 524
Flags: HMW
LayerCount: 2
Fore
SplineSet
485 315 m 1,0,-1
 485 315 l 1,1,-1
 39 315 l 1,2,-1
 39 398 l 1,3,-1
 485 398 l 1,4,-1
 485 315 l 1,0,-1
485 81 m 1,5,-1
 485 81 l 1,6,-1
 39 81 l 1,7,-1
 39 164 l 1,8,-1
 485 164 l 1,9,-1
 485 81 l 1,5,-1
EndSplineSet
EndChar

StartChar: backslash
Encoding: 92 92 110
Width: 299
Flags: HMW
LayerCount: 2
Fore
SplineSet
-1 828 m 1,0,-1
 102 828 l 1,1,-1
 305 -148 l 1,2,-1
 195 -148 l 1,3,-1
 -1 828 l 1,0,-1
EndSplineSet
EndChar

StartChar: f_i
Encoding: 64257 64257 112
Width: 366
Flags: MW
LayerCount: 2
Fore
SplineSet
350 603 m 1,0,1
 322 619 322 619 298.5 621.5 c 128,-1,2
 275 624 275 624 252 624 c 0,3,4
 224 624 224 624 206 597 c 128,-1,5
 188 570 188 570 188 532 c 2,6,-1
 188 459 l 1,7,-1
 346 461 l 1,8,-1
 346 459 l 1,9,-1
 346 358 l 1,10,-1
 346 0 l 1,11,-1
 247 0 l 1,12,-1
 247.4 357.8 l 1,13,-1
 188 358 l 1,14,-1
 188 1 l 1,15,-1
 88 1 l 1,16,-1
 88 359 l 1,17,-1
 8 359 l 1,18,-1
 8 458 l 1,19,-1
 88 458 l 1,20,-1
 88 552 l 2,21,22
 88 587 88 587 101 618 c 128,-1,23
 114 649 114 649 136 672 c 128,-1,24
 158 695 158 695 187.5 708.5 c 128,-1,25
 217 722 217 722 251 722 c 0,26,27
 274 722 274 722 301 716 c 128,-1,28
 328 710 328 710 350 702 c 1,29,-1
 350 603 l 1,0,1
EndSplineSet
Validated: 1
EndChar

StartChar: f_l
Encoding: 64258 64258 113
Width: 641
Flags: MW
LayerCount: 2
Fore
SplineSet
625 25 m 1,0,1
 602 9 602 9 572 -0.5 c 128,-1,2
 542 -10 542 -10 516 -10 c 0,3,4
 480 -10 480 -10 449 2 c 128,-1,5
 418 14 418 14 395 35.5 c 128,-1,6
 372 57 372 57 359 86 c 128,-1,7
 346 115 346 115 346 149 c 2,8,-1
 346 358 l 1,9,-1
 188 358 l 1,10,-1
 188 2 l 1,11,-1
 88 2 l 1,12,-1
 88 359 l 1,13,-1
 8 359 l 1,14,-1
 8 458 l 1,15,-1
 88 458 l 1,16,-1
 88 552 l 2,17,18
 88 587 88 587 101 618 c 128,-1,19
 114 649 114 649 136 672 c 128,-1,20
 158 695 158 695 187.5 708.5 c 128,-1,21
 217 722 217 722 251 722 c 0,22,23
 274 722 274 722 301 716 c 128,-1,24
 328 710 328 710 350 702 c 1,25,-1
 350 699 l 1,26,-1
 446 699 l 1,27,-1
 446 179 l 2,28,29
 446 140 446 140 466 115 c 128,-1,30
 486 90 486 90 516 90 c 0,31,32
 542 90 542 90 572 99.5 c 128,-1,33
 602 109 602 109 625 126 c 1,34,-1
 625 25 l 1,0,1
346 605.229 m 1,35,36
 320.312 619.18 320.312 619.18 298.5 621.5 c 0,37,38
 275 624 275 624 252 624 c 0,39,40
 224 624 224 624 206 597 c 128,-1,41
 188 570 188 570 188 532 c 2,42,-1
 188 459 l 1,43,-1
 346 459 l 1,44,-1
 346 605.229 l 1,35,36
EndSplineSet
Validated: 1
EndChar

StartChar: udieresis
Encoding: 252 252 118
Width: 525
Flags: MW
LayerCount: 2
Fore
SplineSet
417 598 m 5,0,-1
 347 528 l 5,1,-1
 277 598 l 5,2,-1
 347 669 l 5,3,-1
 417 598 l 5,0,-1
244 598 m 5,4,-1
 174 528 l 5,5,-1
 104 598 l 5,6,-1
 174 669 l 5,7,-1
 244 598 l 5,4,-1
476 0 m 1,8,-1
 376 0 l 1,9,-1
 376 30 l 1,10,11
 318 -10 318 -10 249 -10 c 0,12,13
 218 -10 218 -10 182 0 c 128,-1,14
 146 10 146 10 114.5 34 c 128,-1,15
 83 58 83 58 62 97.5 c 128,-1,16
 41 137 41 137 41 195 c 2,17,-1
 41 475 l 1,18,-1
 141 475 l 1,19,-1
 141 213 l 2,20,21
 141 188 141 188 149.5 166.5 c 128,-1,22
 158 145 158 145 173 129 c 128,-1,23
 188 113 188 113 207.5 104 c 128,-1,24
 227 95 227 95 249 95 c 0,25,26
 285 95 285 95 317.5 103.5 c 128,-1,27
 350 112 350 112 376 130 c 1,28,-1
 376 475 l 1,29,-1
 476 475 l 1,30,-1
 476 0 l 1,8,-1
EndSplineSet
Validated: 1
EndChar

StartChar: questiondown
Encoding: 191 191 119
Width: 450
Flags: MW
LayerCount: 2
Fore
SplineSet
165.286 645 m 1,0,-1
 235.286 715 l 1,1,-1
 305.286 645 l 1,2,-1
 235.286 574 l 1,3,-1
 165.286 645 l 1,0,-1
31.2861 164 m 0,4,5
 29.2861 206 29.2861 206 41.2861 236 c 128,-1,6
 53.2861 266 53.2861 266 72.2861 287.5 c 128,-1,7
 91.2861 309 91.2861 309 114.286 324.5 c 2,8,-1
 157.286 353.5 l 2,9,10
 177.286 367 177.286 367 191.286 381 c 128,-1,11
 205.286 395 205.286 395 206.286 414 c 0,12,13
 206.286 428 206.286 428 202.286 438 c 128,-1,14
 198.286 448 198.286 448 191.286 456 c 128,-1,15
 184.286 464 184.286 464 176.786 471 c 2,16,-1
 161.286 486 l 1,17,-1
 234.286 555 l 1,18,19
 245.286 541 245.286 541 257.786 528.5 c 128,-1,20
 270.286 516 270.286 516 282.286 501 c 128,-1,21
 294.286 486 294.286 486 302.786 467 c 128,-1,22
 311.286 448 311.286 448 312.286 421 c 0,23,24
 313.286 393 313.286 393 299.286 369.5 c 128,-1,25
 285.286 346 285.286 346 264.786 325.5 c 128,-1,26
 244.286 305 244.286 305 220.286 286.5 c 128,-1,27
 196.286 268 196.286 268 175.786 249.5 c 128,-1,28
 155.286 231 155.286 231 142.286 212 c 128,-1,29
 129.286 193 129.286 193 131.286 170 c 0,30,31
 131.286 136 131.286 136 158.286 112.5 c 128,-1,32
 185.286 89 185.286 89 226.286 89 c 0,33,34
 263.286 89 263.286 89 293.786 108 c 128,-1,35
 324.286 127 324.286 127 336.286 173 c 1,36,-1
 420.286 120 l 1,37,38
 413.286 98 413.286 98 397.286 75 c 128,-1,39
 381.286 52 381.286 52 355.786 33 c 128,-1,40
 330.286 14 330.286 14 295.786 1.5 c 128,-1,41
 261.286 -11 261.286 -11 219.286 -11 c 0,42,43
 179.286 -11 179.286 -11 145.286 2 c 128,-1,44
 111.286 15 111.286 15 86.7861 38 c 128,-1,45
 62.2861 61 62.2861 61 47.7861 93 c 128,-1,46
 33.2861 125 33.2861 125 31.2861 164 c 0,4,5
EndSplineSet
Validated: 33
EndChar

StartChar: circumflex
Encoding: 710 710 120
Width: 394
Flags: MW
LayerCount: 2
Fore
SplineSet
197 666 m 1,0,-1
 360 490 l 1,1,-1
 259 489 l 1,2,-1
 197 557 l 1,3,-1
 134 489 l 1,4,-1
 34 489 l 1,5,-1
 197 666 l 1,0,-1
EndSplineSet
Validated: 1
EndChar

StartChar: caron
Encoding: 711 711 121
Width: 394
Flags: MW
LayerCount: 2
Fore
SplineSet
204 492 m 1,0,1
 202 488 202 488 195 488 c 1,2,-1
 192 492 l 1,3,-1
 34 662 l 1,4,-1
 135 662 l 1,5,-1
 197 595 l 1,6,-1
 260 662 l 1,7,-1
 361 662 l 1,8,-1
 204 492 l 1,0,1
EndSplineSet
Validated: 1
EndChar

StartChar: breve
Encoding: 728 728 122
Width: 344
Flags: HMW
LayerCount: 2
Fore
SplineSet
172 471 m 128,-1,1
 109 471 109 471 64.5 515.5 c 128,-1,2
 20 560 20 560 20 623 c 1,3,-1
 106 623 l 1,4,5
 106 596 106 596 125 576.5 c 128,-1,6
 144 557 144 557 172 557 c 0,7,8
 199 557 199 557 218.5 576.5 c 128,-1,9
 238 596 238 596 238 623 c 1,10,-1
 324 623 l 1,11,12
 324 560 324 560 279.5 515.5 c 128,-1,0
 235 471 235 471 172 471 c 128,-1,1
EndSplineSet
EndChar

StartChar: dotaccent
Encoding: 729 729 123
Width: 163
Flags: MW
LayerCount: 2
Fore
SplineSet
143 536 m 1,0,1
 134 528 134 528 124 518 c 128,-1,2
 114 508 114 508 102 495.5 c 128,-1,3
 90 483 90 483 83 476 c 1,4,-1
 78 476 l 1,5,6
 24 531 24 531 21 534 c 1,7,-1
 20 538 l 1,8,-1
 80 598 l 2,9,10
 83 602 83 602 85 598 c 1,11,-1
 142 540 l 1,12,-1
 143 536 l 1,0,1
EndSplineSet
Validated: 1
EndChar

StartChar: ring
Encoding: 730 730 124
Width: 217
Flags: MW
LayerCount: 2
Fore
SplineSet
197 575 m 0,0,1
 197 538 197 538 171 512 c 128,-1,2
 145 486 145 486 108 486 c 0,3,4
 72 486 72 486 46 512 c 128,-1,5
 20 538 20 538 20 575 c 0,6,7
 20 611 20 611 46 637 c 128,-1,8
 72 663 72 663 108 663 c 0,9,10
 145 663 145 663 171 637 c 128,-1,11
 197 611 197 611 197 575 c 0,0,1
147 575 m 128,-1,13
 147 591 147 591 135.5 602 c 128,-1,14
 124 613 124 613 108 613 c 128,-1,15
 92 613 92 613 81 602 c 128,-1,16
 70 591 70 591 70 575 c 128,-1,17
 70 559 70 559 81 547.5 c 128,-1,18
 92 536 92 536 108 536 c 128,-1,19
 124 536 124 536 135.5 547.5 c 128,-1,12
 147 559 147 559 147 575 c 128,-1,13
EndSplineSet
Validated: 1
EndChar

StartChar: ogonek
Encoding: 731 731 125
Width: 230
Flags: HMW
LayerCount: 2
Fore
SplineSet
20 -61 m 2,0,1
 20 2 l 1,2,-1
 114 4 l 1,3,-1
 114 -19 l 2,4,5
 114 -42 114 -42 122.5 -68 c 128,-1,6
 131 -94 131 -94 147 -99 c 1,7,8
 159 -101 159 -101 168 -100 c 128,-1,9
 177 -99 177 -99 191 -96 c 128,-1,10
 205 -93 205 -93 210 -93 c 1,11,-1
 210 -176 l 2,12,13
 210 -179 210 -179 204 -180 c 0,14,15
 154 -190 154 -190 111 -173 c 1,16,17
 70 -158 70 -158 45 -129 c 128,-1,18
 20 -100 20 -100 20 -61 c 2,0,1
EndSplineSet
EndChar

StartChar: tilde
Encoding: 732 732 126
Width: 401
Flags: MW
LayerCount: 2
Fore
SplineSet
381 596 m 1,0,1
 361 548 361 548 324 519 c 0,2,3
 275 480 275 480 195 505 c 0,4,5
 194 505 194 505 176 512.5 c 128,-1,6
 158 520 158 520 154 522 c 0,7,8
 113 536 113 536 83.5 536 c 128,-1,9
 54 536 54 536 27 513 c 1,10,11
 23 508 23 508 20 512 c 1,12,13
 37 558 37 558 76 589 c 0,14,15
 122 625 122 625 197 605 c 0,16,17
 204 603 204 603 214 599 c 128,-1,18
 224 595 224 595 234.5 591 c 128,-1,19
 245 587 245 587 247 586 c 0,20,21
 328 557 328 557 373 596 c 0,22,23
 377 599 377 599 378 598.5 c 128,-1,24
 379 598 379 598 380 597 c 2,25,-1
 381 596 l 1,0,1
EndSplineSet
Validated: 33
EndChar

StartChar: hungarumlaut
Encoding: 733 733 127
Width: 293
Flags: MW
LayerCount: 2
Fore
SplineSet
135 594 m 1,0,-1
 82 473 l 1,1,-1
 77 471 l 1,2,-1
 12 471 l 1,3,-1
 10 479 l 1,4,-1
 66 597 l 1,5,-1
 134 597 l 1,6,-1
 135 594 l 1,0,-1
283 594 m 1,7,-1
 229 473 l 1,8,-1
 225 471 l 1,9,-1
 159 471 l 1,10,-1
 158 479 l 1,11,-1
 213 597 l 1,12,-1
 281 597 l 1,13,-1
 283 594 l 1,7,-1
EndSplineSet
Validated: 1
EndChar

StartChar: divide
Encoding: 247 247 128
Width: 387
Flags: HMW
LayerCount: 2
Fore
SplineSet
267 487 m 1,0,-1
 197 417 l 1,1,-1
 127 487 l 1,2,-1
 197 558 l 1,3,-1
 267 487 l 1,0,-1
265 189 m 1,4,-1
 195 119 l 1,5,-1
 125 189 l 1,6,-1
 195 260 l 1,7,-1
 265 189 l 1,4,-1
349 392 m 1,8,-1
 349 282 l 1,9,-1
 38 282 l 1,10,-1
 38 392 l 1,11,-1
 349 392 l 1,8,-1
EndSplineSet
EndChar

StartChar: mu
Encoding: 956 956 129
Width: 501
Flags: MW
LayerCount: 2
Fore
SplineSet
243 -11 m 1,0,1
 182.625 -13.5692 182.625 -13.5692 133 14 c 1,2,-1
 133 -108 l 2,3,4
 133 -112 133 -112 130 -112 c 2,5,-1
 44 -112 l 2,6,7
 40 -112 40 -112 40 -108 c 2,8,-1
 40 442 l 1,9,-1
 131 442 l 1,10,-1
 131 441 l 1,11,12
 136 441 136 441 135 438 c 1,13,-1
 135 156 l 1,14,15
 142 127 142 127 167.5 106 c 128,-1,16
 193 85 193 85 229 79 c 128,-1,17
 265 73 265 73 300 85 c 1,18,19
 354 107 354 107 366 156 c 1,20,-1
 366 438 l 1,21,-1
 370 442 l 1,22,-1
 458 442 l 1,23,-1
 459 441 l 1,24,-1
 461 441 l 1,25,-1
 461 2 l 1,26,-1
 457 -1 l 1,27,28
 413 -1 413 -1 369 -1 c 1,29,30
 368 0 368 0 368 2 c 2,31,-1
 368 17 l 1,32,33
 330 -17 330 -17 243 -11 c 1,0,1
EndSplineSet
Validated: 33
EndChar

StartChar: dotlessi
Encoding: 305 305 130
Width: 200
Flags: MW
LayerCount: 2
Fore
SplineSet
150 0 m 1,0,-1
 51 0 l 1,1,-1
 51 474 l 1,2,-1
 150 474 l 1,3,-1
 150 0 l 1,0,-1
EndSplineSet
Validated: 1
EndChar

StartChar: Ydieresis
Encoding: 376 376 131
Width: 573
Flags: MW
LayerCount: 2
Fore
SplineSet
446 798 m 1,0,-1
 376 728 l 1,1,-1
 306 798 l 1,2,-1
 376 869 l 1,3,-1
 446 798 l 1,0,-1
273 798 m 1,4,-1
 203 728 l 1,5,-1
 133 798 l 1,6,-1
 203 869 l 1,7,-1
 273 798 l 1,4,-1
563 700 m 1,8,-1
 339 349 l 1,9,-1
 339 0 l 1,10,-1
 239 0 l 1,11,-1
 239 349 l 1,12,-1
 15 700 l 1,13,-1
 133 700 l 1,14,-1
 289 456 l 1,15,-1
 445 700 l 1,16,-1
 563 700 l 1,8,-1
EndSplineSet
Validated: 1
EndChar

StartChar: Utilde
Encoding: 360 360 132
Width: 727
Flags: MW
LayerCount: 2
Fore
SplineSet
500 798 m 5,0,-1
 430 728 l 5,1,-1
 360 798 l 5,2,-1
 430 869 l 5,3,-1
 500 798 l 5,0,-1
327 798 m 5,4,-1
 257 728 l 5,5,-1
 187 798 l 5,6,-1
 257 869 l 5,7,-1
 327 798 l 5,4,-1
647 282 m 2,8,9
 647 221 647 221 623.5 167 c 128,-1,10
 600 113 600 113 558.5 72.5 c 128,-1,11
 517 32 517 32 462 8.5 c 128,-1,12
 407 -15 407 -15 344 -15 c 128,-1,13
 281 -15 281 -15 226 8.5 c 128,-1,14
 171 32 171 32 129.5 72.5 c 128,-1,15
 88 113 88 113 64.5 167 c 128,-1,16
 41 221 41 221 41 282 c 2,17,-1
 41 700 l 1,18,-1
 141 700 l 1,19,-1
 141 283 l 2,20,21
 141 242 141 242 157 206 c 128,-1,22
 173 170 173 170 200.5 143 c 128,-1,23
 228 116 228 116 265 100.5 c 128,-1,24
 302 85 302 85 344 85 c 128,-1,25
 386 85 386 85 423 100.5 c 128,-1,26
 460 116 460 116 487.5 143 c 128,-1,27
 515 170 515 170 531 206 c 128,-1,28
 547 242 547 242 547 283 c 2,29,-1
 547 700 l 1,30,-1
 647 700 l 1,31,-1
 647 282 l 2,8,9
EndSplineSet
Validated: 1
EndChar

StartChar: cent
Encoding: 162 162 136
Width: 414
VWidth: 868
Flags: MW
LayerCount: 2
Fore
SplineSet
266.4 226.8 m 4,0,1
 347.421 226.8 347.421 226.8 393.6 276.4 c 5,2,-1
 393.6 180.4 l 5,3,4
 373.6 160.4 373.6 160.4 291.2 152.4 c 5,5,-1
 291.2 90 l 6,6,7
 291.2 87.5996 291.2 87.5996 288 87.5996 c 6,8,-1
 218.4 87.5996 l 6,9,10
 216 87.5996 216 87.5996 216 90 c 6,11,-1
 216 153.2 l 5,12,13
 168.8 166 168.8 166 135.2 198.8 c 4,14,15
 70.4004 262.058 70.4004 262.058 70.4004 344.4 c 4,16,17
 70.4004 384.4 70.4004 384.4 86 419.6 c 132,-1,18
 101.6 454.8 101.6 454.8 140.8 488.8 c 132,-1,19
 180 522.8 180 522.8 216 532.4 c 5,20,-1
 216 593.2 l 6,21,22
 216 596.4 216 596.4 219.2 596.4 c 6,23,-1
 288.8 596.4 l 5,24,-1
 291.2 594 l 5,25,-1
 291.2 534 l 5,26,27
 373.168 525.2 373.168 525.2 393.6 505.2 c 5,28,-1
 393.6 409.2 l 5,29,30
 372 431.6 372 431.6 338.8 445.2 c 132,-1,31
 305.6 458.8 305.6 458.8 274 458.8 c 132,-1,32
 242.4 458.8 242.4 458.8 221.2 449.6 c 132,-1,33
 200 440.4 200 440.4 184.4 424.8 c 4,34,35
 150.4 390.8 150.4 390.8 150.4 343.6 c 4,36,37
 150.4 294.8 150.4 294.8 184.4 260.8 c 132,-1,38
 218.4 226.8 218.4 226.8 266.4 226.8 c 4,0,1
EndSplineSet
Validated: 1
EndChar

StartChar: asciicircum
Encoding: 94 94 137
Width: 449
Flags: MW
LayerCount: 2
Fore
SplineSet
219 561 m 2,0,1
 226 568 226 568 234 559 c 2,2,-1
 439 353 l 1,3,4
 445 349 445 349 437 349 c 2,5,-1
 312 349 l 1,6,-1
 225 435 l 1,7,-1
 139 349 l 1,8,-1
 12 349 l 2,9,10
 11 349 11 349 10 350.5 c 128,-1,11
 9 352 9 352 10 353 c 2,12,-1
 219 561 l 2,0,1
EndSplineSet
Validated: 1
EndChar

StartChar: underscore
Encoding: 95 95 138
Width: 632
Flags: MW
LayerCount: 2
Fore
SplineSet
634 -91 m 1,0,-1
 632 -94 l 1,1,-1
 2 -94 l 2,2,3
 -2 -94 -2 -94 -2 -88 c 2,4,-1
 -2 -4 l 1,5,-1
 1 0 l 1,6,-1
 631 0 l 1,7,-1
 634 -2 l 1,8,-1
 634 -91 l 1,0,-1
EndSplineSet
Validated: 1
EndChar

StartChar: grave
Encoding: 96 96 139
Width: 245
Flags: HMW
LayerCount: 2
Fore
SplineSet
30 674 m 1,0,-1
 215 576 l 1,1,-1
 214 495 l 1,2,-1
 30 590 l 1,3,-1
 30 674 l 1,0,-1
EndSplineSet
EndChar

StartChar: asciitilde
Encoding: 126 126 140
Width: 452
Flags: MW
LayerCount: 2
Fore
SplineSet
435 332 m 5,0,1
 417 284 417 284 379 255 c 4,2,3
 325.334 213.141 325.334 213.141 250 241 c 5,4,5
 214.667 250.813 214.667 250.813 204.257 257.044 c 132,-1,6
 193.847 263.274 193.847 263.274 162 272 c 4,7,8
 71.209 296.877 71.209 296.877 33 264 c 5,9,-1
 29 263 l 5,10,11
 48 312 48 312 85 339 c 5,12,13
 127.795 379.429 127.795 379.429 205 356 c 4,14,15
 239.256 345.604 239.256 345.604 269.694 331.869 c 132,-1,16
 300.134 318.133 300.134 318.133 353.275 308.344 c 132,-1,17
 406.416 298.555 406.416 298.555 430 330 c 4,18,19
 433 334 433 334 434 332 c 5,20,-1
 435 332 l 5,0,1
EndSplineSet
Validated: 33
EndChar

StartChar: bracketleft
Encoding: 91 91 141
Width: 288
Flags: MW
LayerCount: 2
Fore
SplineSet
258 795 m 6,0,-1
 258 708 l 6,1,2
 258 704 258 704 254 704 c 6,3,-1
 173 704 l 5,4,-1
 164 701 l 5,5,-1
 164 12 l 5,6,-1
 255 12 l 6,7,8
 258 12 258 12 258 8 c 6,9,-1
 258 -79 l 6,10,11
 258 -82 258 -82 254 -82 c 6,12,-1
 75 -82 l 5,13,-1
 70 -79 l 5,14,-1
 70 795 l 5,15,16
 71 799 71 799 74 799 c 6,17,-1
 254 799 l 6,18,19
 258 799 258 799 258 795 c 6,0,-1
EndSplineSet
Validated: 1
EndChar

StartChar: bracketright
Encoding: 93 93 142
Width: 288
Flags: MW
LayerCount: 2
Fore
SplineSet
218 -78 m 5,0,1
 216 -81 216 -81 214 -81 c 6,2,-1
 34 -81 l 6,3,4
 30 -81 30 -81 30 -78 c 6,5,-1
 30 9 l 6,6,7
 30 13 30 13 34 13 c 6,8,-1
 124 13 l 5,9,-1
 124 702 l 5,10,11
 126 702 126 702 118 705 c 5,12,-1
 34 705 l 6,13,14
 30 705 30 705 30 709 c 6,15,-1
 30 796 l 6,16,17
 30 800 30 800 34 800 c 6,18,-1
 214 800 l 5,19,-1
 218 796 l 5,20,-1
 218 -78 l 5,0,1
EndSplineSet
Validated: 1
EndChar

StartChar: periodcentered
Encoding: 183 183 143
Width: 160
Flags: MW
LayerCount: 2
Fore
SplineSet
130 161 m 1,0,-1
 30 161 l 1,1,-1
 30 258 l 1,2,-1
 130 258 l 1,3,-1
 130 161 l 1,0,-1
EndSplineSet
Validated: 1
EndChar

StartChar: ordmasculine
Encoding: 186 186 144
Width: 366
Flags: MW
LayerCount: 2
Fore
SplineSet
335 516 m 128,-1,1
 335 453 335 453 290.5 408 c 128,-1,2
 246 363 246 363 183 363 c 0,3,4
 119 363 119 363 74.5 408 c 128,-1,5
 30 453 30 453 30 516 c 128,-1,6
 30 579 30 579 74.5 623.5 c 128,-1,7
 119 668 119 668 183 668 c 0,8,9
 246 668 246 668 290.5 623.5 c 128,-1,0
 335 579 335 579 335 516 c 128,-1,1
249 516 m 0,10,11
 249 543 249 543 229.5 562.5 c 128,-1,12
 210 582 210 582 183 582 c 0,13,14
 155 582 155 582 135.5 562.5 c 128,-1,15
 116 543 116 543 116 516 c 0,16,17
 116 488 116 488 135.5 469 c 128,-1,18
 155 450 155 450 183 450 c 0,19,20
 210 450 210 450 229.5 469 c 128,-1,21
 249 488 249 488 249 516 c 0,10,11
336 241 m 1,22,-1
 334 237 l 1,23,-1
 37 237 l 2,24,25
 32 237 32 237 32 244 c 2,26,-1
 32 328 l 1,27,-1
 36 332 l 1,28,-1
 333 332 l 1,29,-1
 336 329 l 1,30,-1
 336 241 l 1,22,-1
EndSplineSet
Validated: 1
EndChar

StartChar: multiply
Encoding: 215 215 145
Width: 497
Flags: MW
LayerCount: 2
Fore
SplineSet
431 505 m 5,0,-1
 304 341 l 5,1,-1
 450 160 l 5,2,-1
 333 160 l 5,3,-1
 250 280 l 5,4,-1
 168 161 l 5,5,-1
 64 161 l 6,6,7
 62 161 62 161 62.5 163 c 132,-1,8
 63 165 63 165 64 167 c 6,9,-1
 65 170 l 5,10,-1
 193 339 l 5,11,12
 69 500 69 500 66 504 c 5,13,-1
 65 510 l 5,14,-1
 175 510 l 5,15,-1
 251 407 l 5,16,-1
 330 510 l 5,17,-1
 430 510 l 5,18,-1
 431 505 l 5,0,-1
EndSplineSet
Validated: 1
EndChar

StartChar: macron
Encoding: 175 175 146
Width: 347
Flags: MW
LayerCount: 2
Fore
SplineSet
327 509 m 1,0,-1
 325 506 l 1,1,-1
 25 506 l 2,2,3
 20 506 20 506 20 513 c 2,4,-1
 20 597 l 1,5,-1
 23 600 l 1,6,-1
 323 600 l 1,7,-1
 327 598 l 1,8,-1
 327 509 l 1,0,-1
EndSplineSet
Validated: 1
EndChar

StartChar: acute
Encoding: 180 180 147
Width: 273
Flags: MW
LayerCount: 2
Fore
SplineSet
239 874 m 1,0,-1
 239 791 l 1,1,-1
 54 695 l 1,2,-1
 54 776 l 1,3,-1
 239 874 l 1,0,-1
EndSplineSet
Validated: 1
EndChar

StartChar: exclamdown
Encoding: 161 161 148
Width: 200
Flags: MW
LayerCount: 2
Fore
SplineSet
33 632 m 1,0,-1
 101 700 l 1,1,-1
 173 631 l 1,2,-1
 105 563 l 1,3,-1
 33 632 l 1,0,-1
56 73 m 1,4,-1
 77 529 l 1,5,-1
 133 529 l 1,6,-1
 156 73 l 1,7,-1
 156 -15 l 1,8,-1
 56 -15 l 1,9,-1
 56 73 l 1,4,-1
EndSplineSet
Validated: 1
EndChar

StartChar: perthousand
Encoding: 8240 8240 150
Width: 1065
Flags: HMW
LayerCount: 2
Fore
SplineSet
1026 134 m 0,0,1
 1026 104 1026 104 1014.5 77 c 128,-1,2
 1003 50 1003 50 983 30.5 c 128,-1,3
 963 11 963 11 936 -0.5 c 128,-1,4
 909 -12 909 -12 879 -12 c 0,5,6
 848 -12 848 -12 821 -0.5 c 128,-1,7
 794 11 794 11 773.5 31 c 128,-1,8
 753 51 753 51 741.5 78 c 128,-1,9
 730 105 730 105 730 136 c 256,10,11
 730 167 730 167 741.5 194 c 128,-1,12
 753 221 753 221 773 241 c 128,-1,13
 793 261 793 261 819.5 272.5 c 128,-1,14
 846 284 846 284 877 284 c 0,15,16
 907 284 907 284 934.5 272 c 128,-1,17
 962 260 962 260 982 239.5 c 128,-1,18
 1002 219 1002 219 1014 192 c 128,-1,19
 1026 165 1026 165 1026 134 c 0,0,1
948 135 m 2,20,21
 948 140 l 2,22,23
 948 167 948 167 926.5 186 c 128,-1,24
 905 205 905 205 878 205 c 0,25,26
 849 205 849 205 828.5 184.5 c 128,-1,27
 808 164 808 164 808 135 c 256,28,29
 808 106 808 106 829 85.5 c 128,-1,30
 850 65 850 65 879 65 c 256,31,32
 908 65 908 65 928 85.5 c 128,-1,33
 948 106 948 106 948 135 c 2,20,21
681 134 m 0,34,35
 681 104 681 104 669.5 77 c 128,-1,36
 658 50 658 50 638 30.5 c 128,-1,37
 618 11 618 11 591 -0.5 c 128,-1,38
 564 -12 564 -12 534 -12 c 0,39,40
 503 -12 503 -12 476 -0.5 c 128,-1,41
 449 11 449 11 428.5 31 c 128,-1,42
 408 51 408 51 396.5 78 c 128,-1,43
 385 105 385 105 385 136 c 256,44,45
 385 167 385 167 396.5 194 c 128,-1,46
 408 221 408 221 428 241 c 128,-1,47
 448 261 448 261 474.5 272.5 c 128,-1,48
 501 284 501 284 532 284 c 0,49,50
 562 284 562 284 589.5 272 c 128,-1,51
 617 260 617 260 637 239.5 c 128,-1,52
 657 219 657 219 669 192 c 128,-1,53
 681 165 681 165 681 134 c 0,34,35
603 135 m 2,54,-1
 603 140 l 2,55,56
 603 167 603 167 581.5 186 c 128,-1,57
 560 205 560 205 533 205 c 0,58,59
 504 205 504 205 483.5 184.5 c 128,-1,60
 463 164 463 164 463 135 c 256,61,62
 463 106 463 106 484 85.5 c 128,-1,63
 505 65 505 65 534 65 c 256,64,65
 563 65 563 65 583 85.5 c 128,-1,66
 603 106 603 106 603 135 c 2,54,-1
327 532 m 0,67,68
 327 502 327 502 315.5 475 c 128,-1,69
 304 448 304 448 284.5 428 c 128,-1,70
 265 408 265 408 238 396.5 c 128,-1,71
 211 385 211 385 181 385 c 256,72,73
 151 385 151 385 124 396.5 c 128,-1,74
 97 408 97 408 77 428 c 128,-1,75
 57 448 57 448 45.5 475 c 128,-1,76
 34 502 34 502 34 532 c 256,77,78
 34 562 34 562 45.5 589 c 128,-1,79
 57 616 57 616 77 635.5 c 128,-1,80
 97 655 97 655 123.5 666.5 c 128,-1,81
 150 678 150 678 181 678 c 256,82,83
 212 678 212 678 238.5 666.5 c 128,-1,84
 265 655 265 655 284.5 635.5 c 128,-1,85
 304 616 304 616 315.5 589.5 c 128,-1,86
 327 563 327 563 327 532 c 0,67,68
569 667 m 1,87,-1
 235 0 l 1,88,-1
 139 0 l 1,89,-1
 475 667 l 1,90,-1
 569 667 l 1,87,-1
250 534 m 256,91,92
 250 563 250 563 230 582 c 128,-1,93
 210 601 210 601 179 601 c 0,94,95
 150 601 150 601 130 581.5 c 128,-1,96
 110 562 110 562 110 533 c 256,97,98
 110 504 110 504 130.5 484 c 128,-1,99
 151 464 151 464 181 464 c 0,100,101
 210 464 210 464 230 484.5 c 128,-1,102
 250 505 250 505 250 534 c 256,91,92
EndSplineSet
EndChar

StartChar: infinity
Encoding: 8734 8734 151
Width: 781
Flags: MW
LayerCount: 2
Fore
SplineSet
190.88 165.92 m 0,0,1
 128.717 165.92 128.717 165.92 84.2541 212.278 c 128,-1,2
 39.791 258.635 39.791 258.635 39.791 324.109 c 0,3,4
 39.791 402.077 39.791 402.077 85.7056 448.445 c 128,-1,5
 131.62 494.813 131.62 494.813 203.135 494.813 c 0,6,7
 257.245 494.813 257.245 494.813 297.566 465.564 c 128,-1,8
 337.886 436.315 337.886 436.315 372.72 390.382 c 1,9,-1
 376.72 390.382 l 1,10,11
 467.242 510.814 467.242 510.814 570.88 510.814 c 0,12,13
 645.594 510.814 645.594 510.814 693.781 461.573 c 128,-1,14
 741.968 412.331 741.968 412.331 741.968 335.679 c 0,15,16
 741.968 251.41 741.968 251.41 693.467 199.089 c 128,-1,17
 644.967 146.768 644.967 146.768 569.728 146.768 c 0,18,19
 509.909 146.768 509.909 146.768 463.731 177.067 c 128,-1,20
 417.552 207.367 417.552 207.367 367.888 269.088 c 1,21,-1
 363.888 269.088 l 1,22,23
 345.901 248.16 345.901 248.16 332.742 234.955 c 128,-1,24
 319.582 221.751 319.582 221.751 296.618 203.31 c 128,-1,25
 273.653 184.869 273.653 184.869 246.914 175.395 c 128,-1,26
 220.176 165.92 220.176 165.92 190.88 165.92 c 0,0,1
407.438 340.094 m 1,27,28
 452.44 280.758 452.44 280.758 489.624 252.946 c 128,-1,29
 526.807 225.134 526.807 225.134 570.623 225.134 c 0,30,31
 619.403 225.134 619.403 225.134 648.389 256.268 c 128,-1,32
 677.375 287.403 677.375 287.403 677.375 332.941 c 0,33,34
 677.375 383.963 677.375 383.963 646.789 415.724 c 128,-1,35
 616.203 447.485 616.203 447.485 563.358 447.485 c 0,36,37
 483.185 447.485 483.185 447.485 407.438 340.094 c 1,27,28
198.927 229.246 m 0,38,39
 271.798 229.246 271.798 229.246 333.167 320.637 c 1,40,41
 263.483 416.445 263.483 416.445 196.719 416.445 c 0,42,43
 155.477 416.445 155.477 416.445 129.93 392.341 c 128,-1,44
 104.383 368.237 104.383 368.237 104.383 326.846 c 0,45,46
 104.383 285.022 104.383 285.022 131.607 257.134 c 128,-1,47
 158.832 229.246 158.832 229.246 198.927 229.246 c 0,38,39
EndSplineSet
EndChar

StartChar: integral
Encoding: 8747 8747 152
Width: 374
Flags: MW
LayerCount: 2
Fore
SplineSet
82.5 -40.5 m 4,0,1
 96 -24.1052 96 -24.1052 96 20.5 c 6,2,-1
 96 449 l 5,3,4
 94 522 94 522 113.5 572 c 132,-1,5
 133 622 133 622 185 649 c 4,6,7
 252 683 252 683 364 656 c 5,8,-1
 364 565 l 5,9,-1
 359 560 l 5,10,11
 289.645 594.677 289.645 594.677 234 565 c 5,12,13
 205 546 205 546 196.5 518.5 c 132,-1,14
 188 491 188 491 190 448 c 5,15,-1
 190 3 l 5,16,-1
 189 2 l 5,17,-1
 189 -36 l 6,18,19
 189 -77 189 -77 165 -111 c 4,20,21
 114.479 -182.572 114.479 -182.572 11 -165 c 5,22,23
 0 -161 0 -161 0 -158 c 6,24,-1
 0 -62 l 5,25,-1
 34.5 -66 l 5,26,27
 68.4134 -56.8792 68.4134 -56.8792 82.5 -40.5 c 4,0,1
EndSplineSet
Validated: 33
EndChar

StartChar: quotedbl
Encoding: 34 34 153
Width: 358
Flags: MW
LayerCount: 2
Fore
SplineSet
169 592 m 2,0,1
 169 563 169 563 157 538.5 c 128,-1,2
 145 514 145 514 123.5 496 c 128,-1,3
 102 478 102 478 73.5 467.5 c 128,-1,4
 45 457 45 457 12 457 c 1,5,-1
 12 468 l 1,6,7
 24 472 24 472 34 480 c 128,-1,8
 44 488 44 488 52 502 c 128,-1,9
 60 516 60 516 64.5 537.5 c 128,-1,10
 69 559 69 559 69 592 c 2,11,-1
 69 700 l 1,12,-1
 169 700 l 1,13,-1
 169 592 l 2,0,1
350 616 m 2,14,15
 350 587 350 587 337.5 562.5 c 128,-1,16
 325 538 325 538 304 520 c 128,-1,17
 283 502 283 502 254 491.5 c 128,-1,18
 225 481 225 481 192 481 c 1,19,-1
 192 492 l 1,20,21
 204 496 204 496 214 504 c 128,-1,22
 224 512 224 512 232 526 c 128,-1,23
 240 540 240 540 244.5 561.5 c 128,-1,24
 249 583 249 583 249 616 c 2,25,-1
 249 700 l 1,26,-1
 350 700 l 1,27,-1
 350 616 l 2,14,15
EndSplineSet
Validated: 1
EndChar

StartChar: alpha
Encoding: 945 945 154
Width: 859
Flags: MW
LayerCount: 2
Fore
SplineSet
377 254 m 1,0,1
 371 260 l 1,2,-1
 231 260 l 1,3,4
 233 230 233 230 243.5 200.5 c 128,-1,5
 254 171 254 171 272 144.5 c 128,-1,6
 290 118 290 118 314.5 96 c 128,-1,7
 339 74 339 74 368 60 c 1,8,-1
 374 78 l 1,9,10
 372 118 372 118 376 164.5 c 128,-1,11
 380 211 380 211 377 254 c 1,0,1
374 329 m 1,12,-1
 374 500 l 1,13,-1
 368 517 l 1,14,15
 344 514 344 514 323 502.5 c 128,-1,16
 302 491 302 491 284.5 473.5 c 128,-1,17
 267 456 267 456 254 434.5 c 128,-1,18
 241 413 241 413 233 392 c 1,19,20
 231 376 231 376 224 359.5 c 128,-1,21
 217 343 217 343 225 329 c 1,22,-1
 374 329 l 1,12,-1
820 386 m 1,23,24
 819 377 819 377 814 371.5 c 128,-1,25
 809 366 809 366 802 361 c 128,-1,26
 795 356 795 356 788 351.5 c 128,-1,27
 781 347 781 347 776 341 c 0,28,29
 748 315 748 315 736 280.5 c 128,-1,30
 724 246 724 246 730 209 c 0,31,32
 732 201 732 201 737 194.5 c 128,-1,33
 742 188 742 188 742 179 c 1,34,-1
 734 179 l 1,35,36
 725 208 725 208 721 239 c 128,-1,37
 717 270 717 270 730 299 c 1,38,39
 701 295 701 295 671 283.5 c 128,-1,40
 641 272 641 272 608 272 c 2,41,-1
 455 263 l 1,42,-1
 449 257 l 1,43,44
 446 238 446 238 446 218 c 2,45,-1
 446 178 l 2,46,47
 446 158 446 158 444.5 138.5 c 128,-1,48
 443 119 443 119 437 102 c 1,49,50
 436 88 436 88 437 73 c 128,-1,51
 438 58 438 58 434 44 c 1,52,53
 441 37 441 37 449 36 c 128,-1,54
 457 35 457 35 465.5 35.5 c 128,-1,55
 474 36 474 36 483 37.5 c 128,-1,56
 492 39 492 39 500 38 c 1,57,58
 526 42 526 42 551 54.5 c 128,-1,59
 576 67 576 67 597 85.5 c 128,-1,60
 618 104 618 104 632.5 127 c 128,-1,61
 647 150 647 150 653 176 c 1,62,63
 656 147 656 147 641 121.5 c 2,64,-1
 611 72 l 2,65,66
 576 26 576 26 527.5 8 c 128,-1,67
 479 -10 479 -10 425 -15 c 1,68,69
 414 -24 414 -24 414 -38 c 0,70,71
 414 -53 414 -53 407 -63 c 1,72,73
 390 -100 390 -100 363.5 -132 c 128,-1,74
 337 -164 337 -164 304 -188 c 128,-1,75
 271 -212 271 -212 233.5 -226.5 c 128,-1,76
 196 -241 196 -241 156 -243 c 1,77,78
 145 -238 145 -238 134 -234.5 c 128,-1,79
 123 -231 123 -231 112 -227 c 128,-1,80
 101 -223 101 -223 90.5 -217 c 128,-1,81
 80 -211 80 -211 72 -201 c 0,82,83
 63 -186 63 -186 55.5 -168 c 128,-1,84
 48 -150 48 -150 44.5 -131 c 128,-1,85
 41 -112 41 -112 42.5 -93 c 128,-1,86
 44 -74 44 -74 54 -57 c 2,87,88
 59 -35 59 -35 73.5 -18 c 128,-1,89
 88 -1 88 -1 107 12.5 c 128,-1,90
 126 26 126 26 147 37.5 c 128,-1,91
 168 49 168 49 186 60 c 1,92,-1
 195 56 l 1,93,94
 159 44 159 44 134.5 12.5 c 128,-1,95
 110.029 -18.9627 110.029 -18.9627 108 -57 c 0,96,97
 106.024 -94.0418 106.024 -94.0418 123 -123.5 c 128,-1,98
 140 -153 140 -153 171 -174 c 0,99,100
 195 -193 195 -193 226.5 -191 c 128,-1,101
 258 -189 258 -189 285 -180 c 1,102,103
 320 -148 320 -148 341 -107 c 128,-1,104
 362 -66 362 -66 365 -18 c 1,105,-1
 323 -0.5 l 2,106,107
 302 8 302 8 282.5 19 c 128,-1,108
 263 30 263 30 245.5 44.5 c 128,-1,109
 228 59 228 59 213 80 c 2,110,111
 195 98 195 98 184.5 118.5 c 128,-1,112
 174 139 174 139 168 161.5 c 128,-1,113
 162 184 162 184 158 207.5 c 2,114,-1
 150 254 l 1,115,116
 145 261 145 261 140 262.5 c 128,-1,117
 135 264 135 264 129 262.5 c 128,-1,118
 123 261 123 261 117 259 c 128,-1,119
 111 257 111 257 105 257 c 0,120,121
 87 258 87 258 70.5 256 c 128,-1,122
 54 254 54 254 39 248 c 1,123,-1
 39 263 l 1,124,125
 66 283 66 283 95.5 297 c 128,-1,126
 125 311 125 311 156 323 c 1,127,128
 159 364 159 364 180 397.5 c 128,-1,129
 201 431 201 431 231 458.5 c 128,-1,130
 261 486 261 486 296.5 507.5 c 128,-1,131
 332 529 332 529 365 545 c 1,132,133
 375 552 375 552 378.5 562 c 128,-1,134
 382 572 382 572 381.5 583.5 c 128,-1,135
 381 595 381 595 379 606.5 c 128,-1,136
 377 618 377 618 377 628 c 1,137,138
 373 642 373 642 362 648.5 c 128,-1,139
 351 655 351 655 341 664 c 1,140,141
 325 666 325 666 314.5 664.5 c 128,-1,142
 304 663 304 663 291 655 c 1,143,-1
 291 664 l 1,144,145
 333 689 333 689 377 708 c 128,-1,146
 421 727 421 727 461 757 c 1,147,-1
 470 757 l 1,148,149
 462 734 462 734 459.5 711.5 c 128,-1,150
 457 689 457 689 456 666 c 128,-1,151
 455 643 455 643 454.5 619 c 128,-1,152
 454 595 454 595 452 571 c 1,153,-1
 461 563 l 1,154,155
 527 568 527 568 587 551 c 128,-1,156
 647 534 647 534 695 488 c 1,157,158
 701 471 701 471 695.5 457.5 c 128,-1,159
 690 444 690 444 679.5 432.5 c 128,-1,160
 669 421 669 421 655.5 411 c 128,-1,161
 642 401 642 401 632 392 c 1,162,163
 636 406 636 406 635 425 c 128,-1,164
 634 444 634 444 617 458 c 2,165,-1
 580 483.5 l 2,166,167
 561 497 561 497 541.5 506.5 c 128,-1,168
 522 516 522 516 500.5 520.5 c 128,-1,169
 479 525 479 525 455 521 c 1,170,-1
 449 515 l 1,171,172
 446 472 446 472 445.5 423 c 128,-1,173
 445 374 445 374 446 332 c 1,174,-1
 452 326 l 1,175,176
 520 325 520 325 587.5 332.5 c 128,-1,177
 655 340 655 340 724 344 c 1,178,179
 750 350 750 350 773 364 c 128,-1,180
 796 378 796 378 820 386 c 1,23,24
734 44 m 1,181,-1
 689 0 l 1,182,-1
 677 0 l 1,183,184
 667 12 667 12 655 25 c 128,-1,185
 643 38 643 38 629 44 c 1,186,187
 636 59 636 59 646.5 70 c 128,-1,188
 657 81 657 81 671 92 c 1,189,190
 675 93 675 93 679 97.5 c 128,-1,191
 683 102 683 102 687 105 c 128,-1,192
 691 108 691 108 695 108 c 128,-1,193
 699 108 699 108 704 102 c 1,194,195
 705 94 705 94 710 87 c 128,-1,196
 715 80 715 80 720.5 73.5 c 128,-1,197
 726 67 726 67 730.5 60 c 128,-1,198
 735 53 735 53 734 44 c 1,181,-1
EndSplineSet
Validated: 33
EndChar

StartChar: beta
Encoding: 946 946 155
Width: 3284
Flags: MW
LayerCount: 2
Fore
SplineSet
957 398 m 1,0,-1
 933 379 l 1,1,-1
 920 330 l 1,2,-1
 931 344 l 1,3,-1
 934 348 l 1,4,-1
 938 358 l 1,5,-1
 938 363 l 1,6,-1
 957 398 l 1,0,-1
2115 388 m 1,7,-1
 2114 394 l 1,8,-1
 2109 412 l 1,9,-1
 2104 421 l 1,10,-1
 2101 425 l 1,11,-1
 2092 430 l 1,12,-1
 2088 432 l 1,13,-1
 2086 433 l 1,14,-1
 2084 428 l 1,15,-1
 2082 419 l 1,16,-1
 2078 411 l 1,17,-1
 2076 370 l 1,18,-1
 2077 363 l 1,19,-1
 2080 354 l 1,20,-1
 2085 349 l 1,21,-1
 2100 354 l 1,22,-1
 2109 363 l 1,23,-1
 2111 368 l 1,24,-1
 2114 374 l 1,25,-1
 2115 388 l 1,7,-1
3074 621 m 1,26,-1
 3071 623 l 1,27,-1
 3070 625 l 1,28,-1
 3069 628 l 1,29,-1
 3064 634 l 1,30,-1
 2994 648 l 1,31,-1
 2989 646 l 1,32,-1
 2987 642 l 1,33,-1
 2987 640 l 1,34,-1
 2988 636 l 1,35,-1
 2992 629 l 1,36,-1
 2994 626 l 1,37,-1
 2999 621 l 1,38,-1
 3002 620 l 1,39,-1
 3005 617 l 1,40,-1
 3025 610 l 1,41,-1
 3039 606 l 1,42,-1
 3051 606 l 1,43,-1
 3062 608 l 1,44,-1
 3072 613 l 1,45,-1
 3073 617 l 1,46,-1
 3073 619 l 1,47,-1
 3074 621 l 1,26,-1
2382 250 m 1,48,-1
 2374 249 l 1,49,-1
 2108 222 l 1,50,-1
 1987 202 l 1,51,-1
 1959 195 l 1,52,-1
 1949 141 l 1,53,-1
 2013 122 l 1,54,-1
 2033 115 l 1,55,-1
 2047 108 l 1,56,-1
 2060 101 l 1,57,-1
 2068 95 l 1,58,-1
 2083 80 l 1,59,-1
 2092 67 l 1,60,-1
 2094 59 l 1,61,-1
 2095 51 l 1,62,-1
 2095 43 l 1,63,-1
 2094 35 l 1,64,-1
 2092 27 l 1,65,-1
 2088 20 l 1,66,-1
 2084 14 l 1,67,-1
 2079 10 l 1,68,-1
 2058 -7 l 1,69,-1
 2054 -9 l 1,70,-1
 2050 -10 l 1,71,-1
 2047 -11 l 1,72,-1
 2043 -11 l 1,73,-1
 2039 -10 l 1,74,-1
 2039 -7 l 1,75,-1
 2040 -4 l 1,76,-1
 2045 5 l 1,77,-1
 2065 16 l 1,78,-1
 2068 25 l 1,79,-1
 2068 32 l 1,80,-1
 2066 44 l 1,81,-1
 2022 83 l 1,82,-1
 1948 110 l 1,83,-1
 1941 109 l 1,84,-1
 1938 108 l 1,85,-1
 1933 103 l 1,86,-1
 1926 94 l 1,87,-1
 1924 90 l 1,88,-1
 1923 85 l 1,89,-1
 1918 75 l 1,90,-1
 1911 63 l 1,91,-1
 1909 59 l 1,92,-1
 1890 17 l 1,93,-1
 1852 -43 l 1,94,-1
 1805 -97 l 1,95,-1
 1742 -152 l 1,96,-1
 1665 -204 l 1,97,-1
 1655 -209 l 1,98,-1
 1643 -215 l 1,99,-1
 1606 -231 l 1,100,-1
 1567 -240 l 1,101,-1
 1547 -242 l 1,102,-1
 1527 -243 l 1,103,-1
 1502 -240 l 1,104,-1
 1489 -237 l 1,105,-1
 1471 -231 l 1,106,-1
 1459 -225 l 1,107,-1
 1453 -222 l 1,108,-1
 1436 -212 l 1,109,-1
 1417 -196 l 1,110,-1
 1392 -169 l 1,111,-1
 1382 -154 l 1,112,-1
 1365 -121 l 1,113,-1
 1347 -71 l 1,114,-1
 1344 -58 l 1,115,-1
 1342 -47 l 1,116,-1
 1339 -36 l 1,117,-1
 1340 -30 l 1,118,-1
 1347 -52 l 1,119,-1
 1374 -109 l 1,120,-1
 1395 -141 l 1,121,-1
 1426 -175 l 1,122,-1
 1450 -195 l 1,123,-1
 1484 -214 l 1,124,-1
 1492 -216 l 1,125,-1
 1496 -218 l 1,126,-1
 1513 -223 l 1,127,-1
 1525 -225 l 1,128,-1
 1541 -225 l 1,129,-1
 1560 -223 l 1,130,-1
 1617 -210 l 1,131,-1
 1660 -186 l 1,132,-1
 1734 -134 l 1,133,-1
 1809 -62 l 1,134,-1
 1852 -3 l 1,135,-1
 1876 42 l 1,136,-1
 1880 52 l 1,137,-1
 1885 65 l 1,138,-1
 1894 83 l 1,139,-1
 1896 89 l 1,140,-1
 1896 95 l 1,141,-1
 1894 102 l 1,142,-1
 1899 102 l 1,143,-1
 1900 103 l 1,144,-1
 1901 106 l 1,145,-1
 1901 114 l 1,146,-1
 1734 135 l 1,147,-1
 1732 136 l 1,148,-1
 1730 138 l 1,149,-1
 1730 141 l 1,150,-1
 1730 144 l 1,151,-1
 1731 149 l 1,152,-1
 1732 151 l 1,153,-1
 1735 155 l 1,154,-1
 1741 159 l 1,155,-1
 1745 161 l 1,156,-1
 1924 204 l 1,157,-1
 1952 375 l 1,158,-1
 1948 418 l 1,159,-1
 1947 483 l 1,160,-1
 1939 547 l 1,161,-1
 1929 588 l 1,162,-1
 1921 611 l 1,163,-1
 1914 624 l 1,164,-1
 1904 639 l 1,165,-1
 1889 655 l 1,166,-1
 1880 663 l 1,167,-1
 1858 679 l 1,168,-1
 1835 692 l 1,169,-1
 1832 692 l 1,170,-1
 1829 692 l 1,171,-1
 1812 694 l 1,172,-1
 1800 695 l 1,173,-1
 1797 695 l 1,174,-1
 1788 695 l 1,175,-1
 1784 695 l 1,176,-1
 1763 693 l 1,177,-1
 1760 692 l 1,178,-1
 1757 691 l 1,179,-1
 1746 687 l 1,180,-1
 1737 683 l 1,181,-1
 1735 679 l 1,182,-1
 1733 674 l 1,183,-1
 1735 663 l 1,184,-1
 1740 653 l 1,185,-1
 1742 649 l 1,186,-1
 1773 606 l 1,187,-1
 1800 548 l 1,188,-1
 1814 485 l 1,189,-1
 1816 429 l 1,190,-1
 1809 376 l 1,191,-1
 1795 334 l 1,192,-1
 1783 311 l 1,193,-1
 1775 300 l 1,194,-1
 1770 295 l 1,195,-1
 1759 287 l 1,196,-1
 1752 284 l 1,197,-1
 1745 282 l 1,198,-1
 1742 282 l 1,199,-1
 1740 282 l 1,200,-1
 1737 284 l 1,201,-1
 1733 295 l 1,202,-1
 1730 306 l 1,203,-1
 1729 329 l 1,204,-1
 1734 357 l 1,205,-1
 1749 406 l 1,206,-1
 1754 415 l 1,207,-1
 1757 424 l 1,208,-1
 1757 429 l 1,209,-1
 1756 434 l 1,210,-1
 1730 449 l 1,211,-1
 1717 438 l 1,212,-1
 1710 429 l 1,213,-1
 1696 405 l 1,214,-1
 1684 371 l 1,215,-1
 1662 282 l 1,216,-1
 1660 280 l 1,217,-1
 1653 276 l 1,218,-1
 1650 275 l 1,219,-1
 1647 274 l 1,220,-1
 1643 274 l 1,221,-1
 1641 275 l 1,222,-1
 1629 363 l 1,223,-1
 1619 359 l 1,224,-1
 1617 357 l 1,225,-1
 1610 350 l 1,226,-1
 1604 342 l 1,227,-1
 1588 315 l 1,228,-1
 1582 306 l 1,229,-1
 1575 299 l 1,230,-1
 1569 295 l 1,231,-1
 1558 290 l 1,232,-1
 1550 289 l 1,233,-1
 1549 290 l 1,234,-1
 1545 293 l 1,235,-1
 1543 336 l 1,236,-1
 1535 335 l 1,237,-1
 1525 330 l 1,238,-1
 1480 296 l 1,239,-1
 1474 293 l 1,240,-1
 1472 291 l 1,241,-1
 1467 289 l 1,242,-1
 1461 287 l 1,243,-1
 1455 287 l 1,244,-1
 1448 292 l 1,245,-1
 1443 298 l 1,246,-1
 1442 305 l 1,247,-1
 1442 314 l 1,248,-1
 1444 331 l 1,249,-1
 1446 340 l 1,250,-1
 1450 350 l 1,251,-1
 1458 361 l 1,252,-1
 1479 389 l 1,253,-1
 1486 405 l 1,254,-1
 1488 412 l 1,255,-1
 1398 401 l 1,256,-1
 1383 348 l 1,257,-1
 1370 322 l 1,258,-1
 1356 302 l 1,259,-1
 1343 289 l 1,260,-1
 1336 284 l 1,261,-1
 1326 279 l 1,262,-1
 1316 272 l 1,263,-1
 1309 267 l 1,264,-1
 1302 265 l 1,265,-1
 1297 264 l 1,266,-1
 1294 264 l 1,267,-1
 1290 265 l 1,268,-1
 1282 268 l 1,269,-1
 1273 278 l 1,270,-1
 1267 285 l 1,271,-1
 1263 293 l 1,272,-1
 1255 337 l 1,273,-1
 1254 347 l 1,274,-1
 1254 359 l 1,275,-1
 1252 363 l 1,276,-1
 1249 364 l 1,277,-1
 1246 363 l 1,278,-1
 1240 358 l 1,279,-1
 1236 352 l 1,280,-1
 1215 323 l 1,281,-1
 1181 285 l 1,282,-1
 1177 282 l 1,283,-1
 1174 275 l 1,284,-1
 1168 268 l 1,285,-1
 1157 261 l 1,286,-1
 1141 255 l 1,287,-1
 1139 256 l 1,288,-1
 1136 258 l 1,289,-1
 1133 260 l 1,290,-1
 1132 262 l 1,291,-1
 1130 266 l 1,292,-1
 1129 270 l 1,293,-1
 1131 367 l 1,294,-1
 1130 370 l 1,295,-1
 1129 369 l 1,296,-1
 1128 365 l 1,297,-1
 1127 365 l 1,298,-1
 1125 367 l 1,299,-1
 1057 270 l 1,300,-1
 1052 266 l 1,301,-1
 1041 260 l 1,302,-1
 1035 258 l 1,303,-1
 1029 266 l 1,304,-1
 1021 281 l 1,305,-1
 1015 297 l 1,306,-1
 1012 308 l 1,307,-1
 1004 434 l 1,308,-1
 992 419 l 1,309,-1
 976 387 l 1,310,-1
 941 309 l 1,311,-1
 933 296 l 1,312,-1
 927 289 l 1,313,-1
 918 280 l 1,314,-1
 895 261 l 1,315,-1
 892 261 l 1,316,-1
 888 262 l 1,317,-1
 887 264 l 1,318,-1
 882 272 l 1,319,-1
 879 281 l 1,320,-1
 878 290 l 1,321,-1
 878 300 l 1,322,-1
 880 313 l 1,323,-1
 895 363 l 1,324,-1
 905 383 l 1,325,-1
 944 426 l 1,326,-1
 943 428 l 1,327,-1
 940 432 l 1,328,-1
 926 436 l 1,329,-1
 918 437 l 1,330,-1
 899 435 l 1,331,-1
 892 435 l 1,332,-1
 889 435 l 1,333,-1
 844 435 l 1,334,-1
 841 434 l 1,335,-1
 829 434 l 1,336,-1
 817 432 l 1,337,-1
 575 408 l 1,338,-1
 434 379 l 1,339,-1
 426 355 l 1,340,-1
 409 289 l 1,341,-1
 402 270 l 1,342,-1
 391 254 l 1,343,-1
 386 247 l 1,344,-1
 379 240 l 1,345,-1
 371 235 l 1,346,-1
 370 233 l 1,347,-1
 368 231 l 1,348,-1
 368 227 l 1,349,-1
 368 224 l 1,350,-1
 369 219 l 1,351,-1
 373 217 l 1,352,-1
 394 209 l 1,353,-1
 408 206 l 1,354,-1
 426 204 l 1,355,-1
 493 201 l 1,356,-1
 507 198 l 1,357,-1
 516 196 l 1,358,-1
 650 203 l 1,359,-1
 761 227 l 1,360,-1
 792 239 l 1,361,-1
 792 237 l 1,362,-1
 792 231 l 1,363,-1
 793 227 l 1,364,-1
 782 213 l 1,365,-1
 753 201 l 1,366,-1
 696 184 l 1,367,-1
 608 170 l 1,368,-1
 551 165 l 1,369,-1
 392 173 l 1,370,-1
 327 187 l 1,371,-1
 297 199 l 1,372,-1
 290 202 l 1,373,-1
 287 204 l 1,374,-1
 283 207 l 1,375,-1
 279 216 l 1,376,-1
 274 231 l 1,377,-1
 277 237 l 1,378,-1
 281 241 l 1,379,-1
 287 245 l 1,380,-1
 297 248 l 1,381,-1
 314 248 l 1,382,-1
 333 247 l 1,383,-1
 342 246 l 1,384,-1
 354 248 l 1,385,-1
 360 249 l 1,386,-1
 370 263 l 1,387,-1
 375 272 l 1,388,-1
 387 302 l 1,389,-1
 399 367 l 1,390,-1
 382 370 l 1,391,-1
 368 370 l 1,392,-1
 358 369 l 1,393,-1
 344 367 l 1,394,-1
 282 353 l 1,395,-1
 257 351 l 1,396,-1
 243 352 l 1,397,-1
 240 353 l 1,398,-1
 239 356 l 1,399,-1
 240 363 l 1,400,-1
 241 367 l 1,401,-1
 245 371 l 1,402,-1
 256 379 l 1,403,-1
 266 382 l 1,404,-1
 283 385 l 1,405,-1
 286 385 l 1,406,-1
 292 386 l 1,407,-1
 295 386 l 1,408,-1
 311 388 l 1,409,-1
 322 392 l 1,410,-1
 328 394 l 1,411,-1
 348 398 l 1,412,-1
 350 398 l 1,413,-1
 374 401 l 1,414,-1
 376 401 l 1,415,-1
 403 407 l 1,416,-1
 419 555 l 1,417,-1
 406 560 l 1,418,-1
 400 561 l 1,419,-1
 391 561 l 1,420,-1
 375 559 l 1,421,-1
 342 550 l 1,422,-1
 327 547 l 1,423,-1
 321 547 l 1,424,-1
 257 534 l 1,425,-1
 168 520 l 1,426,-1
 153 517 l 1,427,-1
 151 519 l 1,428,-1
 150 523 l 1,429,-1
 149 531 l 1,430,-1
 187 548 l 1,431,-1
 246 563 l 1,432,-1
 386 587 l 1,433,-1
 419 598 l 1,434,-1
 423 699 l 1,435,-1
 423 701 l 1,436,-1
 426 706 l 1,437,-1
 431 711 l 1,438,-1
 438 715 l 1,439,-1
 439 714 l 1,440,-1
 445 714 l 1,441,-1
 450 713 l 1,442,-1
 455 702 l 1,443,-1
 458 687 l 1,444,-1
 456 658 l 1,445,-1
 453 629 l 1,446,-1
 454 613 l 1,447,-1
 529 615 l 1,448,-1
 730 635 l 1,449,-1
 795 632 l 1,450,-1
 833 623 l 1,451,-1
 870 610 l 1,452,-1
 871 600 l 1,453,-1
 870 595 l 1,454,-1
 869 590 l 1,455,-1
 864 582 l 1,456,-1
 844 564 l 1,457,-1
 835 556 l 1,458,-1
 817 546 l 1,459,-1
 790 536 l 1,460,-1
 787 535 l 1,461,-1
 781 533 l 1,462,-1
 778 531 l 1,463,-1
 773 529 l 1,464,-1
 759 522 l 1,465,-1
 752 521 l 1,466,-1
 744 521 l 1,467,-1
 740 521 l 1,468,-1
 735 519 l 1,469,-1
 735 527 l 1,470,-1
 777 543 l 1,471,-1
 839 582 l 1,472,-1
 839 584 l 1,473,-1
 839 586 l 1,474,-1
 836 590 l 1,475,-1
 802 599 l 1,476,-1
 756 605 l 1,477,-1
 649 603 l 1,478,-1
 462 572 l 1,479,-1
 455 566 l 1,480,-1
 443 422 l 1,481,-1
 444 421 l 1,482,-1
 448 420 l 1,483,-1
 458 419 l 1,484,-1
 476 422 l 1,485,-1
 488 424 l 1,486,-1
 504 427 l 1,487,-1
 958 469 l 1,488,-1
 958 468 l 1,489,-1
 963 467 l 1,490,-1
 966 465 l 1,491,-1
 969 465 l 1,492,-1
 984 473 l 1,493,-1
 998 512 l 1,494,-1
 1007 559 l 1,495,-1
 1014 621 l 1,496,-1
 1022 632 l 1,497,-1
 1031 639 l 1,498,-1
 1035 640 l 1,499,-1
 1040 639 l 1,500,-1
 1043 636 l 1,501,-1
 1047 626 l 1,502,-1
 1051 612 l 1,503,-1
 1052 586 l 1,504,-1
 1052 558 l 1,505,-1
 1053 543 l 1,506,-1
 1051 532 l 1,507,-1
 1051 510 l 1,508,-1
 1050 500 l 1,509,-1
 1047 488 l 1,510,-1
 1047 485 l 1,511,-1
 1049 479 l 1,512,-1
 1051 476 l 1,513,-1
 1058 472 l 1,514,-1
 1071 469 l 1,515,-1
 1075 469 l 1,516,-1
 1082 469 l 1,517,-1
 1085 468 l 1,518,-1
 1087 465 l 1,519,-1
 1089 462 l 1,520,-1
 1087 456 l 1,521,-1
 1086 453 l 1,522,-1
 1077 444 l 1,523,-1
 1068 437 l 1,524,-1
 1058 434 l 1,525,-1
 1051 432 l 1,526,-1
 1046 422 l 1,527,-1
 1045 411 l 1,528,-1
 1046 373 l 1,529,-1
 1043 359 l 1,530,-1
 1052 320 l 1,531,-1
 1052 319 l 1,532,-1
 1053 318 l 1,533,-1
 1055 318 l 1,534,-1
 1056 317 l 1,535,-1
 1058 317 l 1,536,-1
 1068 323 l 1,537,-1
 1079 335 l 1,538,-1
 1106 375 l 1,539,-1
 1114 383 l 1,540,-1
 1120 393 l 1,541,-1
 1122 396 l 1,542,-1
 1126 402 l 1,543,-1
 1129 405 l 1,544,-1
 1130 405 l 1,545,-1
 1135 406 l 1,546,-1
 1139 408 l 1,547,-1
 1141 410 l 1,548,-1
 1152 434 l 1,549,-1
 1153 434 l 1,550,-1
 1156 436 l 1,551,-1
 1160 437 l 1,552,-1
 1162 437 l 1,553,-1
 1164 437 l 1,554,-1
 1166 436 l 1,555,-1
 1172 434 l 1,556,-1
 1164 320 l 1,557,-1
 1164 318 l 1,558,-1
 1165 317 l 1,559,-1
 1169 314 l 1,560,-1
 1172 313 l 1,561,-1
 1182 320 l 1,562,-1
 1192 329 l 1,563,-1
 1204 342 l 1,564,-1
 1265 421 l 1,565,-1
 1281 437 l 1,566,-1
 1291 445 l 1,567,-1
 1301 452 l 1,568,-1
 1301 451 l 1,569,-1
 1305 447 l 1,570,-1
 1307 445 l 1,571,-1
 1299 412 l 1,572,-1
 1297 379 l 1,573,-1
 1300 346 l 1,574,-1
 1304 329 l 1,575,-1
 1310 313 l 1,576,-1
 1311 311 l 1,577,-1
 1316 309 l 1,578,-1
 1325 308 l 1,579,-1
 1332 309 l 1,580,-1
 1359 344 l 1,581,-1
 1364 356 l 1,582,-1
 1366 368 l 1,583,-1
 1367 380 l 1,584,-1
 1363 403 l 1,585,-1
 1359 425 l 1,586,-1
 1358 437 l 1,587,-1
 1361 442 l 1,588,-1
 1363 444 l 1,589,-1
 1365 445 l 1,590,-1
 1376 448 l 1,591,-1
 1384 448 l 1,592,-1
 1400 446 l 1,593,-1
 1419 441 l 1,594,-1
 1432 438 l 1,595,-1
 1441 438 l 1,596,-1
 1450 440 l 1,597,-1
 1452 440 l 1,598,-1
 1478 442 l 1,599,-1
 1480 442 l 1,600,-1
 1490 444 l 1,601,-1
 1493 444 l 1,602,-1
 1513 448 l 1,603,-1
 1525 452 l 1,604,-1
 1535 457 l 1,605,-1
 1543 461 l 1,606,-1
 1544 461 l 1,607,-1
 1547 461 l 1,608,-1
 1550 460 l 1,609,-1
 1553 456 l 1,610,-1
 1554 452 l 1,611,-1
 1553 447 l 1,612,-1
 1547 434 l 1,613,-1
 1501 387 l 1,614,-1
 1478 332 l 1,615,-1
 1478 331 l 1,616,-1
 1479 330 l 1,617,-1
 1482 329 l 1,618,-1
 1484 328 l 1,619,-1
 1489 330 l 1,620,-1
 1506 339 l 1,621,-1
 1513 345 l 1,622,-1
 1526 358 l 1,623,-1
 1547 388 l 1,624,-1
 1575 430 l 1,625,-1
 1582 437 l 1,626,-1
 1584 437 l 1,627,-1
 1587 437 l 1,628,-1
 1589 435 l 1,629,-1
 1591 434 l 1,630,-1
 1583 367 l 1,631,-1
 1584 366 l 1,632,-1
 1584 365 l 1,633,-1
 1586 365 l 1,634,-1
 1589 365 l 1,635,-1
 1593 367 l 1,636,-1
 1600 375 l 1,637,-1
 1622 404 l 1,638,-1
 1629 411 l 1,639,-1
 1638 418 l 1,640,-1
 1648 422 l 1,641,-1
 1650 421 l 1,642,-1
 1654 419 l 1,643,-1
 1661 413 l 1,644,-1
 1667 411 l 1,645,-1
 1671 411 l 1,646,-1
 1714 466 l 1,647,-1
 1719 471 l 1,648,-1
 1730 476 l 1,649,-1
 1736 478 l 1,650,-1
 1753 478 l 1,651,-1
 1786 473 l 1,652,-1
 1787 488 l 1,653,-1
 1786 504 l 1,654,-1
 1782 518 l 1,655,-1
 1775 538 l 1,656,-1
 1761 563 l 1,657,-1
 1729 610 l 1,658,-1
 1713 640 l 1,659,-1
 1708 658 l 1,660,-1
 1707 665 l 1,661,-1
 1707 679 l 1,662,-1
 1718 693 l 1,663,-1
 1722 697 l 1,664,-1
 1784 722 l 1,665,-1
 1828 721 l 1,666,-1
 1870 711 l 1,667,-1
 1899 698 l 1,668,-1
 1921 683 l 1,669,-1
 1933 672 l 1,670,-1
 1940 664 l 1,671,-1
 1958 630 l 1,672,-1
 1971 595 l 1,673,-1
 1980 558 l 1,674,-1
 1987 483 l 1,675,-1
 1985 371 l 1,676,-1
 1968 235 l 1,677,-1
 1967 215 l 1,678,-1
 2061 225 l 1,679,-1
 2160 243 l 1,680,-1
 2389 256 l 1,681,-1
 2390 255 l 1,682,-1
 2395 254 l 1,683,-1
 2382 250 l 1,48,-1
3134 660 m 1,684,-1
 3133 656 l 1,685,-1
 3132 654 l 1,686,-1
 3127 652 l 1,687,-1
 3118 652 l 1,688,-1
 3115 651 l 1,689,-1
 3112 613 l 1,690,-1
 3102 600 l 1,691,-1
 3087 587 l 1,692,-1
 3079 583 l 1,693,-1
 3071 580 l 1,694,-1
 3057 576 l 1,695,-1
 3048 574 l 1,696,-1
 3039 574 l 1,697,-1
 3033 574 l 1,698,-1
 3029 575 l 1,699,-1
 3004 581 l 1,700,-1
 2996 585 l 1,701,-1
 2985 590 l 1,702,-1
 2975 596 l 1,703,-1
 2965 605 l 1,704,-1
 2961 611 l 1,705,-1
 2957 621 l 1,706,-1
 2956 627 l 1,707,-1
 2957 639 l 1,708,-1
 2959 644 l 1,709,-1
 2957 648 l 1,710,-1
 2957 650 l 1,711,-1
 2955 651 l 1,712,-1
 2834 636 l 1,713,-1
 2829 634 l 1,714,-1
 2823 629 l 1,715,-1
 2817 619 l 1,716,-1
 2812 606 l 1,717,-1
 2807 586 l 1,718,-1
 2781 461 l 1,719,-1
 2779 432 l 1,720,-1
 2780 415 l 1,721,-1
 2783 398 l 1,722,-1
 2788 399 l 1,723,-1
 2797 404 l 1,724,-1
 2804 411 l 1,725,-1
 2829 447 l 1,726,-1
 2837 454 l 1,727,-1
 2842 457 l 1,728,-1
 2848 457 l 1,729,-1
 2852 456 l 1,730,-1
 2852 446 l 1,731,-1
 2851 436 l 1,732,-1
 2842 393 l 1,733,-1
 2841 383 l 1,734,-1
 2842 374 l 1,735,-1
 2846 365 l 1,736,-1
 2853 353 l 1,737,-1
 2855 352 l 1,738,-1
 2856 352 l 1,739,-1
 2861 352 l 1,740,-1
 2881 365 l 1,741,-1
 2895 391 l 1,742,-1
 2888 406 l 1,743,-1
 2877 412 l 1,744,-1
 2872 418 l 1,745,-1
 2870 422 l 1,746,-1
 2869 426 l 1,747,-1
 2869 428 l 1,748,-1
 2870 434 l 1,749,-1
 2872 437 l 1,750,-1
 2876 442 l 1,751,-1
 2878 443 l 1,752,-1
 2887 447 l 1,753,-1
 2896 449 l 1,754,-1
 2906 449 l 1,755,-1
 2909 449 l 1,756,-1
 2914 449 l 1,757,-1
 2947 444 l 1,758,-1
 2958 436 l 1,759,-1
 2968 425 l 1,760,-1
 2978 410 l 1,761,-1
 2986 392 l 1,762,-1
 3032 401 l 1,763,-1
 3044 379 l 1,764,-1
 3048 370 l 1,765,-1
 3054 349 l 1,766,-1
 3055 340 l 1,767,-1
 3055 330 l 1,768,-1
 3054 321 l 1,769,-1
 3051 309 l 1,770,-1
 3042 295 l 1,771,-1
 3033 284 l 1,772,-1
 3022 278 l 1,773,-1
 3015 276 l 1,774,-1
 3010 276 l 1,775,-1
 3008 277 l 1,776,-1
 3006 277 l 1,777,-1
 3003 281 l 1,778,-1
 3002 285 l 1,779,-1
 3002 287 l 1,780,-1
 3004 289 l 1,781,-1
 3009 291 l 1,782,-1
 3014 292 l 1,783,-1
 3017 294 l 1,784,-1
 3019 295 l 1,785,-1
 3021 298 l 1,786,-1
 3026 309 l 1,787,-1
 3002 359 l 1,788,-1
 2994 362 l 1,789,-1
 2986 351 l 1,790,-1
 2973 328 l 1,791,-1
 2969 323 l 1,792,-1
 2961 316 l 1,793,-1
 2957 314 l 1,794,-1
 2951 313 l 1,795,-1
 2945 313 l 1,796,-1
 2943 313 l 1,797,-1
 2939 324 l 1,798,-1
 2944 348 l 1,799,-1
 2945 363 l 1,800,-1
 2945 375 l 1,801,-1
 2943 388 l 1,802,-1
 2938 402 l 1,803,-1
 2928 412 l 1,804,-1
 2925 415 l 1,805,-1
 2924 417 l 1,806,-1
 2922 417 l 1,807,-1
 2921 417 l 1,808,-1
 2919 416 l 1,809,-1
 2918 415 l 1,810,-1
 2917 414 l 1,811,-1
 2918 390 l 1,812,-1
 2917 383 l 1,813,-1
 2915 375 l 1,814,-1
 2911 367 l 1,815,-1
 2900 356 l 1,816,-1
 2887 344 l 1,817,-1
 2871 333 l 1,818,-1
 2856 323 l 1,819,-1
 2854 322 l 1,820,-1
 2842 315 l 1,821,-1
 2839 315 l 1,822,-1
 2835 315 l 1,823,-1
 2828 317 l 1,824,-1
 2823 320 l 1,825,-1
 2817 324 l 1,826,-1
 2816 328 l 1,827,-1
 2812 337 l 1,828,-1
 2811 347 l 1,829,-1
 2811 357 l 1,830,-1
 2810 365 l 1,831,-1
 2807 375 l 1,832,-1
 2804 374 l 1,833,-1
 2800 373 l 1,834,-1
 2792 368 l 1,835,-1
 2786 361 l 1,836,-1
 2771 342 l 1,837,-1
 2763 335 l 1,838,-1
 2754 330 l 1,839,-1
 2749 329 l 1,840,-1
 2744 328 l 1,841,-1
 2742 329 l 1,842,-1
 2741 330 l 1,843,-1
 2739 332 l 1,844,-1
 2738 385 l 1,845,-1
 2766 547 l 1,846,-1
 2749 528 l 1,847,-1
 2698 451 l 1,848,-1
 2647 371 l 1,849,-1
 2647 331 l 1,850,-1
 2644 322 l 1,851,-1
 2640 313 l 1,852,-1
 2638 310 l 1,853,-1
 2631 303 l 1,854,-1
 2623 298 l 1,855,-1
 2619 296 l 1,856,-1
 2618 296 l 1,857,-1
 2614 298 l 1,858,-1
 2613 299 l 1,859,-1
 2612 301 l 1,860,-1
 2607 308 l 1,861,-1
 2604 318 l 1,862,-1
 2603 330 l 1,863,-1
 2605 351 l 1,864,-1
 2608 363 l 1,865,-1
 2606 369 l 1,866,-1
 2604 375 l 1,867,-1
 2600 376 l 1,868,-1
 2597 376 l 1,869,-1
 2595 376 l 1,870,-1
 2580 362 l 1,871,-1
 2576 358 l 1,872,-1
 2552 337 l 1,873,-1
 2539 330 l 1,874,-1
 2528 325 l 1,875,-1
 2522 324 l 1,876,-1
 2508 383 l 1,877,-1
 2507 384 l 1,878,-1
 2505 382 l 1,879,-1
 2503 381 l 1,880,-1
 2502 384 l 1,881,-1
 2495 379 l 1,882,-1
 2486 369 l 1,883,-1
 2464 337 l 1,884,-1
 2453 329 l 1,885,-1
 2443 324 l 1,886,-1
 2437 324 l 1,887,-1
 2427 402 l 1,888,-1
 2335 317 l 1,889,-1
 2332 317 l 1,890,-1
 2328 318 l 1,891,-1
 2327 320 l 1,892,-1
 2324 402 l 1,893,-1
 2319 409 l 1,894,-1
 2314 414 l 1,895,-1
 2311 416 l 1,896,-1
 2307 418 l 1,897,-1
 2292 409 l 1,898,-1
 2246 344 l 1,899,-1
 2236 335 l 1,900,-1
 2233 333 l 1,901,-1
 2229 332 l 1,902,-1
 2225 332 l 1,903,-1
 2223 332 l 1,904,-1
 2222 333 l 1,905,-1
 2220 342 l 1,906,-1
 2217 361 l 1,907,-1
 2216 380 l 1,908,-1
 2217 408 l 1,909,-1
 2262 601 l 1,910,-1
 2267 640 l 1,911,-1
 2250 628 l 1,912,-1
 2230 606 l 1,913,-1
 2205 576 l 1,914,-1
 2181 551 l 1,915,-1
 2171 543 l 1,916,-1
 2162 531 l 1,917,-1
 2150 517 l 1,918,-1
 2135 505 l 1,919,-1
 2132 503 l 1,920,-1
 2112 472 l 1,921,-1
 2131 445 l 1,922,-1
 2139 431 l 1,923,-1
 2145 412 l 1,924,-1
 2147 405 l 1,925,-1
 2148 386 l 1,926,-1
 2147 378 l 1,927,-1
 2145 371 l 1,928,-1
 2141 359 l 1,929,-1
 2137 355 l 1,930,-1
 2129 352 l 1,931,-1
 2124 348 l 1,932,-1
 2118 338 l 1,933,-1
 2113 332 l 1,934,-1
 2102 322 l 1,935,-1
 2091 315 l 1,936,-1
 2074 308 l 1,937,-1
 2063 306 l 1,938,-1
 2057 305 l 1,939,-1
 2053 307 l 1,940,-1
 2049 309 l 1,941,-1
 2046 312 l 1,942,-1
 2042 321 l 1,943,-1
 2039 330 l 1,944,-1
 2038 336 l 1,945,-1
 2037 362 l 1,946,-1
 2043 400 l 1,947,-1
 2056 457 l 1,948,-1
 2081 470 l 1,949,-1
 2146 544 l 1,950,-1
 2225 623 l 1,951,-1
 2257 667 l 1,952,-1
 2273 696 l 1,953,-1
 2284 726 l 1,954,-1
 2289 748 l 1,955,-1
 2292 751 l 1,956,-1
 2296 754 l 1,957,-1
 2300 756 l 1,958,-1
 2303 757 l 1,959,-1
 2304 756 l 1,960,-1
 2309 756 l 1,961,-1
 2311 756 l 1,962,-1
 2314 753 l 1,963,-1
 2315 751 l 1,964,-1
 2317 745 l 1,965,-1
 2249 410 l 1,966,-1
 2249 407 l 1,967,-1
 2250 406 l 1,968,-1
 2253 403 l 1,969,-1
 2257 402 l 1,970,-1
 2315 449 l 1,971,-1
 2317 450 l 1,972,-1
 2326 451 l 1,973,-1
 2328 451 l 1,974,-1
 2338 448 l 1,975,-1
 2350 440 l 1,976,-1
 2352 437 l 1,977,-1
 2356 431 l 1,978,-1
 2358 429 l 1,979,-1
 2361 391 l 1,980,-1
 2362 387 l 1,981,-1
 2364 385 l 1,982,-1
 2366 384 l 1,983,-1
 2369 384 l 1,984,-1
 2378 388 l 1,985,-1
 2380 390 l 1,986,-1
 2408 421 l 1,987,-1
 2425 435 l 1,988,-1
 2429 438 l 1,989,-1
 2442 443 l 1,990,-1
 2448 445 l 1,991,-1
 2449 445 l 1,992,-1
 2451 445 l 1,993,-1
 2456 443 l 1,994,-1
 2459 441 l 1,995,-1
 2475 396 l 1,996,-1
 2490 402 l 1,997,-1
 2492 405 l 1,998,-1
 2503 419 l 1,999,-1
 2513 428 l 1,1000,-1
 2520 433 l 1,1001,-1
 2528 436 l 1,1002,-1
 2534 437 l 1,1003,-1
 2536 437 l 1,1004,-1
 2537 437 l 1,1005,-1
 2539 436 l 1,1006,-1
 2541 436 l 1,1007,-1
 2553 379 l 1,1008,-1
 2554 378 l 1,1009,-1
 2557 377 l 1,1010,-1
 2561 377 l 1,1011,-1
 2599 422 l 1,1012,-1
 2600 424 l 1,1013,-1
 2607 431 l 1,1014,-1
 2616 437 l 1,1015,-1
 2619 440 l 1,1016,-1
 2633 434 l 1,1017,-1
 2634 429 l 1,1018,-1
 2635 426 l 1,1019,-1
 2636 424 l 1,1020,-1
 2639 422 l 1,1021,-1
 2640 421 l 1,1022,-1
 2641 420 l 1,1023,-1
 2644 418 l 1,1024,-1
 2647 418 l 1,1025,-1
 2659 429 l 1,1026,-1
 2676 452 l 1,1027,-1
 2743 561 l 1,1028,-1
 2750 570 l 1,1029,-1
 2758 586 l 1,1030,-1
 2779 621 l 1,1031,-1
 2777 626 l 1,1032,-1
 2776 628 l 1,1033,-1
 2741 626 l 1,1034,-1
 2740 628 l 1,1035,-1
 2740 629 l 1,1036,-1
 2741 632 l 1,1037,-1
 2744 636 l 1,1038,-1
 2798 656 l 1,1039,-1
 2807 671 l 1,1040,-1
 2812 675 l 1,1041,-1
 2814 676 l 1,1042,-1
 2829 674 l 1,1043,-1
 2830 672 l 1,1044,-1
 2830 669 l 1,1045,-1
 2830 666 l 1,1046,-1
 2832 664 l 1,1047,-1
 2840 663 l 1,1048,-1
 2887 665 l 1,1049,-1
 3036 689 l 1,1050,-1
 3082 687 l 1,1051,-1
 3100 684 l 1,1052,-1
 3127 675 l 1,1053,-1
 3129 670 l 1,1054,-1
 3134 664 l 1,1055,-1
 3134 662 l 1,1056,-1
 3134 660 l 1,684,-1
EndSplineSet
Validated: 1
EndChar

StartChar: gamma
Encoding: 947 947 156
Width: 1339
Flags: MW
LayerCount: 2
Fore
SplineSet
254 291 m 1,0,1
 34 291 l 1,2,-1
 34 135 l 1,3,-1
 237 135 l 1,4,5
 232 183 232 183 236 219 c 128,-1,6
 240 255 240 255 254 291 c 1,0,1
410 169 m 1,7,8
 406 190 406 190 404 205.5 c 128,-1,9
 402 221 402 221 402 234 c 128,-1,10
 402 247 402 247 403.5 260.5 c 128,-1,11
 405 274 405 274 408 291 c 1,12,-1
 269 291 l 1,13,14
 260 274 260 274 254 257 c 128,-1,15
 248 240 248 240 245 221.5 c 128,-1,16
 242 203 242 203 242.5 182 c 128,-1,17
 243 161 243 161 246 134 c 1,18,19
 269 135 269 135 289 136 c 128,-1,20
 309 137 309 137 328.5 140.5 c 128,-1,21
 348 144 348 144 368 150.5 c 128,-1,22
 388 157 388 157 410 169 c 1,7,8
706 -2 m 0,23,24
 706 3 706 3 702.5 5.5 c 128,-1,25
 699 8 699 8 694 8 c 0,26,27
 683 8 683 8 666.5 -1 c 128,-1,28
 650 -10 650 -10 629 -14 c 1,29,30
 644 -16 644 -16 659 -16 c 2,31,-1
 679 -16 l 2,32,33
 689 -16 689 -16 697.5 -13.5 c 128,-1,34
 706 -11 706 -11 706 -2 c 0,23,24
295 483 m 1,35,36
 295 482 295 482 279 475.5 c 128,-1,37
 263 469 263 469 244 458 c 128,-1,38
 225 447 225 447 209 431.5 c 128,-1,39
 193 416 193 416 193 397 c 0,40,41
 193 386 193 386 199.5 383.5 c 128,-1,42
 206 381 206 381 216.5 384.5 c 128,-1,43
 227 388 227 388 238.5 396.5 c 128,-1,44
 250 405 250 405 261 418 c 0,45,46
 269 428 269 428 273.5 436.5 c 128,-1,47
 278 445 278 445 281 452.5 c 2,48,-1
 287 467 l 2,49,50
 290 474 290 474 295 483 c 1,35,36
497 290 m 1,51,-1
 430 290 l 1,52,53
 429 282 429 282 427 269.5 c 128,-1,54
 425 257 425 257 423.5 241.5 c 128,-1,55
 422 226 422 226 422 209 c 128,-1,56
 422 192 422 192 425 176 c 1,57,58
 447 193 447 193 460 207 c 128,-1,59
 473 221 473 221 480.5 234.5 c 128,-1,60
 488 248 488 248 491.5 261.5 c 128,-1,61
 495 275 495 275 497 290 c 1,51,-1
1093 124 m 1,62,-1
 914 124 l 1,63,64
 890 77 890 77 857.5 49 c 128,-1,65
 825 21 825 21 775 21 c 0,66,67
 733 21 733 21 707 49.5 c 128,-1,68
 681 78 681 78 675 123 c 1,69,-1
 482 123 l 1,70,-1
 681 290 l 1,71,-1
 530 290 l 1,72,-1
 519 260.5 l 2,73,74
 513 245 513 245 502 229 c 128,-1,75
 491 213 491 213 473.5 196 c 128,-1,76
 456 179 456 179 428 161 c 1,77,78
 453 88 453 88 495 47.5 c 128,-1,79
 537 7 537 7 610 -13 c 1,80,81
 626 -10 626 -10 637 -6.5 c 128,-1,82
 648 -3 648 -3 657 0.5 c 128,-1,83
 666 4 666 4 674.5 8 c 128,-1,84
 683 12 683 12 694 16 c 1,85,86
 701 16 701 16 707 11 c 128,-1,87
 713 6 713 6 713 -2 c 0,88,89
 713 -11 713 -11 705.5 -17 c 128,-1,90
 698 -23 698 -23 678 -23 c 0,91,92
 661 -23 661 -23 649.5 -22 c 128,-1,93
 638 -21 638 -21 629 -20.5 c 128,-1,94
 620 -20 620 -20 612.5 -20.5 c 128,-1,95
 605 -21 605 -21 596 -24 c 2,96,-1
 555 -38 l 1,97,-1
 555 -32 l 1,98,-1
 601 -15 l 1,99,100
 567 -10 567 -10 540.5 5 c 128,-1,101
 514 20 514 20 493 39 c 128,-1,102
 472 58 472 58 457.5 78.5 c 128,-1,103
 443 99 443 99 434 116.5 c 128,-1,104
 425 134 425 134 420.5 144.5 c 2,105,-1
 416 155 l 1,106,107
 404 149 404 149 389.5 143 c 128,-1,108
 375 137 375 137 355.5 132 c 128,-1,109
 336 127 336 127 309.5 124 c 128,-1,110
 283 121 283 121 247 121 c 1,111,112
 259 47 259 47 295.5 -14 c 128,-1,113
 332 -75 332 -75 386 -118.5 c 128,-1,114
 440 -162 440 -162 507.5 -186.5 c 128,-1,115
 575 -211 575 -211 650 -211 c 0,116,117
 727 -211 727 -211 797.5 -187 c 128,-1,118
 868 -163 868 -163 926 -118.5 c 128,-1,119
 984 -74 984 -74 1027 -12.5 c 128,-1,120
 1070 49 1070 49 1093 124 c 1,62,-1
445 382 m 1,121,122
 434 390 434 390 412.5 390.5 c 128,-1,123
 391 391 391 391 367 383.5 c 128,-1,124
 343 376 343 376 319.5 360 c 128,-1,125
 296 344 296 344 281 319 c 1,126,-1
 414 319 l 1,127,128
 418 337 418 337 426 352 c 128,-1,129
 434 367 434 367 445 382 c 1,121,122
496 320 m 1,130,131
 494 334 494 334 490.5 345 c 128,-1,132
 487 356 487 356 469 367 c 1,133,134
 459 357 459 357 452.5 347 c 128,-1,135
 446 337 446 337 438 320 c 1,136,-1
 496 320 l 1,130,131
903 123 m 1,137,-1
 699 123 l 1,138,139
 708 85 708 85 733.5 66 c 128,-1,140
 759 47 759 47 796 47 c 0,141,142
 827 47 827 47 856.5 68 c 128,-1,143
 886 89 886 89 903 123 c 1,137,-1
891 320 m 1,144,145
 877 353 877 353 854.5 380 c 128,-1,146
 832 407 832 407 803 426.5 c 128,-1,147
 774 446 774 446 740.5 457 c 128,-1,148
 707 468 707 468 671 468 c 0,149,150
 623 468 623 468 575.5 444.5 c 128,-1,151
 528 421 528 421 493 388 c 1,152,153
 509 377 509 377 520 358 c 128,-1,154
 531 339 531 339 531 319 c 1,155,-1
 728 319 l 1,156,-1
 529 151 l 1,157,-1
 675 151 l 1,158,159
 679 184 679 184 693 214.5 c 128,-1,160
 707 245 707 245 732.5 268.5 c 128,-1,161
 758 292 758 292 797 306 c 128,-1,162
 836 320 836 320 891 320 c 1,144,145
913 151 m 1,163,164
 919 187 919 187 918 214.5 c 128,-1,165
 917 242 917 242 913 261.5 c 128,-1,166
 909 281 909 281 903.5 292.5 c 128,-1,167
 898 304 898 304 895 309 c 1,168,169
 840 309 840 309 803.5 295 c 128,-1,170
 767 281 767 281 744.5 258 c 128,-1,171
 722 235 722 235 711.5 206.5 c 128,-1,172
 701 178 701 178 699 151 c 1,173,-1
 913 151 l 1,163,164
1101 308 m 1,174,-1
 922 308 l 1,175,176
 932 260 932 260 931 223.5 c 128,-1,177
 930 187 930 187 924 152 c 1,178,-1
 1098 152 l 1,179,180
 1110 192 1110 192 1108 230.5 c 128,-1,181
 1106 269 1106 269 1101 308 c 1,174,-1
1308 153 m 1,182,-1
 1308 309 l 1,183,-1
 1150 309 l 1,184,185
 1153 282 1153 282 1154.5 264 c 128,-1,186
 1156 246 1156 246 1156 229 c 0,187,188
 1156 213 1156 213 1154 195.5 c 2,189,-1
 1149 153 l 1,190,-1
 1308 153 l 1,182,-1
1337 121 m 1,191,-1
 1142 121 l 1,192,193
 1120 43 1120 43 1076 -21 c 128,-1,194
 1032 -85 1032 -85 971.5 -130.5 c 128,-1,195
 911 -176 911 -176 837 -201 c 128,-1,196
 763 -226 763 -226 681 -226 c 0,197,198
 588 -226 588 -226 510.5 -199 c 128,-1,199
 433 -172 433 -172 375.5 -125 c 128,-1,200
 318 -78 318 -78 283 -15 c 128,-1,201
 248 48 248 48 239 121 c 1,202,-1
 1 121 l 1,203,-1
 1 318 l 1,204,-1
 265 318 l 1,205,206
 275 336 275 336 288 353.5 c 128,-1,207
 301 371 301 371 318.5 384.5 c 128,-1,208
 336 398 336 398 359.5 406.5 c 128,-1,209
 383 415 383 415 416 415 c 0,210,211
 426 415 426 415 439 412 c 128,-1,212
 452 409 452 409 463 405 c 1,213,214
 499 449 499 449 554 478.5 c 128,-1,215
 609 508 609 508 668 508 c 0,216,217
 711 508 711 508 750.5 494.5 c 128,-1,218
 790 481 790 481 823 456 c 128,-1,219
 856 431 856 431 880.5 396.5 c 128,-1,220
 905 362 905 362 919 320 c 1,221,-1
 1100 320 l 1,222,223
 1082 400 1082 400 1041 465.5 c 128,-1,224
 1000 531 1000 531 942 578 c 128,-1,225
 884 625 884 625 811 650.5 c 128,-1,226
 738 676 738 676 657 676 c 0,227,228
 607 676 607 676 556.5 662.5 c 128,-1,229
 506 649 506 649 460.5 625 c 128,-1,230
 415 601 415 601 375.5 567.5 c 128,-1,231
 336 534 336 534 308 493 c 1,232,-1
 336 502 l 1,233,-1
 336 497 l 1,234,-1
 305 485 l 1,235,236
 301 485 301 485 294.5 468 c 128,-1,237
 288 451 288 451 276 430 c 128,-1,238
 264 409 264 409 246 392 c 128,-1,239
 228 375 228 375 202 375 c 0,240,241
 196 375 196 375 192 381.5 c 128,-1,242
 188 388 188 388 188 398 c 0,243,244
 188 414 188 414 197.5 427.5 c 128,-1,245
 207 441 207 441 223 452 c 128,-1,246
 239 463 239 463 258 472.5 c 128,-1,247
 277 482 277 482 297 490 c 1,248,249
 326 537 326 537 368 575.5 c 128,-1,250
 410 614 410 614 459.5 642 c 128,-1,251
 509 670 509 670 564 685 c 128,-1,252
 619 700 619 700 675 700 c 0,253,254
 762 700 762 700 840 672.5 c 128,-1,255
 918 645 918 645 980 595 c 128,-1,256
 1042 545 1042 545 1085.5 475 c 128,-1,257
 1129 405 1129 405 1148 320 c 1,258,-1
 1337 320 l 1,259,-1
 1337 121 l 1,191,-1
EndSplineSet
Validated: 37
EndChar

StartChar: dieresis
Encoding: 168 168 289
Width: 375
Flags: W
LayerCount: 2
Fore
SplineSet
344 598 m 1,0,-1
 274 528 l 1,1,-1
 204 598 l 1,2,-1
 274 669 l 1,3,-1
 344 598 l 1,0,-1
171 598 m 1,4,-1
 101 528 l 1,5,-1
 31 598 l 1,6,-1
 101 669 l 1,7,-1
 171 598 l 1,4,-1
EndSplineSet
Validated: 1
EndChar

StartChar: cedilla
Encoding: 184 184 296
Width: 230
Flags: HW
LayerCount: 2
Fore
SplineSet
185 -129 m 0,0,1
 139.198 -176 139.198 -176 20 -176 c 2,2,-1
 20 -93 l 5,3,4
 55.8009 -100.679 55.8009 -100.679 102.001 -73.6641 c 4,5,6
 116 -65.3988 116 -65.3988 116 -19 c 2,7,-1
 116 4 l 1,8,-1
 210.666 3.8584 l 1,9,-1
 210 -61 l 2,10,11
 209.561 -103.797 209.561 -103.797 185 -129 c 0,0,1
EndSplineSet
EndChar

StartChar: uni0237
Encoding: 567 567 303
Width: 200
Flags: W
HStem: -243 100<-57 20.4701> 454 20G<51 150>
VStem: 51 99<-111.859 474>
LayerCount: 2
Fore
SplineSet
150 0 m 2,0,1
 150 -63 150 -63 141.5 -109 c 128,-1,2
 133 -155 133 -155 110 -185 c 128,-1,3
 87 -215 87 -215 46.5 -229 c 128,-1,4
 6 -243 6 -243 -57 -243 c 1,5,-1
 -57 -143 l 1,6,7
 -21 -143 -21 -143 0.5 -134 c 128,-1,8
 22 -125 22 -125 33 -107 c 128,-1,9
 44 -89 44 -89 47.5 -62.5 c 128,-1,10
 51 -36 51 -36 51 0 c 2,11,-1
 51 474 l 1,12,-1
 150 474 l 1,13,-1
 150 0 l 2,0,1
EndSplineSet
Validated: 1
EndChar

StartChar: trademark
Encoding: 8482 8482 304
Width: 412
VWidth: 601
Flags: W
LayerCount: 2
Fore
SplineSet
164.76 670 m 5,0,-1
 103.72 670 l 5,1,-1
 103.72 502 l 5,2,-1
 75.7197 502 l 5,3,-1
 75.7197 670 l 5,4,-1
 14.6807 670 l 5,5,-1
 14.6807 698 l 5,6,-1
 164.76 698 l 5,7,-1
 164.76 670 l 5,0,-1
375.319 502 m 5,8,-1
 347.88 502 l 5,9,-1
 347.88 654.319 l 5,10,-1
 278.72 569.76 l 5,11,-1
 209.56 654.319 l 5,12,-1
 209.56 502 l 5,13,-1
 182.12 502 l 5,14,-1
 182.12 697.72 l 5,15,-1
 210.12 697.72 l 5,16,-1
 278.72 614 l 5,17,-1
 347.319 697.72 l 5,18,-1
 375.319 697.72 l 5,19,-1
 375.319 502 l 5,8,-1
EndSplineSet
Validated: 1
EndChar

StartChar: Euro
Encoding: 8364 8364 305
Width: 750
Flags: W
LayerCount: 2
Fore
SplineSet
710 590 m 1,0,-1
 661 486 l 1,1,2
 632 530 632 530 579 557.5 c 128,-1,3
 526 585 526 585 455 585 c 0,4,5
 376 585 376 585 325.5 552.5 c 128,-1,6
 275 520 275 520 255 465 c 1,7,-1
 651 465 l 1,8,-1
 603 365 l 1,9,-1
 237 365 l 1,10,11
 235 345 235 345 235 331 c 0,12,13
 235 320 235 320 237 300 c 1,14,-1
 572 300 l 1,15,-1
 525 200 l 1,16,-1
 265 200 l 1,17,18
 281 155 281 155 333.5 121.5 c 128,-1,19
 386 88 386 88 460 88 c 0,20,21
 526 88 526 88 578 112 c 128,-1,22
 630 136 630 136 660 170 c 1,23,-1
 660 50 l 1,24,25
 632 27 632 27 574 7.5 c 128,-1,26
 516 -12 516 -12 445 -12 c 0,27,28
 321 -12 321 -12 242 47 c 128,-1,29
 163 106 163 106 130 200 c 1,30,-1
 5 200 l 1,31,-1
 55 300 l 1,32,-1
 106 300 l 1,33,34
 105 314 105 314 105 332 c 0,35,36
 105 351 105 351 106 365 c 1,37,-1
 5 365 l 1,38,-1
 55 465 l 1,39,-1
 130 465 l 1,40,41
 157 562 157 562 245 623.5 c 128,-1,42
 333 685 333 685 460 685 c 0,43,44
 615 685 615 685 710 590 c 1,0,-1
EndSplineSet
EndChar

StartChar: Oslash
Encoding: 216 216 309
Width: 790
Flags: W
LayerCount: 2
Fore
SplineSet
761 365 m 0,0,1
 761 287 761 287 732 217.5 c 128,-1,2
 703 148 703 148 653.5 96.5 c 128,-1,3
 604 45 604 45 537.5 15 c 128,-1,4
 471 -15 471 -15 396 -15 c 0,5,6
 331.663 -15 331.663 -15 273.58 7.07622 c 5,7,-1
 242.267 -58 l 5,8,-1
 132.267 -58 l 5,9,-1
 187.117 54.0477 l 5,10,11
 161.045 73.0438 161.045 73.0438 138.5 96.5 c 0,12,13
 89 148 89 148 60 217.5 c 128,-1,14
 31 287 31 287 31 365 c 0,15,16
 31 437 31 437 60 500.5 c 128,-1,17
 89 564 89 564 138.5 611.5 c 128,-1,18
 188 659 188 659 254.5 687 c 128,-1,19
 321 715 321 715 396 715 c 0,20,21
 451.89 715 451.89 715 503.06 699.451 c 5,22,-1
 542.98 781 l 5,23,-1
 645.98 781 l 5,24,-1
 588.36 661.252 l 5,25,26
 623.957 639.849 623.957 639.849 653.5 611.5 c 0,27,28
 703 564 703 564 732 500.5 c 128,-1,29
 761 437 761 437 761 365 c 0,0,1
661 362 m 0,30,31
 661 414 661 414 640 460 c 128,-1,32
 619 506 619 506 583 540.5 c 0,33,34
 565.324 557.44 565.324 557.44 544.876 570.883 c 1,35,-1
 317.57 98.4966 l 5,36,37
 357.138 85 357.138 85 401 85 c 0,38,39
 454 85 454 85 501 107 c 128,-1,40
 548 129 548 129 583.5 167 c 128,-1,41
 619 205 619 205 640 255 c 128,-1,42
 661 305 661 305 661 362 c 0,30,31
458.446 608.315 m 5,43,44
 429.642 615 429.642 615 399 615 c 0,45,46
 344 615 344 615 295 595 c 128,-1,47
 246 575 246 575 209.5 541 c 128,-1,48
 173 507 173 507 152 461.5 c 128,-1,49
 131 416 131 416 131 365 c 0,50,51
 131 307 131 307 152.5 256 c 128,-1,52
 174 205 174 205 210.5 167 c 0,53,54
 220.942 156.129 220.942 156.129 232.408 146.567 c 5,55,-1
 458.446 608.315 l 5,43,44
EndSplineSet
EndChar

StartChar: oslash
Encoding: 248 248 353
Width: 550
Flags: W
LayerCount: 2
Fore
SplineSet
521 237 m 0,0,1
 521 186 521 186 501.5 141 c 128,-1,2
 482 96 482 96 448.5 62.5 c 128,-1,3
 415 29 415 29 370.5 9.5 c 128,-1,4
 326 -10 326 -10 276 -10 c 0,5,6
 231.45 -10 231.45 -10 191.859 4.87971 c 1,7,-1
 180 -15 l 1,8,-1
 70 -22 l 1,9,-1
 114.354 51.6915 l 1,10,11
 108.516 56.9001 108.516 56.9001 103 62.5 c 0,12,13
 70 96 70 96 50.5 141 c 128,-1,14
 31 186 31 186 31 237 c 0,15,16
 31 287 31 287 50.5 331 c 128,-1,17
 70 375 70 375 103.5 408 c 128,-1,18
 137 441 137 441 181.5 460.5 c 128,-1,19
 226 480 226 480 277 480 c 0,20,21
 322.043 480 322.043 480 362.622 464.175 c 1,22,-1
 389 508 l 1,23,-1
 492 508 l 1,24,-1
 438.337 418.045 l 1,25,26
 443.811 413.189 443.811 413.189 449 408 c 0,27,28
 482 375 482 375 501.5 331 c 128,-1,29
 521 287 521 287 521 237 c 0,0,1
421 237 m 0,30,31
 421 266 421 266 409.5 292 c 0,32,33
 400.266 312.877 400.266 312.877 385.552 329.563 c 1,34,-1
 244.637 93.3498 l 1,35,36
 259.809 90 259.809 90 276 90 c 0,37,38
 306 90 306 90 332 101.5 c 128,-1,39
 358 113 358 113 378 133 c 128,-1,40
 398 153 398 153 409.5 180 c 128,-1,41
 421 207 421 207 421 237 c 0,30,31
309.608 376.094 m 1,42,43
 293.483 380 293.483 380 276 380 c 0,44,45
 246 380 246 380 219.5 368.5 c 128,-1,46
 193 357 193 357 173.5 337.5 c 128,-1,47
 154 318 154 318 142.5 291.5 c 128,-1,48
 131 265 131 265 131 236 c 0,49,50
 131 206 131 206 142.5 179 c 0,51,52
 152.047 156.585 152.047 156.585 167.108 139.339 c 1,53,-1
 309.608 376.094 l 1,42,43
EndSplineSet
EndChar

StartChar: ae
Encoding: 230 230 354
Width: 800
Flags: W
LayerCount: 2
Fore
SplineSet
417 0 m 1,0,-1
 317 0 l 1,1,-1
 317 25 l 1,2,3
 291 8 291 8 258.5 -1 c 128,-1,4
 226 -10 226 -10 199 -10 c 0,5,6
 165 -10 165 -10 135.5 0.5 c 128,-1,7
 106 11 106 11 84 30 c 128,-1,8
 62 49 62 49 49 73.5 c 128,-1,9
 36 98 36 98 36 127 c 0,10,11
 36 160 36 160 50.5 190 c 0,12,13
 68.9555 228.184 68.9555 228.184 98.5 242 c 0,14,15
 155.629 268.716 155.629 268.716 185.5 277 c 0,16,17
 242.75 294.1 242.75 294.1 300 311.2 c 1,18,19
 297.815 311.255 297.815 311.255 299 356.2 c 0,20,21
 299.321 374.804 299.321 374.804 275.014 388.066 c 1,22,23
 271.655 389.653 271.655 389.653 268 391 c 0,24,25
 249 398 249 398 220 398 c 0,26,27
 177 398 177 398 138 383.5 c 128,-1,28
 99 369 99 369 57 331 c 1,29,-1
 47 331 l 1,30,-1
 85 457 l 1,31,32
 113 475 113 475 151 486.5 c 128,-1,33
 189 498 189 498 224 498 c 0,34,35
 250 498 250 498 283.5 491.5 c 128,-1,36
 317 485 317 485 346.5 464 c 0,37,38
 348.664 462.46 348.664 462.46 350.78 460.814 c 1,39,40
 366.766 470.729 366.766 470.729 384.5 478.5 c 0,41,42
 429 498 429 498 480 498 c 0,43,44
 528 498 528 498 574 483 c 128,-1,45
 620 468 620 468 654 435 c 128,-1,46
 688 402 688 402 705.5 350 c 128,-1,47
 723 298 723 298 715 225 c 1,48,-1
 417 225 l 1,49,-1
 417 113.937 l 1,50,51
 431.44 105.496 431.44 105.496 448 99.5 c 0,52,53
 477 89 477 89 509 89 c 0,54,55
 561 89 561 89 606.5 106 c 128,-1,56
 652 123 652 123 684 150 c 1,57,-1
 684 46 l 1,58,59
 643 20 643 20 594.5 5 c 128,-1,60
 546 -10 546 -10 494 -10 c 0,61,62
 453.689 -10 453.689 -10 417 1.70257 c 1,63,-1
 417 0 l 1,0,-1
601 321 m 1,64,65
 601 337 601 337 591 352 c 128,-1,66
 581 367 581 367 564.5 378 c 128,-1,67
 548 389 548 389 526 396 c 128,-1,68
 504 403 504 403 479 403 c 0,69,70
 438.012 403 438.012 403 404.491 383.504 c 1,71,72
 413.764 356.694 413.764 356.694 416.163 321 c 1,73,-1
 601 321 l 1,64,65
313 223.2 m 1,74,75
 312.529 224.459 312.529 224.459 186 186.5 c 0,76,77
 161 179 161 179 146.5 165 c 128,-1,78
 132 151 132 151 132 129 c 0,79,80
 132 97 132 97 159.5 88 c 0,81,82
 198.533 75.2255 198.533 75.2255 226 79 c 0,83,84
 260.136 83.691 260.136 83.691 272.5 86.5 c 0,85,86
 298.25 92.3501 298.25 92.3501 324 98.2002 c 1,87,-1
 328 158.2 l 0,88,89
 325 198.2 325 198.2 313 223.2 c 1,74,75
EndSplineSet
EndChar

StartChar: brokenbar
Encoding: 166 166 355
Width: 251
Flags: HW
LayerCount: 2
Fore
SplineSet
70.5 311.5 m 5,0,-1
 180.5 311.5 l 5,1,-1
 180.5 0.5 l 5,2,-1
 70.5 0.5 l 5,3,-1
 70.5 311.5 l 5,0,-1
180.5 699.5 m 5,4,-1
 180.5 388.5 l 5,5,-1
 70.5 388.5 l 5,6,-1
 70.5 699.5 l 5,7,-1
 180.5 699.5 l 5,4,-1
EndSplineSet
EndChar

StartChar: plusminus
Encoding: 177 177 356
Width: 501
Flags: HW
LayerCount: 2
Fore
SplineSet
442.9 305.2 m 1,0,-1
 442.9 305.2 l 1,1,-1
 298.9 305.2 l 1,2,-1
 298.9 154 l 1,3,-1
 201.3 154 l 1,4,-1
 201.3 305.2 l 1,5,-1
 58.0996 305.2 l 1,6,-1
 58.0996 402.8 l 1,7,-1
 201.3 402.8 l 1,8,-1
 201.3 554 l 1,9,-1
 298.9 554 l 1,10,-1
 298.9 402.8 l 1,11,-1
 442.9 402.8 l 1,12,-1
 442.9 305.2 l 1,0,-1
439 1 m 5,13,-1
 439 1 l 5,14,-1
 61 1 l 5,15,-1
 61 99 l 5,16,-1
 439 99 l 5,17,-1
 439 1 l 5,13,-1
EndSplineSet
EndChar

StartChar: guillemotright
Encoding: 187 187 357
Width: 3033
Flags: W
LayerCount: 2
Fore
SplineSet
2484 397 m 1,0,-1
 2512 397 l 1,1,-1
 2388 536 l 1,2,-1
 3021 348 l 1,3,-1
 2386 161 l 1,4,-1
 2512 297 l 1,5,-1
 2483 297 l 1,6,-1
 1878 297 l 1,7,8
 1867 228.998 1867 228.998 1834.5 173.5 c 128,-1,9
 1802 118 1802 118 1754 78.5 c 128,-1,10
 1706 39 1706 39 1645.5 17.5 c 128,-1,11
 1585 -4 1585 -4 1518 -4 c 0,12,13
 1447 -4 1447 -4 1384.5 17.5 c 128,-1,14
 1322 39 1322 39 1273 78.5 c 128,-1,15
 1224 118 1224 118 1191.5 173.5 c 128,-1,16
 1159 229 1159 229 1148 297 c 1,17,-1
 681 297 l 1,18,-1
 554 161 l 1,19,-1
 415 161 l 1,20,-1
 542 297 l 1,21,-1
 475 297 l 1,22,-1
 348 161 l 1,23,-1
 208 161 l 1,24,-1
 336 297 l 1,25,-1
 268 297 l 1,26,-1
 142 161 l 1,27,-1
 2 161 l 1,28,-1
 130 297 l 1,29,-1
 62 297 l 1,30,-1
 2 297 l 1,31,-1
 2 397 l 1,32,-1
 62 397 l 1,33,-1
 130 397 l 1,34,-1
 2 533 l 1,35,-1
 142 533 l 1,36,-1
 268 397 l 1,37,-1
 336 397 l 1,38,-1
 208 533 l 1,39,-1
 348 533 l 1,40,-1
 475 397 l 1,41,-1
 542 397 l 1,42,-1
 415 533 l 1,43,-1
 554 533 l 1,44,-1
 681 397 l 1,45,-1
 1148 397 l 1,46,47
 1159 460 1159 460 1191.5 516.5 c 128,-1,48
 1224 573 1224 573 1273 615 c 128,-1,49
 1322 657 1322 657 1384.5 681.5 c 128,-1,50
 1447 706 1447 706 1518 706 c 0,51,52
 1585 706 1585 706 1645.5 681.5 c 128,-1,53
 1706 657 1706 657 1754 615 c 128,-1,54
 1802 573 1802 573 1834.5 516.5 c 128,-1,55
 1867 460 1867 460 1878 397 c 1,56,-1
 2484 397 l 1,0,-1
1778 346 m 0,57,58
 1778 398 1778 398 1757 445.5 c 128,-1,59
 1736 493 1736 493 1700.5 528.5 c 128,-1,60
 1665 564 1665 564 1617.5 585 c 128,-1,61
 1570 606 1570 606 1518 606 c 0,62,63
 1469 606 1469 606 1425 590 c 128,-1,64
 1381 574 1381 574 1345.5 546 c 128,-1,65
 1310 518 1310 518 1284.5 480 c 128,-1,66
 1259 442 1259 442 1248 397 c 1,67,-1
 1519 397 l 1,68,-1
 1519 297 l 1,69,-1
 1248 297 l 1,70,71
 1259 252 1259 252 1284.5 213 c 128,-1,72
 1310 174 1310 174 1345.5 146 c 128,-1,73
 1381 118 1381 118 1425 102 c 128,-1,74
 1469 86 1469 86 1518 86 c 0,75,76
 1570 86 1570 86 1617.5 107 c 128,-1,77
 1665 128 1665 128 1700.5 163.5 c 128,-1,78
 1736 199 1736 199 1757 246 c 128,-1,79
 1778 293 1778 293 1778 346 c 0,57,58
EndSplineSet
EndChar

StartChar: guillemotleft
Encoding: 171 171 358
Width: 3033
Flags: HW
LayerCount: 2
Fore
SplineSet
549 397 m 1,0,-1
 1155 397 l 1,1,2
 1166 460 1166 460 1198.5 516.5 c 128,-1,3
 1231 573 1231 573 1279 615 c 128,-1,4
 1327 657 1327 657 1387.5 681.5 c 128,-1,5
 1448 706 1448 706 1515 706 c 0,6,7
 1586 706 1586 706 1648.5 681.5 c 128,-1,8
 1711 657 1711 657 1760 615 c 128,-1,9
 1809 573 1809 573 1841.5 516.5 c 128,-1,10
 1874 460 1874 460 1885 397 c 1,11,-1
 2352 397 l 1,12,-1
 2479 533 l 1,13,-1
 2618 533 l 1,14,-1
 2491 397 l 1,15,-1
 2558 397 l 1,16,-1
 2685 533 l 1,17,-1
 2825 533 l 1,18,-1
 2697 397 l 1,19,-1
 2765 397 l 1,20,-1
 2891 533 l 1,21,-1
 3031 533 l 1,22,-1
 2903 397 l 1,23,-1
 2971 397 l 1,24,-1
 3031 397 l 1,25,-1
 3031 297 l 1,26,-1
 2971 297 l 1,27,-1
 2903 297 l 1,28,-1
 3031 161 l 1,29,-1
 2891 161 l 1,30,-1
 2765 297 l 1,31,-1
 2697 297 l 1,32,-1
 2825 161 l 1,33,-1
 2685 161 l 1,34,-1
 2558 297 l 1,35,-1
 2491 297 l 1,36,-1
 2618 161 l 1,37,-1
 2479 161 l 1,38,-1
 2352 297 l 1,39,-1
 1885 297 l 1,40,41
 1874 229 1874 229 1841.5 173.5 c 128,-1,42
 1809 118 1809 118 1760 78.5 c 128,-1,43
 1711 39 1711 39 1648.5 17.5 c 128,-1,44
 1586 -4 1586 -4 1515 -4 c 0,45,46
 1448 -4 1448 -4 1387.5 17.5 c 128,-1,47
 1327 39 1327 39 1279 78.5 c 128,-1,48
 1231 118 1231 118 1198.5 173.5 c 128,-1,49
 1166 228.998 1166 228.998 1155 297 c 1,50,-1
 550 297 l 1,51,-1
 521 297 l 1,52,-1
 647 161 l 1,53,-1
 12 348 l 1,54,-1
 645 536 l 1,55,-1
 521 397 l 1,56,-1
 549 397 l 1,0,-1
1255 346 m 0,57,58
 1255 293 1255 293 1276 246 c 128,-1,59
 1297 199 1297 199 1332.5 163.5 c 128,-1,60
 1368 128 1368 128 1415.5 107 c 128,-1,61
 1463 86 1463 86 1515 86 c 0,62,63
 1564 86 1564 86 1608 102 c 128,-1,64
 1652 118 1652 118 1687.5 146 c 128,-1,65
 1723 174 1723 174 1748.5 213 c 128,-1,66
 1774 252 1774 252 1785 297 c 1,67,-1
 1514 297 l 1,68,-1
 1514 397 l 1,69,-1
 1785 397 l 1,70,71
 1774 442 1774 442 1748.5 480 c 128,-1,72
 1723 518 1723 518 1687.5 546 c 128,-1,73
 1652 574 1652 574 1608 590 c 128,-1,74
 1564 606 1564 606 1515 606 c 0,75,76
 1463 606 1463 606 1415.5 585 c 128,-1,77
 1368 564 1368 564 1332.5 528.5 c 128,-1,78
 1297 493 1297 493 1276 445.5 c 128,-1,79
 1255 398 1255 398 1255 346 c 0,57,58
EndSplineSet
EndChar

StartChar: Lslash
Encoding: 321 321 365
Width: 480
Flags: W
LayerCount: 2
Fore
SplineSet
469 1 m 1,0,-1
 51 1 l 1,1,-1
 51 701 l 1,2,-1
 151 701 l 1,3,-1
 151 101 l 1,4,-1
 469 101 l 1,5,-1
 469 1 l 1,0,-1
EndSplineSet
EndChar

StartChar: lslash
Encoding: 322 322 366
Width: 325
Flags: W
LayerCount: 2
Fore
SplineSet
325 24 m 1,0,1
 302 8 302 8 272 -1.5 c 128,-1,2
 242 -11 242 -11 216 -11 c 0,3,4
 180 -11 180 -11 149 1 c 128,-1,5
 118 13 118 13 95 34.5 c 128,-1,6
 72 56 72 56 59 85 c 128,-1,7
 46 114 46 114 46 148 c 2,8,-1
 46 698 l 1,9,-1
 146 698 l 1,10,-1
 146 178 l 2,11,12
 146 139 146 139 166 114 c 128,-1,13
 186 89 186 89 216 89 c 0,14,15
 242 89 242 89 272 98.5 c 128,-1,16
 302 108 302 108 325 125 c 1,17,-1
 325 24 l 1,0,1
EndSplineSet
EndChar

StartChar: Gamma
Encoding: 915 915 367
Width: 720
Flags: W
LayerCount: 2
Fore
SplineSet
653 63 m 1,0,1
 599 26 599 26 534 5.5 c 128,-1,2
 469 -15 469 -15 397 -15 c 0,3,4
 324 -15 324 -15 260 15 c 128,-1,5
 196 45 196 45 148 96.5 c 128,-1,6
 100 148 100 148 72.5 217.5 c 128,-1,7
 45 287 45 287 45 365 c 0,8,9
 45 437 45 437 73.5 500.5 c 128,-1,10
 102 564 102 564 150.5 611.5 c 128,-1,11
 199 659 199 659 264.5 687 c 128,-1,12
 330 715 330 715 405 715 c 0,13,14
 474 715 474 715 536.5 696 c 128,-1,15
 599 677 599 677 653 643 c 1,16,-1
 653 522 l 1,17,18
 610 564 610 564 546 589.5 c 128,-1,19
 482 615 482 615 408 615 c 0,20,21
 354 615 354 615 306 595 c 128,-1,22
 258 575 258 575 222 541 c 128,-1,23
 186 507 186 507 165.5 462 c 128,-1,24
 145 417 145 417 145 367 c 0,25,26
 145 308 145 308 165.5 257 c 128,-1,27
 186 206 186 206 221 167.5 c 128,-1,28
 256 129 256 129 302.5 107 c 128,-1,29
 349 85 349 85 402 85 c 0,30,31
 422 85 422 85 447 89 c 128,-1,32
 472 93 472 93 494 99 c 128,-1,33
 516 105 516 105 532.5 112.5 c 128,-1,34
 549 120 549 120 553 127 c 1,35,-1
 553 332 l 1,36,-1
 653 332 l 1,37,-1
 653 63 l 1,0,1
EndSplineSet
EndChar

StartChar: Kappa
Encoding: 922 922 368
Width: 610
Flags: W
LayerCount: 2
Fore
SplineSet
589 700 m 1,0,-1
 279 364 l 1,1,-1
 575 -5 l 1,2,-1
 445 -5 l 1,3,-1
 150 367 l 1,4,-1
 150 0 l 1,5,-1
 50 0 l 1,6,-1
 50 699 l 1,7,-1
 151 699 l 1,8,-1
 151 372 l 1,9,-1
 452 700 l 1,10,-1
 589 700 l 1,0,-1
EndSplineSet
EndChar

StartChar: Xi
Encoding: 926 926 369
Width: 563
Flags: W
LayerCount: 2
Fore
SplineSet
548 -3 m 1,0,-1
 433 -3 l 1,1,-1
 282 255 l 1,2,-1
 130 -3 l 1,3,-1
 15 -3 l 1,4,-1
 224 353 l 1,5,-1
 20 700 l 1,6,-1
 135 700 l 1,7,-1
 282 451 l 1,8,-1
 428 700 l 1,9,-1
 543 700 l 1,10,-1
 339 353 l 1,11,-1
 548 -3 l 1,0,-1
EndSplineSet
EndChar

StartChar: Sigma
Encoding: 931 931 370
Width: 985
Flags: W
LayerCount: 2
Fore
SplineSet
974 700 m 1,0,-1
 691 0 l 1,1,-1
 597 0 l 1,2,-1
 495 252 l 1,3,-1
 393 0 l 1,4,-1
 299 0 l 1,5,-1
 16 700 l 1,6,-1
 123 700 l 1,7,-1
 346 151 l 1,8,-1
 441 385 l 1,9,-1
 314 700 l 1,10,-1
 421 700 l 1,11,-1
 495 518 l 1,12,-1
 569 700 l 1,13,-1
 676 700 l 1,14,-1
 549 385 l 1,15,-1
 644 151 l 1,16,-1
 867 700 l 1,17,-1
 974 700 l 1,0,-1
EndSplineSet
EndChar

StartChar: sigma1
Encoding: 962 962 371
Width: 893
Flags: W
LayerCount: 2
Fore
SplineSet
882 700 m 1,0,-1
 644 82 l 1,1,-1
 676 1 l 1,2,-1
 568 1 l 1,3,-1
 444 333 l 1,4,-1
 348 83 l 1,5,-1
 380 2 l 1,6,-1
 272 2 l 1,7,-1
 12 700 l 1,8,-1
 119 700 l 1,9,-1
 298 231 l 1,10,-1
 392 474 l 1,11,-1
 308 699 l 1,12,-1
 415 699 l 1,13,-1
 594 230 l 1,14,-1
 775 700 l 1,15,-1
 882 700 l 1,0,-1
EndSplineSet
EndChar

StartChar: Upsilon
Encoding: 933 933 372
Width: 1485
Flags: W
LayerCount: 2
Fore
SplineSet
661 362 m 0,0,1
 661 414 661 414 640 460 c 128,-1,2
 619 506 619 506 583 540.5 c 128,-1,3
 547 575 547 575 499.5 595 c 128,-1,4
 452 615 452 615 399 615 c 0,5,6
 344 615 344 615 295 595 c 128,-1,7
 246 575 246 575 209.5 541 c 128,-1,8
 173 507 173 507 152 461.5 c 128,-1,9
 131 416 131 416 131 365 c 0,10,11
 131 307 131 307 152.5 256 c 128,-1,12
 174 205 174 205 210.5 167 c 128,-1,13
 247 129 247 129 296 107 c 128,-1,14
 345 85 345 85 401 85 c 0,15,16
 439 85 439 85 474 96.5 c 128,-1,17
 509 108 509 108 540 129 c 1,18,-1
 481 183 l 1,19,-1
 566 240 l 1,20,-1
 610 199 l 1,21,22
 634 234 634 234 647.5 275 c 128,-1,23
 661 316 661 316 661 362 c 0,0,1
843 -15 m 1,24,-1
 696 -15 l 1,25,-1
 614 61 l 1,26,27
 568 25 568 25 512.5 5 c 128,-1,28
 457 -15 457 -15 396 -15 c 0,29,30
 321 -15 321 -15 254.5 15 c 128,-1,31
 188 45 188 45 138.5 96.5 c 128,-1,32
 89 148 89 148 60 217.5 c 128,-1,33
 31 287 31 287 31 365 c 0,34,35
 31 437 31 437 60 500.5 c 128,-1,36
 89 564 89 564 138.5 611.5 c 128,-1,37
 188 659 188 659 254.5 687 c 128,-1,38
 321 715 321 715 396 715 c 128,-1,39
 471 715 471 715 537.5 687 c 128,-1,40
 604 659 604 659 653.5 611.5 c 128,-1,41
 703 564 703 564 732 500.5 c 128,-1,42
 761 437 761 437 761 365 c 0,43,44
 761 299 761 299 740.5 239.5 c 128,-1,45
 720 180 720 180 683 132 c 1,46,-1
 843 -15 l 1,24,-1
1445 282 m 2,47,48
 1445 221 1445 221 1421.5 167 c 128,-1,49
 1398 113 1398 113 1356.5 72.5 c 128,-1,50
 1315 32 1315 32 1260 8.5 c 128,-1,51
 1205 -15 1205 -15 1142 -15 c 128,-1,52
 1079 -15 1079 -15 1024 8.5 c 128,-1,53
 969 32 969 32 927.5 72.5 c 128,-1,54
 886 113 886 113 862.5 167 c 128,-1,55
 839 221 839 221 839 282 c 2,56,-1
 839 700 l 1,57,-1
 939 700 l 1,58,-1
 939 283 l 2,59,60
 939 242 939 242 955 206 c 128,-1,61
 971 170 971 170 998.5 143 c 128,-1,62
 1026 116 1026 116 1063 100.5 c 128,-1,63
 1100 85 1100 85 1142 85 c 128,-1,64
 1184 85 1184 85 1221 100.5 c 128,-1,65
 1258 116 1258 116 1285.5 143 c 128,-1,66
 1313 170 1313 170 1329 206 c 128,-1,67
 1345 242 1345 242 1345 283 c 2,68,-1
 1345 700 l 1,69,-1
 1445 700 l 1,70,-1
 1445 282 l 2,47,48
EndSplineSet
EndChar

StartChar: upsilon
Encoding: 965 965 373
Width: 550
Flags: W
LayerCount: 2
Fore
SplineSet
420 237 m 0,0,1
 420 271 420 271 407.5 297.5 c 128,-1,2
 395 324 395 324 374.5 342.5 c 128,-1,3
 354 361 354 361 328 370.5 c 128,-1,4
 302 380 302 380 275 380 c 0,5,6
 245 380 245 380 218.5 368 c 128,-1,7
 192 356 192 356 172.5 336.5 c 128,-1,8
 153 317 153 317 141.5 290.5 c 128,-1,9
 130 264 130 264 130 236 c 0,10,11
 132 202 132 202 144.5 175 c 128,-1,12
 157 148 157 148 177 129 c 128,-1,13
 197 110 197 110 222.5 100 c 128,-1,14
 248 90 248 90 275 90 c 0,15,16
 310 91 310 91 337 103.5 c 128,-1,17
 364 116 364 116 382.5 136.5 c 128,-1,18
 401 157 401 157 410.5 182.5 c 128,-1,19
 420 208 420 208 420 237 c 0,0,1
986 -185 m 1,20,21
 941 -220 941 -220 887 -232 c 0,22,23
 831 -244 831 -244 771.5 -237.5 c 128,-1,24
 712 -231 712 -231 652 -210 c 128,-1,25
 592 -189 592 -189 531 -157.5 c 128,-1,26
 470 -126 470 -126 411 -88 c 0,27,28
 370 -63 370 -63 336 -47.5 c 128,-1,29
 302 -32 302 -32 274 -22.5 c 128,-1,30
 246 -13 246 -13 223 -6.5 c 128,-1,31
 200 0 200 0 179 9 c 0,32,33
 109 41 109 41 69.5 101 c 128,-1,34
 30 161 30 161 30 237 c 0,35,36
 31 292 31 292 52 336.5 c 128,-1,37
 73 381 73 381 107 413 c 128,-1,38
 141 445 141 445 185 462.5 c 128,-1,39
 229 480 229 480 276 480 c 0,40,41
 330 478 330 478 375 457.5 c 128,-1,42
 420 437 420 437 452 403 c 128,-1,43
 484 369 484 369 502 326 c 128,-1,44
 520 283 520 283 520 237 c 0,45,46
 518 171 518 171 490 119.5 c 128,-1,47
 462 68 462 68 416 35 c 1,48,49
 495 -19 495 -19 573 -62 c 0,50,51
 732 -153 732 -153 861 -147 c 0,52,53
 930 -144 930 -144 986 -107 c 1,54,-1
 986 -185 l 1,20,21
EndSplineSet
EndChar

StartChar: bar
Encoding: 124 124 376
Width: 200
Flags: W
LayerCount: 2
Fore
SplineSet
150 0 m 1,0,-1
 50 0 l 1,1,-1
 50 700 l 1,2,-1
 150 700 l 1,3,-1
 150 0 l 1,0,-1
EndSplineSet
EndChar

StartChar: Dcroat
Encoding: 272 272 377
Width: 685
Flags: W
LayerCount: 2
Fore
SplineSet
556 362 m 0,0,1
 556 411 556 411 535 454 c 128,-1,2
 514 497 514 497 478.5 529.5 c 128,-1,3
 443 562 443 562 395.5 581 c 128,-1,4
 348 600 348 600 296 600 c 2,5,-1
 151 600 l 1,6,-1
 151 100 l 1,7,-1
 296 100 l 2,8,9
 349 100 349 100 396 121 c 128,-1,10
 443 142 443 142 478.5 177.5 c 128,-1,11
 514 213 514 213 535 260.5 c 128,-1,12
 556 308 556 308 556 362 c 0,0,1
656 365 m 0,13,14
 656 290 656 290 627.5 223.5 c 128,-1,15
 599 157 599 157 550 107.5 c 128,-1,16
 501 58 501 58 435.5 29 c 128,-1,17
 370 0 370 0 296 0 c 2,18,-1
 51 0 l 1,19,-1
 51 700 l 1,20,-1
 294 700 l 2,21,22
 368 700 368 700 434 673.5 c 128,-1,23
 500 647 500 647 549.5 601 c 128,-1,24
 599 555 599 555 627.5 494.5 c 128,-1,25
 656 434 656 434 656 365 c 0,13,14
EndSplineSet
EndChar

StartChar: dcroat
Encoding: 273 273 378
Width: 550
Flags: W
LayerCount: 2
Fore
SplineSet
499 0 m 1,0,-1
 399 0 l 1,1,-1
 399 23 l 1,2,3
 372 7 372 7 341 -1.5 c 128,-1,4
 310 -10 310 -10 276 -10 c 0,5,6
 226 -10 226 -10 181.5 9.5 c 128,-1,7
 137 29 137 29 103.5 62.5 c 128,-1,8
 70 96 70 96 50.5 141 c 128,-1,9
 31 186 31 186 31 237 c 0,10,11
 31 287 31 287 50.5 331 c 128,-1,12
 70 375 70 375 103 408 c 128,-1,13
 136 441 136 441 180.5 460.5 c 128,-1,14
 225 480 225 480 275 480 c 0,15,16
 309 480 309 480 340.5 471 c 128,-1,17
 372 462 372 462 399 446 c 1,18,-1
 399 700 l 1,19,-1
 499 700 l 1,20,-1
 499 0 l 1,0,-1
399 334 m 1,21,22
 376 355 376 355 344.5 367.5 c 128,-1,23
 313 380 313 380 276 380 c 0,24,25
 246 380 246 380 220 368.5 c 128,-1,26
 194 357 194 357 174 337.5 c 128,-1,27
 154 318 154 318 142.5 292 c 128,-1,28
 131 266 131 266 131 237 c 0,29,30
 131 207 131 207 142.5 180 c 128,-1,31
 154 153 154 153 174 133 c 128,-1,32
 194 113 194 113 220 101.5 c 128,-1,33
 246 90 246 90 276 90 c 0,34,35
 312 90 312 90 344 102 c 128,-1,36
 376 114 376 114 399 135 c 1,37,-1
 399 334 l 1,21,22
EndSplineSet
EndChar

StartChar: section
Encoding: 167 167 379
Width: 517
Flags: W
LayerCount: 2
Fore
SplineSet
220 425 m 1,0,1
 103.862 336.453 103.862 336.453 184 296 c 0,2,3
 185.97 295.669 185.97 295.669 258.261 262.508 c 128,-1,4
 330.552 229.346 330.552 229.346 362 202 c 1,5,6
 363 203 363 203 364.5 205.5 c 128,-1,7
 366 208 366 208 367 209 c 0,8,9
 388.283 230.283 388.283 230.283 387.963 279.196 c 128,-1,10
 387.642 328.109 387.642 328.109 324.908 376.677 c 128,-1,11
 262.174 425.246 262.174 425.246 220 425 c 1,0,1
256 647 m 0,12,13
 160.606 586.34 160.606 586.34 245 523 c 0,14,15
 250.246 519.016 250.246 519.016 304.767 495.689 c 128,-1,16
 359.288 472.363 359.288 472.363 407.563 441.393 c 128,-1,17
 455.839 410.424 455.839 410.424 477.42 353.212 c 128,-1,18
 499 296 499 296 486.124 227.699 c 128,-1,19
 473.247 159.398 473.247 159.398 419 116 c 1,20,21
 437 63 437 63 425 4.5 c 128,-1,22
 413 -54 413 -54 372 -97 c 128,-1,23
 331 -140 331 -140 266.5 -155 c 128,-1,24
 202 -170 202 -170 144 -147 c 128,-1,25
 86 -124 86 -124 55 -73 c 1,26,27
 31 -30 31 -30 28 -21 c 1,28,-1
 113 14 l 1,29,30
 128.658 -20.4474 128.658 -20.4474 152.829 -40.2237 c 128,-1,31
 177 -60 177 -60 203 -61 c 0,32,33
 276 -66 276 -66 306 -18 c 0,34,35
 324 12 324 12 327 46.5 c 128,-1,36
 330 81 330 81 309 110 c 1,37,38
 281.488 143.986 281.488 143.986 202 178.5 c 0,39,40
 164 195 164 195 146 205 c 0,41,42
 62 249 62 249 47 305 c 0,43,44
 23 391 23 391 71 451 c 0,45,46
 93 479 93 479 125 498 c 1,47,48
 113 513 113 513 108 532 c 0,49,50
 85 617 85 617 133 678 c 0,51,52
 167 722 167 722 216.5 738.5 c 128,-1,53
 266 755 266 755 311 744.5 c 128,-1,54
 356 734 356 734 390 707.5 c 128,-1,55
 424 681 424 681 438 649 c 1,56,-1
 348.2 606.129 l 1,57,58
 314.3 682.129 314.3 682.129 256 647 c 0,12,13
EndSplineSet
EndChar

StartChar: onehalf
Encoding: 189 189 380
Width: 790
Flags: W
LayerCount: 2
Fore
SplineSet
432.717 429.728 m 4,0,1
 432.717 440.288 432.717 440.288 427.7 449.793 c 132,-1,2
 422.684 459.297 422.684 459.297 414.235 466.424 c 132,-1,3
 405.788 473.553 405.788 473.553 394.436 477.776 c 132,-1,4
 383.083 482 383.083 482 370.94 482 c 6,5,-1
 330.812 482 l 5,6,-1
 330.812 375.873 l 5,7,-1
 387.308 375.873 l 6,8,9
 396.283 375.873 396.283 375.873 404.468 380.097 c 132,-1,10
 412.652 384.32 412.652 384.32 418.988 391.712 c 132,-1,11
 425.324 399.104 425.324 399.104 429.021 408.873 c 132,-1,12
 432.717 418.641 432.717 418.641 432.717 429.728 c 4,0,1
550.988 166.783 m 5,13,-1
 486.572 166.783 l 5,14,-1
 379.388 320.96 l 5,15,-1
 330.812 320.96 l 5,16,-1
 330.812 165.2 l 5,17,-1
 278.012 165.2 l 5,18,-1
 278.012 534.8 l 5,19,-1
 377.276 534.8 l 6,20,21
 399.452 534.8 399.452 534.8 419.517 526.353 c 132,-1,22
 439.58 517.903 439.58 517.903 454.628 503.647 c 132,-1,23
 469.676 489.393 469.676 489.393 478.652 470.12 c 132,-1,24
 487.628 450.848 487.628 450.848 487.628 429.728 c 4,25,26
 487.628 399.632 487.628 399.632 473.373 375.344 c 132,-1,27
 459.116 351.056 459.116 351.056 435.355 335.217 c 5,28,-1
 550.988 166.783 l 5,13,-1
661 362 m 0,29,30
 661 414 661 414 640 460 c 128,-1,31
 619 506 619 506 583 540.5 c 128,-1,32
 547 575 547 575 499.5 595 c 128,-1,33
 452 615 452 615 399 615 c 0,34,35
 344 615 344 615 295 595 c 128,-1,36
 246 575 246 575 209.5 541 c 128,-1,37
 173 507 173 507 152 461.5 c 128,-1,38
 131 416 131 416 131 365 c 0,39,40
 131 307 131 307 152.5 256 c 128,-1,41
 174 205 174 205 210.5 167 c 128,-1,42
 247 129 247 129 296 107 c 128,-1,43
 345 85 345 85 401 85 c 0,44,45
 454 85 454 85 501 107 c 128,-1,46
 548 129 548 129 583.5 167 c 128,-1,47
 619 205 619 205 640 255 c 128,-1,48
 661 305 661 305 661 362 c 0,29,30
761 365 m 0,49,50
 761 287 761 287 732 217.5 c 128,-1,51
 703 148 703 148 653.5 96.5 c 128,-1,52
 604 45 604 45 537.5 15 c 128,-1,53
 471 -15 471 -15 396 -15 c 128,-1,54
 321 -15 321 -15 254.5 15 c 128,-1,55
 188 45 188 45 138.5 96.5 c 128,-1,56
 89 148 89 148 60 217.5 c 128,-1,57
 31 287 31 287 31 365 c 0,58,59
 31 437 31 437 60 500.5 c 128,-1,60
 89 564 89 564 138.5 611.5 c 128,-1,61
 188 659 188 659 254.5 687 c 128,-1,62
 321 715 321 715 396 715 c 128,-1,63
 471 715 471 715 537.5 687 c 128,-1,64
 604 659 604 659 653.5 611.5 c 128,-1,65
 703 564 703 564 732 500.5 c 128,-1,66
 761 437 761 437 761 365 c 0,49,50
EndSplineSet
EndChar

StartChar: thorn
Encoding: 254 254 381
Width: 555
Flags: W
LayerCount: 2
Fore
SplineSet
424 237 m 0,0,1
 424 266 424 266 412.5 292 c 128,-1,2
 401 318 401 318 381 337.5 c 128,-1,3
 361 357 361 357 335 368.5 c 128,-1,4
 309 380 309 380 279 380 c 0,5,6
 240 380 240 380 207 366.5 c 128,-1,7
 174 353 174 353 151 331 c 1,8,-1
 151 145 l 1,9,10
 174 119 174 119 207 104.5 c 128,-1,11
 240 90 240 90 279 90 c 0,12,13
 309 90 309 90 335 101.5 c 128,-1,14
 361 113 361 113 381 133 c 128,-1,15
 401 153 401 153 412.5 180 c 128,-1,16
 424 207 424 207 424 237 c 0,0,1
524 237 m 0,17,18
 524 186 524 186 504.5 141 c 128,-1,19
 485 96 485 96 451.5 62.5 c 128,-1,20
 418 29 418 29 373.5 9.5 c 128,-1,21
 329 -10 329 -10 279 -10 c 0,22,23
 244 -10 244 -10 211.5 -0.5 c 128,-1,24
 179 9 179 9 151 26 c 1,25,-1
 151 -201 l 1,26,-1
 51 -201 l 1,27,-1
 51 623 l 5,28,-1
 151 623 l 5,29,-1
 151 448 l 1,30,31
 180 463 180 463 212 471.5 c 128,-1,32
 244 480 244 480 280 480 c 0,33,34
 330 480 330 480 374.5 460.5 c 128,-1,35
 419 441 419 441 452 408 c 128,-1,36
 485 375 485 375 504.5 331 c 128,-1,37
 524 287 524 287 524 237 c 0,17,18
EndSplineSet
EndChar

StartChar: Thorn
Encoding: 222 222 382
Width: 555
Flags: W
LayerCount: 2
Fore
SplineSet
424 237 m 0,0,1
 424 266 424 266 412.5 292 c 128,-1,2
 401 318 401 318 381 337.5 c 128,-1,3
 361 357 361 357 335 368.5 c 128,-1,4
 309 380 309 380 279 380 c 0,5,6
 240 380 240 380 207 366.5 c 128,-1,7
 174 353 174 353 151 331 c 1,8,-1
 151 145 l 1,9,10
 174 119 174 119 207 104.5 c 128,-1,11
 240 90 240 90 279 90 c 0,12,13
 309 90 309 90 335 101.5 c 128,-1,14
 361 113 361 113 381 133 c 128,-1,15
 401 153 401 153 412.5 180 c 128,-1,16
 424 207 424 207 424 237 c 0,0,1
524 237 m 0,17,18
 524 186 524 186 504.5 141 c 128,-1,19
 485 96 485 96 451.5 62.5 c 128,-1,20
 418 29 418 29 373.5 9.5 c 128,-1,21
 329 -10 329 -10 279 -10 c 0,22,23
 244 -10 244 -10 211.5 -0.5 c 128,-1,24
 179 9 179 9 151 26 c 1,25,-1
 151 -201 l 1,26,-1
 51 -201 l 1,27,-1
 51 583 l 5,28,-1
 151 583 l 5,29,-1
 151 448 l 1,30,31
 180 463 180 463 212 471.5 c 128,-1,32
 244 480 244 480 280 480 c 0,33,34
 330 480 330 480 374.5 460.5 c 128,-1,35
 419 441 419 441 452 408 c 128,-1,36
 485 375 485 375 504.5 331 c 128,-1,37
 524 287 524 287 524 237 c 0,17,18
EndSplineSet
EndChar

StartChar: germandbls
Encoding: 223 223 383
Width: 594
Flags: W
LayerCount: 2
Fore
SplineSet
525 223.5 m 128,-1,1
 558 195 558 195 563 153 c 128,-1,2
 568 111 568 111 549.5 71 c 128,-1,3
 531 31 531 31 492 13 c 0,4,5
 429 -15 429 -15 350.5 -9.5 c 128,-1,6
 272 -4 272 -4 212 28 c 1,7,8
 209 31 209 31 209 68.5 c 2,9,-1
 209 130 l 1,10,11
 271 106 271 106 275 104 c 0,12,13
 346 74 346 74 414 81 c 0,14,15
 449 85 449 85 464 114 c 0,16,17
 473 133 473 133 457 150 c 128,-1,18
 441 167 441 167 418 175.5 c 128,-1,19
 395 184 395 184 362.5 188.5 c 0,20,21
 231.313 206.664 231.313 206.664 207 286 c 0,22,23
 199 312 199 312 203.5 343 c 128,-1,24
 208 374 208 374 221 389 c 128,-1,25
 234 404 234 404 277 424.5 c 128,-1,26
 320 445 320 445 345 484 c 1,27,28
 351 496 351 496 345.5 507 c 128,-1,29
 340 518 340 518 328 525 c 0,30,31
 271 555 271 555 202 519 c 0,32,33
 184 509 184 509 175 488.5 c 128,-1,34
 166 468 166 468 165 453 c 128,-1,35
 164 438 164 438 164 405 c 2,36,-1
 164 -59 l 1,37,-1
 161 -62 l 1,38,-1
 72 -62 l 1,39,-1
 70 -59 l 1,40,41
 70 -5 70 -5 70.5 196.5 c 128,-1,42
 71 398 71 398 70 407 c 0,43,44
 69 481 69 481 88 530.5 c 128,-1,45
 107 580 107 580 159 607 c 0,46,47
 195 625 195 625 242 629.5 c 128,-1,48
 289 634 289 634 324.5 624.5 c 128,-1,49
 360 615 360 615 394 590 c 128,-1,50
 428 565 428 565 439 528 c 128,-1,51
 450 491 450 491 439 455 c 0,52,53
 422 398 422 398 337 368 c 0,54,55
 319 361 319 361 304.5 345 c 128,-1,56
 290 329 290 329 302.5 311.5 c 128,-1,57
 315 294 315 294 339.5 285.5 c 128,-1,58
 364 277 364 277 398.5 273.5 c 128,-1,59
 433 270 433 270 449 265 c 0,60,0
 492 252 492 252 525 223.5 c 128,-1,1
EndSplineSet
EndChar

StartChar: delta
Encoding: 948 948 385
Width: 1000
Flags: HW
LayerCount: 2
Fore
SplineSet
1000 297 m 1,0,-1
 681 297 l 1,1,-1
 554 161 l 1,2,-1
 415 161 l 1,3,-1
 542 297 l 1,4,-1
 475 297 l 1,5,-1
 348 161 l 1,6,-1
 208 161 l 1,7,-1
 336 297 l 1,8,-1
 268 297 l 1,9,-1
 142 161 l 1,10,-1
 2 161 l 1,11,-1
 130 297 l 1,12,-1
 62 297 l 1,13,-1
 2 297 l 1,14,-1
 2 397 l 1,15,-1
 62 397 l 1,16,-1
 130 397 l 1,17,-1
 2 533 l 1,18,-1
 142 533 l 1,19,-1
 268 397 l 1,20,-1
 336 397 l 1,21,-1
 208 533 l 1,22,-1
 348 533 l 1,23,-1
 475 397 l 1,24,-1
 542 397 l 1,25,-1
 415 533 l 1,26,-1
 554 533 l 1,27,-1
 681 397 l 1,28,-1
 1000 397 l 1,29,-1
 1000 297 l 1,0,-1
EndSplineSet
EndChar

StartChar: epsilon
Encoding: 949 949 386
Width: 1000
Flags: HW
LayerCount: 2
Fore
SplineSet
1000 297 m 1,0,-1
 860 297 l 1,1,2
 849 229 849 229 816.5 173.5 c 128,-1,3
 784 118 784 118 736 78.5 c 128,-1,4
 688 39 688 39 627.5 17.5 c 128,-1,5
 567 -4 567 -4 500 -4 c 0,6,7
 429 -4 429 -4 366.5 17.5 c 128,-1,8
 304 39 304 39 255 78.5 c 128,-1,9
 206 118 206 118 173.5 173.5 c 128,-1,10
 141 229 141 229 130 297 c 1,11,-1
 0 297 l 1,12,-1
 0 397 l 1,13,-1
 130 397 l 1,14,15
 141 460 141 460 173.5 516.5 c 128,-1,16
 206 573 206 573 255 615 c 128,-1,17
 304 657 304 657 366.5 681.5 c 128,-1,18
 429 706 429 706 500 706 c 0,19,20
 567 706 567 706 627.5 681.5 c 128,-1,21
 688 657 688 657 736 615 c 128,-1,22
 784 573 784 573 816.5 516.5 c 128,-1,23
 849 460 849 460 860 397 c 1,24,-1
 1000 397 l 1,25,-1
 1000 297 l 1,0,-1
760 346 m 0,26,27
 760 398 760 398 739 445.5 c 128,-1,28
 718 493 718 493 682.5 528.5 c 128,-1,29
 647 564 647 564 599.5 585 c 128,-1,30
 552 606 552 606 500 606 c 0,31,32
 451 606 451 606 407 590 c 128,-1,33
 363 574 363 574 327.5 546 c 128,-1,34
 292 518 292 518 266.5 480 c 128,-1,35
 241 442 241 442 230 397 c 1,36,-1
 501 397 l 1,37,-1
 501 297 l 1,38,-1
 230 297 l 1,39,40
 241 252 241 252 266.5 213 c 128,-1,41
 292 174 292 174 327.5 146 c 128,-1,42
 363 118 363 118 407 102 c 128,-1,43
 451 86 451 86 500 86 c 0,44,45
 552 86 552 86 599.5 107 c 128,-1,46
 647 128 647 128 682.5 163.5 c 128,-1,47
 718 199 718 199 739 246 c 128,-1,48
 760 293 760 293 760 346 c 0,26,27
EndSplineSet
EndChar

StartChar: zeta
Encoding: 950 950 387
Width: 1000
Flags: HW
LayerCount: 2
Fore
SplineSet
1000 348 m 1,0,-1
 365 161 l 1,1,-1
 491 297 l 1,2,-1
 462 297 l 1,3,-1
 0 297 l 1,4,-1
 0 397 l 1,5,-1
 463 397 l 1,6,-1
 491 397 l 1,7,-1
 367 536 l 1,8,-1
 1000 348 l 1,0,-1
EndSplineSet
EndChar

StartChar: eta
Encoding: 951 951 388
Width: 1000
Flags: HW
LayerCount: 2
Fore
SplineSet
1000 297 m 1,0,-1
 538 297 l 1,1,-1
 509 297 l 1,2,-1
 635 161 l 1,3,-1
 0 348 l 1,4,-1
 633 536 l 1,5,-1
 509 397 l 1,6,-1
 537 397 l 1,7,-1
 1000 397 l 1,8,-1
 1000 297 l 1,0,-1
EndSplineSet
EndChar

StartChar: theta
Encoding: 952 952 389
Width: 1000
Flags: HW
LayerCount: 2
Fore
SplineSet
1000 297 m 1,0,-1
 870 297 l 1,1,2
 859 229 859 229 826.5 173.5 c 128,-1,3
 794 118 794 118 745 78.5 c 128,-1,4
 696 39 696 39 633.5 17.5 c 128,-1,5
 571 -4 571 -4 500 -4 c 0,6,7
 432 -4 432 -4 372 17.5 c 128,-1,8
 312 39 312 39 264 78.5 c 128,-1,9
 216 118 216 118 183.5 173.5 c 128,-1,10
 151 229 151 229 140 297 c 1,11,-1
 0 297 l 1,12,-1
 0 397 l 1,13,-1
 140 397 l 1,14,15
 151 460 151 460 183.5 516.5 c 128,-1,16
 216 573 216 573 264 615 c 128,-1,17
 312 657 312 657 372 681.5 c 128,-1,18
 432 706 432 706 500 706 c 0,19,20
 571 706 571 706 633.5 681.5 c 128,-1,21
 696 657 696 657 745 615 c 128,-1,22
 794 573 794 573 826.5 516.5 c 128,-1,23
 859 460 859 460 870 397 c 1,24,-1
 1000 397 l 1,25,-1
 1000 297 l 1,0,-1
770 297 m 1,26,27
 499 297 l 1,28,-1
 499 397 l 1,29,-1
 770 397 l 1,30,31
 759 442 759 442 733.5 480 c 128,-1,32
 708 518 708 518 672.5 546 c 128,-1,33
 637 574 637 574 593 590 c 128,-1,34
 549 606 549 606 500 606 c 0,35,36
 447 606 447 606 400 585 c 128,-1,37
 353 564 353 564 317.5 528.5 c 128,-1,38
 282 493 282 493 261 445.5 c 128,-1,39
 240 398 240 398 240 346 c 0,40,41
 240 293 240 293 261 246 c 128,-1,42
 282 199 282 199 317.5 163.5 c 128,-1,43
 353 128 353 128 400 107 c 128,-1,44
 447 86 447 86 500 86 c 0,45,46
 549 86 549 86 593 102 c 128,-1,47
 637 118 637 118 672.5 146 c 128,-1,48
 708 174 708 174 733.5 213 c 128,-1,49
 759 252 759 252 770 297 c 1,26,27
EndSplineSet
EndChar

StartChar: iota
Encoding: 953 953 390
Width: 1000
Flags: HW
LayerCount: 2
Fore
SplineSet
1000 161 m 1,0,-1
 861 161 l 1,1,-1
 734 297 l 1,2,-1
 666 297 l 1,3,-1
 794 161 l 1,4,-1
 654 161 l 1,5,-1
 528 297 l 1,6,-1
 460 297 l 1,7,-1
 588 161 l 1,8,-1
 448 161 l 1,9,-1
 322 297 l 1,10,-1
 0 297 l 1,11,-1
 0 397 l 1,12,-1
 322 397 l 1,13,-1
 448 533 l 1,14,-1
 588 533 l 1,15,-1
 460 397 l 1,16,-1
 528 397 l 1,17,-1
 654 533 l 1,18,-1
 794 533 l 1,19,-1
 666 397 l 1,20,-1
 734 397 l 1,21,-1
 861 533 l 1,22,-1
 1000 533 l 1,23,-1
 873 397 l 1,24,-1
 941 397 l 1,25,-1
 1000 397 l 1,26,-1
 1000 297 l 1,27,-1
 941 297 l 1,28,-1
 873 297 l 1,29,-1
 1000 161 l 1,0,-1
EndSplineSet
EndChar

StartChar: logicalnot
Encoding: 172 172 391
Width: 497
Flags: W
LayerCount: 2
Fore
SplineSet
34 299.072 m 1,0,-1
 34 360.929 l 1,1,-1
 463.024 360.929 l 1,2,-1
 463.024 103.904 l 1,3,-1
 397.168 103.904 l 1,4,-1
 397.168 299.072 l 1,5,-1
 34 299.072 l 1,0,-1
EndSplineSet
EndChar
